<svg xmlns="http://www.w3.org/2000/svg" viewBox="0 0 49.97 56.95"><defs><style>.cls-1{fill:#333;}</style></defs><title>abolut_logo</title><g id="圖層_2" data-name="圖層 2"><g id="圖層_1-2" data-name="圖層 1"><g id="Group_402" data-name="Group 402"><g id="Group_400" data-name="Group 400"><path id="Path_286" data-name="Path 286" class="cls-1" d="M37.17,2.24A22.62,22.62,0,0,0,30,.44a22.86,22.86,0,0,0-3.7,0,21.34,21.34,0,0,0-3.64.64A21.7,21.7,0,0,0,10.7,9.2a22.51,22.51,0,0,0-3.27,6.49A21.55,21.55,0,0,0,48,30a21.94,21.94,0,0,0,.77-14.52,20.6,20.6,0,0,1,.9,3.62A20.39,20.39,0,0,1,50,22.84a21.71,21.71,0,0,1-1.4,7.36,21.88,21.88,0,0,1-3.86,6.47A22.32,22.32,0,0,1,5.45,22.93a22.6,22.6,0,0,1,1-7.53A22.27,22.27,0,0,1,10,8.68a22.63,22.63,0,0,1,5.56-5.13,21.9,21.9,0,0,1,21.6-1.31Z"/></g><g id="Group_401" data-name="Group 401"><path id="Path_287" data-name="Path 287" class="cls-1" d="M44.34,9.44A1.07,1.07,0,0,0,45.23,9a1.7,1.7,0,0,0,.33-.9,1.19,1.19,0,0,0-.29-.93,1.11,1.11,0,0,0-.93-.34,1.38,1.38,0,0,0-.85.42,1.29,1.29,0,0,0-.33.85,1.5,1.5,0,0,0,.29.89A1.11,1.11,0,0,0,44.34,9.44Zm0,0a1.75,1.75,0,0,1-1.06-.33,1.36,1.36,0,0,1-.52-1.07A1.51,1.51,0,0,1,43.24,7a1.43,1.43,0,0,1,1.1-.38,1.72,1.72,0,0,1,1,.47,1.54,1.54,0,0,1,.52,1,1.25,1.25,0,0,1-.48,1.05,1.7,1.7,0,0,1-1.06.34Z"/></g></g><g id="Group_404" data-name="Group 404"><g id="Group_403" data-name="Group 403"><path id="Path_288" data-name="Path 288" class="cls-1" d="M0,31.49H0l.2-.07h0l0,0,0,.07a.85.85,0,0,1,0,.5s0,0,0,0a1,1,0,0,0-.13-.35l0,0s0,0,0,0h0l.2-.08h0c0,.22,0,.43,0,.65a1.75,1.75,0,0,0,0,.32c0,.1,0,.21.06.31l.07.31.1.3a2.52,2.52,0,0,0,.12.29A2.44,2.44,0,0,0,.85,34a3.28,3.28,0,0,0,1,1.17,3.64,3.64,0,0,0,1.45.57,6.55,6.55,0,0,0,3.2-.29,19,19,0,0,0,5.83-3.26c.44-.36.86-.71,1.28-1.1s.84-.76,1.23-1.17A14,14,0,0,0,16,28.66a5.88,5.88,0,0,0,.81-1.3,1,1,0,0,0,.06-.94s-.09-.08-.27-.1a2.17,2.17,0,0,0-.62.1,7.65,7.65,0,0,0-2.65,1.73,7.26,7.26,0,0,0-1.05,1.23,3,3,0,0,0-.53,1.38,1.08,1.08,0,0,0,.66,1,4,4,0,0,0,1.54.4,11.89,11.89,0,0,0,6.56-1.44,30.46,30.46,0,0,0,3-1.7l1.46-.95c.48-.32,1-.63,1.42-1a50.59,50.59,0,0,0,5.38-4.29A17.57,17.57,0,0,0,34,20.35a6.59,6.59,0,0,0,1.33-2.75,1.41,1.41,0,0,0,0-.29s0-.09,0-.14,0-.07,0-.11a.19.19,0,0,0,0-.1s0-.07,0-.1S35,16.74,35,16.7a1.89,1.89,0,0,0-1.16-.29,5.31,5.31,0,0,0-2.79,1,13.5,13.5,0,0,0-2.41,2.18,23.89,23.89,0,0,0-2,2.67,28.13,28.13,0,0,0-1.68,2.91c-.25.5-.49,1-.71,1.53a15.22,15.22,0,0,0-.57,1.55,10,10,0,0,0-.53,3.16A3.27,3.27,0,0,0,24.17,34a4,4,0,0,0,2.83.81,11,11,0,0,0,3.2-.76l.39-.16.28-.12.09,0,.18-.07.35-.16.69-.33s.55-.25,1.28-.62,1.62-.88,2.35-1.32a16.23,16.23,0,0,1,1.48-.9l-1.41,1.1c.08-.06-.77.6-1.67,1.24-.45.33-.91.64-1.26.88l-.59.38-.68.39-.35.18-.08,0-.23.12-.39.19a15.59,15.59,0,0,1-1.64.66,7.51,7.51,0,0,1-3.64.4,4.65,4.65,0,0,1-1.82-.73,4.35,4.35,0,0,1-1.36-1.5,5.75,5.75,0,0,1-.54-1.9,9.64,9.64,0,0,1,0-1.86,14.91,14.91,0,0,1,.89-3.49,26.78,26.78,0,0,1,3.35-6.18,19.3,19.3,0,0,1,2.33-2.7,11.57,11.57,0,0,1,3-2.11c.3-.13.6-.25.91-.36a7.73,7.73,0,0,1,1-.18,4.31,4.31,0,0,1,2,.19,3.22,3.22,0,0,1,.53.25,3,3,0,0,1,.47.4,2.43,2.43,0,0,1,.2.25,2.34,2.34,0,0,1,.15.27,2.19,2.19,0,0,1,.21.59A3.58,3.58,0,0,1,36.4,19a10.54,10.54,0,0,1-.92,1.6q-.25.38-.54.72c-.19.23-.38.46-.58.68a20.66,20.66,0,0,1-2.58,2.37,68.89,68.89,0,0,1-5.71,3.86,60.64,60.64,0,0,1-6,3.32,16.74,16.74,0,0,1-3.29,1.1,10.1,10.1,0,0,1-1.74.22,9.43,9.43,0,0,1-1.76,0,3.25,3.25,0,0,1-1.76-.68,1.79,1.79,0,0,1-.57-.91,2.28,2.28,0,0,1,0-1,5,5,0,0,1,.76-1.71A8.17,8.17,0,0,1,12.85,27a10.46,10.46,0,0,1,1.4-1.17A5.67,5.67,0,0,1,16,25.05a2.26,2.26,0,0,1,1.21,0,1.45,1.45,0,0,1,.63.4,1.62,1.62,0,0,1,.38.59,2.34,2.34,0,0,1,.09,1.23,4.76,4.76,0,0,1-.35,1,11.55,11.55,0,0,1-2.26,2.85c-.21.21-.43.41-.65.6l-.64.57c-.45.38-.9.75-1.38,1.1a22.79,22.79,0,0,1-3,1.85A14.58,14.58,0,0,1,6.73,36.5a7,7,0,0,1-.89.17,6.69,6.69,0,0,1-.91.08,6.51,6.51,0,0,1-1.81-.22,4.37,4.37,0,0,1-1.67-.83A3.92,3.92,0,0,1,.37,34.21a1.61,1.61,0,0,1-.12-.33,2.07,2.07,0,0,1-.1-.33l-.08-.34,0-.34c0-.12,0-.23,0-.35v-.34C0,31.94,0,31.72,0,31.49Z"/></g></g><g id="Group_413" data-name="Group 413"><g id="Group_406" data-name="Group 406"><path id="Path_289" data-name="Path 289" class="cls-1" d="M11.79,53.51a1.78,1.78,0,0,1,.83.63,1.76,1.76,0,0,1-1.43,2.76,1.68,1.68,0,0,1-1.34-.64l.18-.14a1.52,1.52,0,1,0,1.16-2.49v-.22a1.25,1.25,0,0,0,0-2.5,1.2,1.2,0,0,0-1.06.6l-.19-.12a1.46,1.46,0,0,1,1.25-.71,1.48,1.48,0,0,1,.6,2.83Z"/><path id="Path_290" data-name="Path 290" class="cls-1" d="M11.19,57a1.72,1.72,0,0,1-1.38-.65l0,0L10,56l0,0a1.46,1.46,0,1,0,2.25-1.86,1.45,1.45,0,0,0-1.13-.53h0v-.34h0a1.19,1.19,0,1,0,0-2.38h0a1.12,1.12,0,0,0-1,.56l0,0-.29-.18,0,0a1.53,1.53,0,1,1,2,2.15,1.73,1.73,0,0,1,.74.6,1.8,1.8,0,0,1-.42,2.51,1.87,1.87,0,0,1-1.05.33Zm-1.26-.68a1.65,1.65,0,0,0,1.26.58,1.7,1.7,0,0,0,1.69-1.7,1.65,1.65,0,0,0-.31-1,1.72,1.72,0,0,0-.8-.61l-.13,0,.13-.06A1.42,1.42,0,1,0,10,51.37l.1.07a1.26,1.26,0,0,1,1.08-.58,1.31,1.31,0,0,1,1.31,1.3,1.29,1.29,0,0,1-1.25,1.3v.12a1.59,1.59,0,0,1,1.52,1.63,1.57,1.57,0,0,1-1.58,1.51A1.47,1.47,0,0,1,10,56.19Z"/></g><g id="Group_407" data-name="Group 407"><path id="Path_291" data-name="Path 291" class="cls-1" d="M15.87,53.38a1.76,1.76,0,1,1-1.75,1.77h0a5.13,5.13,0,0,1,.19-1.83,3.55,3.55,0,0,1,2.33-2.59l.11,0,0,.25a3.38,3.38,0,0,0-2.18,2.44,6.21,6.21,0,0,0-.16.86,1.76,1.76,0,0,1,.63-.61A1.65,1.65,0,0,1,15.87,53.38Zm0,3.28a1.53,1.53,0,1,0-1.52-1.53h0v.11a1.52,1.52,0,0,0,1.52,1.42Z"/><path id="Path_292" data-name="Path 292" class="cls-1" d="M15.87,57a1.82,1.82,0,0,1-1.81-1.81,5.43,5.43,0,0,1,.2-1.84,3.61,3.61,0,0,1,2.36-2.63l.19-.07,0,.37h0a3.32,3.32,0,0,0-2.14,2.4,4.56,4.56,0,0,0-.14.64,1.73,1.73,0,0,1,.52-.45,1.76,1.76,0,0,1,.9-.24,1.81,1.81,0,0,1,0,3.62Zm.81-6.19h0a3.48,3.48,0,0,0-2.28,2.55,5.1,5.1,0,0,0-.2,1.82A1.68,1.68,0,1,0,15,53.66a1.64,1.64,0,0,0-.6.6l-.13.21,0-.24a6.08,6.08,0,0,1,.16-.87,3.44,3.44,0,0,1,2.18-2.47Zm-.81,6a1.58,1.58,0,0,1-1.57-1.48v-.11a1.58,1.58,0,1,1,1.58,1.59Zm0-3a1.46,1.46,0,0,0-1.47,1.46v.11A1.46,1.46,0,1,0,17.33,55a1.45,1.45,0,0,0-1.46-1.36Z"/></g><g id="Group_408" data-name="Group 408"><path id="Path_293" data-name="Path 293" class="cls-1" d="M19,51.83A.63.63,0,0,1,19,51a.62.62,0,0,1,.86.89.63.63,0,0,1-.43.17A.59.59,0,0,1,19,51.83Zm.26-.64a.27.27,0,0,0,.19.46.28.28,0,0,0,.27-.27.25.25,0,0,0-.09-.19.23.23,0,0,0-.18-.08.26.26,0,0,0-.19.08Z"/></g><g id="Group_409" data-name="Group 409"><path id="Path_294" data-name="Path 294" class="cls-1" d="M27.7,50.74l-1.85,3.14v3h-.23v-3l-1.85-3.14H24l1.66,2.82h.08l1.66-2.82Z"/><path id="Path_295" data-name="Path 295" class="cls-1" d="M25.9,56.89h-.33v-3l-1.89-3.21h.38l1.66,2.82h0l1.66-2.82h.39L25.9,53.9Zm-.22-.11h.12V53.87h0l1.8-3.06h-.14l-1.65,2.81h-.15L24,50.8h-.14l1.82,3.07Z"/></g><g id="Group_410" data-name="Group 410"><path id="Path_296" data-name="Path 296" class="cls-1" d="M29,56a3.1,3.1,0,1,1,4.38,0,3.14,3.14,0,0,1-2.19.9A3,3,0,0,1,29,56Zm.16-4.23a2.86,2.86,0,1,0,2-.85,2.78,2.78,0,0,0-2,.85Z"/><path id="Path_297" data-name="Path 297" class="cls-1" d="M31.21,57A3,3,0,0,1,29,56h0a3.16,3.16,0,1,1,2.23.93Zm0-6.21A3,3,0,0,0,29.06,56h0a3,3,0,1,0,2.15-5.21Zm0,6a2.94,2.94,0,1,1,2.08-.86A2.86,2.86,0,0,1,31.21,56.72Zm0-5.75a2.66,2.66,0,0,0-2,.82h0a2.8,2.8,0,1,0,2-.83Z"/></g><g id="Group_411" data-name="Group 411"><path id="Path_298" data-name="Path 298" class="cls-1" d="M36.4,56a3.11,3.11,0,0,1,2.2-5.31,3,3,0,0,1,1.21.25l-.09.21a2.91,2.91,0,0,0-1.12-.23,2.88,2.88,0,1,0,1,5.56V53.88H38.13v-.23h1.75v3l-.07,0a3.16,3.16,0,0,1-1.21.25A3,3,0,0,1,36.4,56Z"/><path id="Path_299" data-name="Path 299" class="cls-1" d="M38.6,57a3.16,3.16,0,1,1,0-6.32,3.08,3.08,0,0,1,1.23.25l.05,0-.13.31,0,0A2.64,2.64,0,0,0,38.6,51a2.82,2.82,0,1,0,0,5.64,2.64,2.64,0,0,0,1-.18V53.94H38.07V53.6h1.87v3.06l-.11,0A3.08,3.08,0,0,1,38.6,57Zm0-6.21A3,3,0,0,0,36.44,56h0a2.91,2.91,0,0,0,2.16.89,3,3,0,0,0,1.19-.24h0V53.71H38.18v.12h1.53v2.68h0a3,3,0,0,1-1.07.2,2.93,2.93,0,1,1,1.09-5.65l.05-.11A3,3,0,0,0,38.6,50.74Z"/></g><g id="Group_412" data-name="Group 412"><path id="Path_300" data-name="Path 300" class="cls-1" d="M45.57,50.74v6.1h-.22V55.22H42.59l-1,1.62H41.3L42.44,55v0h0l2.69-4.26ZM42.73,55h2.62V50.86Z"/><path id="Path_301" data-name="Path 301" class="cls-1" d="M45.63,56.89H45.3V55.28H42.62l-1,1.61h-.4L42.39,55v-.08h0l2.69-4.25h.27v0h.23Zm-.23-.11h.12v-6H45.4v4.25H42.63l2.7-4.25h-.15l-2.69,4.25h0l-1.09,1.72h.15l1-1.61H45.4Zm-2.57-1.84H45.3V51Z"/></g></g></g></g></svg>