<?xml version="1.0" encoding="utf-8"?>
<!-- Generator: Adobe Illustrator 25.0.0, SVG Export Plug-In . SVG Version: 6.00 Build 0)  -->
<svg version="1.1" id="圖層_1" xmlns="http://www.w3.org/2000/svg" xmlns:xlink="http://www.w3.org/1999/xlink" x="0px" y="0px"
	 viewBox="0 0 50 50" style="enable-background:new 0 0 50 50;" xml:space="preserve">
<style type="text/css">
	.st0{fill:none;}
	.st1{fill:#DB5C00;}
	.st2{fill:#FFFFFF;}
</style>
<g id="圖層_2_1_">
	<g id="圖層_1-2">
		<g id="Ellipse_215-2">
			<g>
				<circle class="st0" cx="25" cy="25" r="25"/>
			</g>
			<g>
				<path class="st1" d="M25,50C11.2,50,0,38.8,0,25S11.2,0,25,0s25,11.2,25,25S38.8,50,25,50z M25,2C12.3,2,2,12.3,2,25
					c0,12.7,10.3,23,23,23c12.7,0,23-10.3,23-23C48,12.3,37.7,2,25,2z"/>
			</g>
		</g>
		<g id="Group_1061-2">
			<g id="Path_36-2">
				<path class="st1" d="M18.6,24.6l9.6,9.6l2.9-2.9l-6.7-6.7l6.7-6.7L28.1,15L18.6,24.6z"/>
			</g>
		</g>
	</g>
</g>
<rect x="1.9" y="-20.1" class="st2" width="31.7" height="13"/>
</svg>
