<svg xmlns="http://www.w3.org/2000/svg" viewBox="0 0 128.88 120"><defs><style>.cls-1{fill:none;}.cls-2{fill:#db5c00;}.cls-3{isolation:isolate;}</style></defs><g id="圖層_2" data-name="圖層 2"><g id="圖層_1-2" data-name="圖層 1"><g id="Path_360" data-name="Path 360"><path class="cls-1" d="M0,60a60,60,0,1,1,60,60A60,60,0,0,1,0,60Z"/><path class="cls-2" d="M0,60c0-.38,0-.76,0-1.14A59.7,59.7,0,0,1,4.72,36.65c.6-1.43,1.25-2.82,2-4.19.83-1.6,1.73-3.17,2.7-4.69.29-.44.57-.88.87-1.32q1.27-1.89,2.7-3.69A60.69,60.69,0,0,1,22.76,13q1.8-1.42,3.69-2.7l1.32-.87c1.52-1,3.09-1.87,4.69-2.7,1.37-.71,2.76-1.36,4.19-2A59.7,59.7,0,0,1,58.86,0H60a60.11,60.11,0,0,1,54.68,35.26q.51,1.14,1,2.31A59.72,59.72,0,0,1,120,58.42c0,.52,0,1,0,1.58h0v0h0v0h0v0h0v0h0v0h0v0h0v0h0v0h0v0h0v0h0v0h0v0h0v0h0v0h0v0h0v0h0v0h0v0h0v0h0v0h0v0h0v0h0v0h0v0h0v0h0v0h0v.05h0v0h0v0h0v0h0v0h0v0h0v0h0v0h0v0h0v0h0v0h0v.07h0v0h0v0h0v0h0v0h0v0h0v0h0v0h0v0h0v0h0v0h0V62h0v0h0v0h0v0h0v0h0v0h0v0h0v0h0v0h0v0h0v0h0v.1h0v0h0v0h0v0h0v0h0v0h0v0h0v0h0v0h0v0h0v0h0v0h0v0h0v.15h0v0h0v0h0v0h0v0h0v0h0v0h0v0h0v0h0v0h0a1.55,1.55,0,0,1,0,.22h0v0h0v0h0v0h0v0h0v0h0v0h0c0,.11,0,.23,0,.34h0a58.52,58.52,0,0,1-1,7.66,2,2,0,0,1-4-.38,1.64,1.64,0,0,1,0-.38A56.7,56.7,0,0,0,116,60a55.65,55.65,0,0,0-4.4-21.8,56.46,56.46,0,0,0-5.16-9.51A56.33,56.33,0,0,0,91.31,13.56,56.46,56.46,0,0,0,81.8,8.4a56.2,56.2,0,0,0-43.6,0,56.46,56.46,0,0,0-9.51,5.16A56.33,56.33,0,0,0,13.56,28.69,56.46,56.46,0,0,0,8.4,38.2,55.65,55.65,0,0,0,4,60H4A55.65,55.65,0,0,0,8.4,81.8a56.46,56.46,0,0,0,5.16,9.51,56.33,56.33,0,0,0,15.13,15.13,56.46,56.46,0,0,0,9.51,5.16A55.65,55.65,0,0,0,60,116a56.47,56.47,0,0,0,11.84-1.25,2,2,0,1,1,.84,3.91c-1,.21-2,.4-3,.56h-.22l-.15,0h-.81l-.23,0h-.1c-1.46.2-2.94.35-4.44.44h0l-.48,0H60l-1.58,0a59.72,59.72,0,0,1-20.85-4.31q-1.17-.48-2.31-1A60,60,0,0,1,0,61.15C0,60.76,0,60.38,0,60Z"/></g><g id="Check" class="cls-3"><g class="cls-3"><path class="cls-2" d="M84.94,101.78a6.36,6.36,0,0,1-.89.54,7.73,7.73,0,0,1-3.67.84,8.4,8.4,0,0,1-3.11-.63A6.75,6.75,0,0,1,75,100.92a7.08,7.08,0,0,1-1.45-2.34,8,8,0,0,1-.5-2.82,8.93,8.93,0,0,1,.51-3.08A7.12,7.12,0,0,1,75,90.26a6.49,6.49,0,0,1,2.27-1.58,7.45,7.45,0,0,1,2.92-.56,7.8,7.8,0,0,1,2.62.4,9.06,9.06,0,0,1,1.86.86L83.5,92.12a8.32,8.32,0,0,0-1.33-.79,4.29,4.29,0,0,0-1.91-.41,3.89,3.89,0,0,0-1.61.35,4.1,4.1,0,0,0-1.36,1,4.94,4.94,0,0,0-.93,1.49A4.87,4.87,0,0,0,76,95.6a5.72,5.72,0,0,0,.31,1.94,4.29,4.29,0,0,0,.89,1.51,4,4,0,0,0,1.39,1,4.63,4.63,0,0,0,1.83.34,4.92,4.92,0,0,0,2-.38,4.49,4.49,0,0,0,1.28-.8Z"/><path class="cls-2" d="M87.38,103V87.22h2.74V96l0-.34a3.6,3.6,0,0,1,1.3-1.33,3.91,3.91,0,0,1,2.06-.51,3,3,0,0,1,2.07.73,2.47,2.47,0,0,1,.85,1.89V103h-2.8V97.5a1.48,1.48,0,0,0-.31-.93,1.21,1.21,0,0,0-1-.35,1.64,1.64,0,0,0-1.12.42,2.66,2.66,0,0,0-.74,1.14,4.94,4.94,0,0,0-.26,1.66V103Z"/><path class="cls-2" d="M103.56,103.24a5.62,5.62,0,0,1-2.71-.6A4.1,4.1,0,0,1,99.16,101a5,5,0,0,1-.58-2.44,4.35,4.35,0,0,1,.68-2.38,4.93,4.93,0,0,1,1.82-1.69,5.17,5.17,0,0,1,2.54-.63,4.44,4.44,0,0,1,3.09,1.09,5.32,5.32,0,0,1,1.57,3.15l-6.8,2.16-.62-1.52,4.92-1.66-.58.26a2.13,2.13,0,0,0-.57-.91A1.71,1.71,0,0,0,103.4,96a2.06,2.06,0,0,0-1.09.29,1.92,1.92,0,0,0-.72.82,3.26,3.26,0,0,0,0,2.62,2,2,0,0,0,.82.83,2.37,2.37,0,0,0,1.16.28,2.46,2.46,0,0,0,.89-.16,5.16,5.16,0,0,0,.85-.42l1.24,2.08a7,7,0,0,1-1.51.64A5.39,5.39,0,0,1,103.56,103.24Z"/><path class="cls-2" d="M117.74,102.22a4.59,4.59,0,0,1-1.45.74,5.46,5.46,0,0,1-1.71.28,5.77,5.77,0,0,1-2.61-.55,4,4,0,0,1-1.72-1.58,4.79,4.79,0,0,1-.61-2.49,4.53,4.53,0,0,1,.66-2.49A4.35,4.35,0,0,1,112,94.56a4.91,4.91,0,0,1,2.25-.54,6,6,0,0,1,2,.32,4.78,4.78,0,0,1,1.49.84L116.46,97a3.73,3.73,0,0,0-.77-.45,2.74,2.74,0,0,0-1.15-.23,2,2,0,0,0-1.06.3,2.15,2.15,0,0,0-.76.82,2.47,2.47,0,0,0-.28,1.2,2.38,2.38,0,0,0,.3,1.18,2.26,2.26,0,0,0,.83.85,2.39,2.39,0,0,0,1.25.31,2.57,2.57,0,0,0,.85-.13,2.07,2.07,0,0,0,.67-.37Z"/><path class="cls-2" d="M119.9,103V87.22h2.8V103Zm2-2.42-.28-2.66L126.86,94l1.7,1.5Zm3.06-3.52,4,5.94h-3.26l-2.54-4.34Z"/></g></g></g></g></svg>