<svg xmlns="http://www.w3.org/2000/svg" viewBox="0 0 133.5 665.92"><defs><style>.cls-1,.cls-5{fill:none;}.cls-2{fill:#db5c00;}.cls-3{isolation:isolate;}.cls-4{fill:#004a13;}.cls-5{stroke:#004a13;stroke-width:2px;}</style></defs><g id="圖層_2" data-name="圖層 2"><g id="圖層_1-2" data-name="圖層 1"><g id="Group_1243" data-name="Group 1243"><g id="Group_1242" data-name="Group 1242"><g id="Group_1241" data-name="Group 1241"><g id="Path_360" data-name="Path 360"><path class="cls-1" d="M0,605.92a60,60,0,1,1,60,60A60,60,0,0,1,0,605.92Z"/><path class="cls-2" d="M0,605.92c0-.38,0-.76,0-1.14a59.7,59.7,0,0,1,4.71-22.21c.6-1.43,1.25-2.82,2-4.19.83-1.6,1.73-3.17,2.7-4.69.29-.44.57-.88.87-1.32q1.27-1.89,2.7-3.69a60.69,60.69,0,0,1,9.81-9.81q1.8-1.43,3.69-2.7l1.32-.87c1.52-1,3.09-1.87,4.69-2.7,1.37-.71,2.76-1.36,4.19-2a59.7,59.7,0,0,1,22.21-4.71H60a60.11,60.11,0,0,1,54.68,35.26q.51,1.14,1,2.31A59.72,59.72,0,0,1,120,604.34c0,.52,0,1,0,1.58h0v0h0v0h0v0h0v0h0v0h0v0h0v0h0v0h0v0h0v0h0v0h0v0h0v0h0v0h0v0h0v0h0v0h0v0h0v0h0v0h0v0h0v0h0v0h0v0h0v0h0v0h0v0h0v0h0v0h0v0h0v0h0v0h0v0h0v0h0v0h0v0h0v.07h0v0h0v0h0v0h0v0h0v0h0v0h0v0h0v0h0v0h0v0h0v.1h0v0h0v0h0v0h0v0h0v0h0v0h0v0h0v0h0v0h0v0h0v.1h0v0h0v0h0v0h0v0h0v0h0v0h0v0h0v0h0v0h0v0h0v0h0v0h0v.15h0v0h0v0h0v0h0v0h0v0h0v0h0v0h0v0h0v0h0a1.55,1.55,0,0,1,0,.22h0v0h0v0h0v0h0v0h0v0h0v0h0c0,.12,0,.23,0,.34h0a58.52,58.52,0,0,1-1,7.66,2,2,0,0,1-4-.38,1.64,1.64,0,0,1,0-.38,56.7,56.7,0,0,0,1-10.66,55.65,55.65,0,0,0-4.4-21.8,56.46,56.46,0,0,0-5.16-9.51,56.33,56.33,0,0,0-15.13-15.13,56.46,56.46,0,0,0-9.51-5.16,56.2,56.2,0,0,0-43.6,0,56.46,56.46,0,0,0-9.51,5.16,56.33,56.33,0,0,0-15.13,15.13,56.46,56.46,0,0,0-5.16,9.51A55.65,55.65,0,0,0,4,605.92H4a55.65,55.65,0,0,0,4.4,21.8,56.46,56.46,0,0,0,5.16,9.51,56.33,56.33,0,0,0,15.13,15.13,56.46,56.46,0,0,0,9.51,5.16,55.65,55.65,0,0,0,21.8,4.4,56.47,56.47,0,0,0,11.84-1.25,2,2,0,1,1,.84,3.91c-1,.21-2,.4-3,.56h-.22l-.15,0h-.81l-.23,0h-.1c-1.46.2-2.94.35-4.44.44h0l-.48,0H60l-1.58,0a59.72,59.72,0,0,1-20.85-4.31q-1.17-.48-2.31-1A60,60,0,0,1,0,607.07C0,606.68,0,606.3,0,605.92Z"/></g><g id="Check" class="cls-3"><g class="cls-3"><path class="cls-2" d="M84.94,647.7a6.36,6.36,0,0,1-.89.54,7.73,7.73,0,0,1-3.67.84,8.4,8.4,0,0,1-3.11-.63A6.75,6.75,0,0,1,75,646.84a7.08,7.08,0,0,1-1.45-2.34,8,8,0,0,1-.5-2.82,8.93,8.93,0,0,1,.51-3.08A7.12,7.12,0,0,1,75,636.18a6.49,6.49,0,0,1,2.27-1.58,7.45,7.45,0,0,1,2.92-.56,7.8,7.8,0,0,1,2.62.4,9.06,9.06,0,0,1,1.86.86L83.5,638a8.32,8.32,0,0,0-1.33-.79,4.29,4.29,0,0,0-1.91-.41,3.89,3.89,0,0,0-1.61.35,4.1,4.1,0,0,0-1.36,1,4.94,4.94,0,0,0-.93,1.49,4.87,4.87,0,0,0-.34,1.85,5.72,5.72,0,0,0,.31,1.94,4.29,4.29,0,0,0,.89,1.51,4,4,0,0,0,1.39,1,4.63,4.63,0,0,0,1.83.34,4.92,4.92,0,0,0,2-.38,4.49,4.49,0,0,0,1.28-.8Z"/><path class="cls-2" d="M87.38,648.92V633.14h2.74v8.8l0-.34a3.6,3.6,0,0,1,1.3-1.33,3.91,3.91,0,0,1,2.06-.51,3,3,0,0,1,2.07.73,2.47,2.47,0,0,1,.85,1.89v6.54h-2.8v-5.5a1.48,1.48,0,0,0-.31-.93,1.21,1.21,0,0,0-1-.35,1.64,1.64,0,0,0-1.12.42,2.66,2.66,0,0,0-.74,1.14,4.94,4.94,0,0,0-.26,1.66v3.56Z"/><path class="cls-2" d="M103.56,649.16a5.62,5.62,0,0,1-2.71-.6,4.1,4.1,0,0,1-1.69-1.66,5,5,0,0,1-.58-2.44,4.35,4.35,0,0,1,.68-2.38,4.93,4.93,0,0,1,1.82-1.69,5.17,5.17,0,0,1,2.54-.63,4.44,4.44,0,0,1,3.09,1.09,5.32,5.32,0,0,1,1.57,3.15l-6.8,2.16-.62-1.52,4.92-1.66-.58.26a2.13,2.13,0,0,0-.57-.91,1.71,1.71,0,0,0-1.23-.39,2.06,2.06,0,0,0-1.09.29,1.92,1.92,0,0,0-.72.82,3.26,3.26,0,0,0,0,2.62,2,2,0,0,0,.82.83,2.37,2.37,0,0,0,1.16.28,2.46,2.46,0,0,0,.89-.16,5.16,5.16,0,0,0,.85-.42l1.24,2.08a7,7,0,0,1-1.51.64A5.39,5.39,0,0,1,103.56,649.16Z"/><path class="cls-2" d="M117.74,648.14a4.59,4.59,0,0,1-1.45.74,5.46,5.46,0,0,1-1.71.28,5.77,5.77,0,0,1-2.61-.55,4,4,0,0,1-1.72-1.58,4.79,4.79,0,0,1-.61-2.49,4.53,4.53,0,0,1,.66-2.49,4.35,4.35,0,0,1,1.73-1.57,4.91,4.91,0,0,1,2.25-.54,6,6,0,0,1,2,.32,4.78,4.78,0,0,1,1.49.84l-1.36,1.8a3.73,3.73,0,0,0-.77-.45,2.74,2.74,0,0,0-1.15-.23,2,2,0,0,0-1.06.3,2.15,2.15,0,0,0-.76.82,2.47,2.47,0,0,0-.28,1.2,2.38,2.38,0,0,0,.3,1.18,2.26,2.26,0,0,0,.83.85,2.39,2.39,0,0,0,1.25.31,2.57,2.57,0,0,0,.85-.13,2.07,2.07,0,0,0,.67-.37Z"/><path class="cls-2" d="M119.9,648.92V633.14h2.8v15.78Zm2-2.42-.28-2.66,5.28-3.88,1.7,1.5Zm3.06-3.52,4,5.94h-3.26l-2.54-4.34Z"/></g></g></g></g><g id="Group_1240" data-name="Group 1240"><g id="Group_1238" data-name="Group 1238"><g id="h1"><g id="Find_Your_Soulmat" data-name="Find Your Soulmat" class="cls-3"><g class="cls-3"><path class="cls-4" d="M129.1,1V30.44h-9V10.28H109.46V27.75h-9V10.28H82V1Z"/><path class="cls-4" d="M110,39.21v9H82v-9Zm9.92-.19a4,4,0,0,1,3.26,1.56,5.2,5.2,0,0,1,1.28,3.36,4.94,4.94,0,0,1-1.28,3.3,4.09,4.09,0,0,1-3.26,1.5,4,4,0,0,1-3.23-1.5,5,5,0,0,1-1.25-3.3,5.28,5.28,0,0,1,1.25-3.36A4,4,0,0,1,119.89,39Z"/><path class="cls-4" d="M110,66.79l-5,.71.44-.13a11.55,11.55,0,0,1,4.26,4.16,12.46,12.46,0,0,1,1.63,6.59A9.7,9.7,0,0,1,109,84.74a7.88,7.88,0,0,1-6,2.72H82v-9H99.6a4.77,4.77,0,0,0,3-1,3.84,3.84,0,0,0,1.12-3.1,5.28,5.28,0,0,0-1.35-3.59,8.54,8.54,0,0,0-3.65-2.36,15.41,15.41,0,0,0-5.31-.84H82v-9h28Z"/><path class="cls-4" d="M81.23,109.35a13.39,13.39,0,0,1,1.83-7,12.65,12.65,0,0,1,5.28-4.83,17.86,17.86,0,0,1,8.19-1.76,15.89,15.89,0,0,1,8.06,1.92,12.72,12.72,0,0,1,5.06,5.25,16.18,16.18,0,0,1,1.73,7.55,15.84,15.84,0,0,1-.84,5.15,10,10,0,0,1-2.56,4.13H132.5v8.9H82v-9h5.44l-1.92.7a22.65,22.65,0,0,1-3-4.86A14.62,14.62,0,0,1,81.23,109.35Zm7.55,2.94a9.6,9.6,0,0,0,.48,3.17,7.18,7.18,0,0,0,1.41,2.43A8.35,8.35,0,0,0,93,119.72h6.85a6.26,6.26,0,0,0,2.4-1.57,7.28,7.28,0,0,0,1.53-2.56,9.68,9.68,0,0,0,.55-3.3,7.09,7.09,0,0,0-1-3.68,7.54,7.54,0,0,0-2.72-2.72,7.63,7.63,0,0,0-4-1,8,8,0,0,0-4,1,7.72,7.72,0,0,0-2.81,2.72A7,7,0,0,0,88.78,112.29Z"/><path class="cls-4" d="M96.66,175l32.44-17.34v11.45l-24.44,12.16-.2-2.75,24.64,12v11.45L96.66,184.23H82V175Z"/><path class="cls-4" d="M96.34,199.53a14.82,14.82,0,0,1,7.68,2,14.25,14.25,0,0,1,5.34,5.67,17.48,17.48,0,0,1,2,8.38,16.91,16.91,0,0,1-2,8.32,13.56,13.56,0,0,1-5.34,5.41,15.55,15.55,0,0,1-7.68,1.89,15.74,15.74,0,0,1-7.72-1.89,13.71,13.71,0,0,1-5.4-5.41,16.87,16.87,0,0,1-2-8.45A18.33,18.33,0,0,1,83,207.24a13.55,13.55,0,0,1,5.19-5.67A15.48,15.48,0,0,1,96.34,199.53Zm-.07,9a8.49,8.49,0,0,0-3.93.9,7,7,0,0,0-2.79,2.43,6.08,6.08,0,0,0-1,3.45,6.43,6.43,0,0,0,1,3.65,6.61,6.61,0,0,0,2.79,2.37,9.81,9.81,0,0,0,7.9,0A6.68,6.68,0,0,0,103,219a6.44,6.44,0,0,0,1-3.65,6.09,6.09,0,0,0-1-3.45,7.12,7.12,0,0,0-2.75-2.43A8.48,8.48,0,0,0,96.27,208.55Z"/><path class="cls-4" d="M80.66,248.55A9,9,0,0,1,83,242.21,8.23,8.23,0,0,1,89,239.53H110v9H92.37a5.47,5.47,0,0,0-3,1,3.26,3.26,0,0,0-1.12,2.81,4.85,4.85,0,0,0,1.35,3.43,8.85,8.85,0,0,0,3.68,2.24,16.27,16.27,0,0,0,5.28.8H110v9H82v-8.13l5.12-.71-.58.13a12.19,12.19,0,0,1-3.07-2.43,10.42,10.42,0,0,1-2.08-3.49A13.09,13.09,0,0,1,80.66,248.55Z"/><path class="cls-4" d="M110,286.25l-7.68.83,1.15-.19a12.93,12.93,0,0,1,4.26,3.32,19.27,19.27,0,0,1,2.72,4.2,8.43,8.43,0,0,1,1,3.16l-9-.44a8,8,0,0,0-1-5.38,9.63,9.63,0,0,0-3.71-3.46,10,10,0,0,0-4.74-1.21H82v-8.9h28Z"/><path class="cls-4" d="M117.71,354.4a35.27,35.27,0,0,0,2.43-5.47,16,16,0,0,0,1-5.21,8.11,8.11,0,0,0-1.21-4.74,4.4,4.4,0,0,0-6.63-.42,12.77,12.77,0,0,0-2.33,3.4,46.79,46.79,0,0,0-1.86,4.32,36.38,36.38,0,0,1-1.82,4.06,15.26,15.26,0,0,1-2.63,3.62,11.51,11.51,0,0,1-3.9,2.56,15.12,15.12,0,0,1-5.73,1,12.58,12.58,0,0,1-6.65-1.86,13.47,13.47,0,0,1-5-5.44,18.75,18.75,0,0,1-1.89-8.83,28.64,28.64,0,0,1,.54-5.47,28.08,28.08,0,0,1,1.67-5.48,27.64,27.64,0,0,1,2.84-5.18l7.24,4.1a22.64,22.64,0,0,0-2.15,3.61,21.78,21.78,0,0,0-1.44,3.94,14.73,14.73,0,0,0-.51,3.65,12.29,12.29,0,0,0,.48,3.36,6.12,6.12,0,0,0,1.63,2.81,4.39,4.39,0,0,0,3.2,1.12,4,4,0,0,0,2.56-.93,9.46,9.46,0,0,0,2.11-2.49,20.59,20.59,0,0,0,1.67-3.43q.83-2.18,1.92-4.48a23,23,0,0,1,2.65-4.31,11.49,11.49,0,0,1,9.64-4.52,13.4,13.4,0,0,1,7.1,1.83,13,13,0,0,1,4.77,5.15,18,18,0,0,1,2,7.68,26.74,26.74,0,0,1-1.34,9.25,32.87,32.87,0,0,1-3.2,6.36Z"/><path class="cls-4" d="M96.34,364.2a14.82,14.82,0,0,1,7.68,2,14.25,14.25,0,0,1,5.34,5.67,17.48,17.48,0,0,1,2,8.38,16.91,16.91,0,0,1-2,8.32A13.56,13.56,0,0,1,104,394a15.55,15.55,0,0,1-7.68,1.89A15.74,15.74,0,0,1,88.62,394a13.71,13.71,0,0,1-5.4-5.41,16.87,16.87,0,0,1-2-8.45A18.33,18.33,0,0,1,83,371.91a13.55,13.55,0,0,1,5.19-5.67A15.48,15.48,0,0,1,96.34,364.2Zm-.07,9a8.49,8.49,0,0,0-3.93.9,7,7,0,0,0-2.79,2.43,6.08,6.08,0,0,0-1,3.45,6.43,6.43,0,0,0,1,3.65A6.61,6.61,0,0,0,92.34,386a9.81,9.81,0,0,0,7.9,0,6.68,6.68,0,0,0,2.75-2.37,6.44,6.44,0,0,0,1-3.65,6.09,6.09,0,0,0-1-3.45,7.12,7.12,0,0,0-2.75-2.43A8.48,8.48,0,0,0,96.27,373.22Z"/><path class="cls-4" d="M80.66,413.22A9,9,0,0,1,83,406.88,8.23,8.23,0,0,1,89,404.2H110v9H92.37a5.47,5.47,0,0,0-3,1,3.26,3.26,0,0,0-1.12,2.81,4.85,4.85,0,0,0,1.35,3.43,8.85,8.85,0,0,0,3.68,2.24,16.27,16.27,0,0,0,5.28.8H110v9H82v-8.13l5.12-.71-.58.13a12.19,12.19,0,0,1-3.07-2.43,10.42,10.42,0,0,1-2.08-3.49A13.09,13.09,0,0,1,80.66,413.22Z"/><path class="cls-4" d="M132.5,442.85v9H82v-9Z"/><path class="cls-4" d="M110,470.44l-4.93.7.38-.13a12.74,12.74,0,0,1,4.39,4.16,11.15,11.15,0,0,1,1.57,6,12,12,0,0,1-.64,4.06,7.84,7.84,0,0,1-1.89,3,6.6,6.6,0,0,1-3.23,1.66l-.07-.32a15,15,0,0,1,4.23,4.32,9.81,9.81,0,0,1,1.6,5.28A9.24,9.24,0,0,1,109,505.8a8.16,8.16,0,0,1-6.05,2.52H82v-8.89H99.28a8.42,8.42,0,0,0,3-.58,2.48,2.48,0,0,0,1.31-2.37,5,5,0,0,0-1.5-3.68,9.3,9.3,0,0,0-3.84-2.24,16,16,0,0,0-4.83-.73H82v-9H99.28a7.23,7.23,0,0,0,3-.67,2.73,2.73,0,0,0,1.31-2.47,4.72,4.72,0,0,0-1.5-3.55A9.61,9.61,0,0,0,98.32,472a15.49,15.49,0,0,0-4.74-.73H82v-9h28Z"/><path class="cls-4" d="M81.23,530.6a15.83,15.83,0,0,1,1.57-7.08,11.67,11.67,0,0,1,4.83-5A16.66,16.66,0,0,1,96,516.64a16.58,16.58,0,0,1,8.19,1.92,14,14,0,0,1,5.35,5.06,12.69,12.69,0,0,1,1.89,6.66,11.73,11.73,0,0,1-1.38,6.3,15.79,15.79,0,0,1-3,3.55l-1.09-.38,4.1.83v8.32H82v-9h6.08l-1.92.7c0-.08-.25-.34-.74-.76A15,15,0,0,1,83.7,538,12.09,12.09,0,0,1,82,534.92,11.55,11.55,0,0,1,81.23,530.6Zm7.3,2.56A8.21,8.21,0,0,0,89,536a6.45,6.45,0,0,0,1.41,2.24,8.31,8.31,0,0,0,2.33,1.66H99.6a6.16,6.16,0,0,0,2.4-1.54,7.25,7.25,0,0,0,1.54-2.43,8.68,8.68,0,0,0,.54-3.13,6.76,6.76,0,0,0-1-3.56,7.28,7.28,0,0,0-2.72-2.59,8,8,0,0,0-4-1,7.9,7.9,0,0,0-4,1,7.6,7.6,0,0,0-2.82,2.72A7,7,0,0,0,88.53,533.16Z"/><path class="cls-4" d="M122.26,562v9H110.1v6.78h-7V571H82v-9h21.12v-4.35h7V562Z"/></g><g class="cls-3"><path class="cls-5" d="M129.1,1V30.44h-9V10.28H109.46V27.75h-9V10.28H82V1Z"/><path class="cls-5" d="M110,39.21v9H82v-9Zm9.92-.19a4,4,0,0,1,3.26,1.56,5.2,5.2,0,0,1,1.28,3.36,4.94,4.94,0,0,1-1.28,3.3,4.09,4.09,0,0,1-3.26,1.5,4,4,0,0,1-3.23-1.5,5,5,0,0,1-1.25-3.3,5.28,5.28,0,0,1,1.25-3.36A4,4,0,0,1,119.89,39Z"/><path class="cls-5" d="M110,66.79l-5,.71.44-.13a11.55,11.55,0,0,1,4.26,4.16,12.46,12.46,0,0,1,1.63,6.59A9.7,9.7,0,0,1,109,84.74a7.88,7.88,0,0,1-6,2.72H82v-9H99.6a4.77,4.77,0,0,0,3-1,3.84,3.84,0,0,0,1.12-3.1,5.28,5.28,0,0,0-1.35-3.59,8.54,8.54,0,0,0-3.65-2.36,15.41,15.41,0,0,0-5.31-.84H82v-9h28Z"/><path class="cls-5" d="M81.23,109.35a13.39,13.39,0,0,1,1.83-7,12.65,12.65,0,0,1,5.28-4.83,17.86,17.86,0,0,1,8.19-1.76,15.89,15.89,0,0,1,8.06,1.92,12.72,12.72,0,0,1,5.06,5.25,16.18,16.18,0,0,1,1.73,7.55,15.84,15.84,0,0,1-.84,5.15,10,10,0,0,1-2.56,4.13H132.5v8.9H82v-9h5.44l-1.92.7a22.65,22.65,0,0,1-3-4.86A14.62,14.62,0,0,1,81.23,109.35Zm7.55,2.94a9.6,9.6,0,0,0,.48,3.17,7.18,7.18,0,0,0,1.41,2.43A8.35,8.35,0,0,0,93,119.72h6.85a6.26,6.26,0,0,0,2.4-1.57,7.28,7.28,0,0,0,1.53-2.56,9.68,9.68,0,0,0,.55-3.3,7.09,7.09,0,0,0-1-3.68,7.54,7.54,0,0,0-2.72-2.72,7.63,7.63,0,0,0-4-1,8,8,0,0,0-4,1,7.72,7.72,0,0,0-2.81,2.72A7,7,0,0,0,88.78,112.29Z"/><path class="cls-5" d="M96.66,175l32.44-17.34v11.45l-24.44,12.16-.2-2.75,24.64,12v11.45L96.66,184.23H82V175Z"/><path class="cls-5" d="M96.34,199.53a14.82,14.82,0,0,1,7.68,2,14.25,14.25,0,0,1,5.34,5.67,17.48,17.48,0,0,1,2,8.38,16.91,16.91,0,0,1-2,8.32,13.56,13.56,0,0,1-5.34,5.41,15.55,15.55,0,0,1-7.68,1.89,15.74,15.74,0,0,1-7.72-1.89,13.71,13.71,0,0,1-5.4-5.41,16.87,16.87,0,0,1-2-8.45A18.33,18.33,0,0,1,83,207.24a13.55,13.55,0,0,1,5.19-5.67A15.48,15.48,0,0,1,96.34,199.53Zm-.07,9a8.49,8.49,0,0,0-3.93.9,7,7,0,0,0-2.79,2.43,6.08,6.08,0,0,0-1,3.45,6.43,6.43,0,0,0,1,3.65,6.61,6.61,0,0,0,2.79,2.37,9.81,9.81,0,0,0,7.9,0A6.68,6.68,0,0,0,103,219a6.44,6.44,0,0,0,1-3.65,6.09,6.09,0,0,0-1-3.45,7.12,7.12,0,0,0-2.75-2.43A8.48,8.48,0,0,0,96.27,208.55Z"/><path class="cls-5" d="M80.66,248.55A9,9,0,0,1,83,242.21,8.23,8.23,0,0,1,89,239.53H110v9H92.37a5.47,5.47,0,0,0-3,1,3.26,3.26,0,0,0-1.12,2.81,4.85,4.85,0,0,0,1.35,3.43,8.85,8.85,0,0,0,3.68,2.24,16.27,16.27,0,0,0,5.28.8H110v9H82v-8.13l5.12-.71-.58.13a12.19,12.19,0,0,1-3.07-2.43,10.42,10.42,0,0,1-2.08-3.49A13.09,13.09,0,0,1,80.66,248.55Z"/><path class="cls-5" d="M110,286.25l-7.68.83,1.15-.19a12.93,12.93,0,0,1,4.26,3.32,19.27,19.27,0,0,1,2.72,4.2,8.43,8.43,0,0,1,1,3.16l-9-.44a8,8,0,0,0-1-5.38,9.63,9.63,0,0,0-3.71-3.46,10,10,0,0,0-4.74-1.21H82v-8.9h28Z"/><path class="cls-5" d="M117.71,354.4a35.27,35.27,0,0,0,2.43-5.47,16,16,0,0,0,1-5.21,8.11,8.11,0,0,0-1.21-4.74,4.4,4.4,0,0,0-6.63-.42,12.77,12.77,0,0,0-2.33,3.4,46.79,46.79,0,0,0-1.86,4.32,36.38,36.38,0,0,1-1.82,4.06,15.26,15.26,0,0,1-2.63,3.62,11.51,11.51,0,0,1-3.9,2.56,15.12,15.12,0,0,1-5.73,1,12.58,12.58,0,0,1-6.65-1.86,13.47,13.47,0,0,1-5-5.44,18.75,18.75,0,0,1-1.89-8.83,28.64,28.64,0,0,1,.54-5.47,28.08,28.08,0,0,1,1.67-5.48,27.64,27.64,0,0,1,2.84-5.18l7.24,4.1a22.64,22.64,0,0,0-2.15,3.61,21.78,21.78,0,0,0-1.44,3.94,14.73,14.73,0,0,0-.51,3.65,12.29,12.29,0,0,0,.48,3.36,6.12,6.12,0,0,0,1.63,2.81,4.39,4.39,0,0,0,3.2,1.12,4,4,0,0,0,2.56-.93,9.46,9.46,0,0,0,2.11-2.49,20.59,20.59,0,0,0,1.67-3.43q.83-2.18,1.92-4.48a23,23,0,0,1,2.65-4.31,11.49,11.49,0,0,1,9.64-4.52,13.4,13.4,0,0,1,7.1,1.83,13,13,0,0,1,4.77,5.15,18,18,0,0,1,2,7.68,26.74,26.74,0,0,1-1.34,9.25,32.87,32.87,0,0,1-3.2,6.36Z"/><path class="cls-5" d="M96.34,364.2a14.82,14.82,0,0,1,7.68,2,14.25,14.25,0,0,1,5.34,5.67,17.48,17.48,0,0,1,2,8.38,16.91,16.91,0,0,1-2,8.32A13.56,13.56,0,0,1,104,394a15.55,15.55,0,0,1-7.68,1.89A15.74,15.74,0,0,1,88.62,394a13.71,13.71,0,0,1-5.4-5.41,16.87,16.87,0,0,1-2-8.45A18.33,18.33,0,0,1,83,371.91a13.55,13.55,0,0,1,5.19-5.67A15.48,15.48,0,0,1,96.34,364.2Zm-.07,9a8.49,8.49,0,0,0-3.93.9,7,7,0,0,0-2.79,2.43,6.08,6.08,0,0,0-1,3.45,6.43,6.43,0,0,0,1,3.65A6.61,6.61,0,0,0,92.34,386a9.81,9.81,0,0,0,7.9,0,6.68,6.68,0,0,0,2.75-2.37,6.44,6.44,0,0,0,1-3.65,6.09,6.09,0,0,0-1-3.45,7.12,7.12,0,0,0-2.75-2.43A8.48,8.48,0,0,0,96.27,373.22Z"/><path class="cls-5" d="M80.66,413.22A9,9,0,0,1,83,406.88,8.23,8.23,0,0,1,89,404.2H110v9H92.37a5.47,5.47,0,0,0-3,1,3.26,3.26,0,0,0-1.12,2.81,4.85,4.85,0,0,0,1.35,3.43,8.85,8.85,0,0,0,3.68,2.24,16.27,16.27,0,0,0,5.28.8H110v9H82v-8.13l5.12-.71-.58.13a12.19,12.19,0,0,1-3.07-2.43,10.42,10.42,0,0,1-2.08-3.49A13.09,13.09,0,0,1,80.66,413.22Z"/><path class="cls-5" d="M132.5,442.85v9H82v-9Z"/><path class="cls-5" d="M110,470.44l-4.93.7.38-.13a12.74,12.74,0,0,1,4.39,4.16,11.15,11.15,0,0,1,1.57,6,12,12,0,0,1-.64,4.06,7.84,7.84,0,0,1-1.89,3,6.6,6.6,0,0,1-3.23,1.66l-.07-.32a15,15,0,0,1,4.23,4.32,9.81,9.81,0,0,1,1.6,5.28A9.24,9.24,0,0,1,109,505.8a8.16,8.16,0,0,1-6.05,2.52H82v-8.89H99.28a8.42,8.42,0,0,0,3-.58,2.48,2.48,0,0,0,1.31-2.37,5,5,0,0,0-1.5-3.68,9.3,9.3,0,0,0-3.84-2.24,16,16,0,0,0-4.83-.73H82v-9H99.28a7.23,7.23,0,0,0,3-.67,2.73,2.73,0,0,0,1.31-2.47,4.72,4.72,0,0,0-1.5-3.55A9.61,9.61,0,0,0,98.32,472a15.49,15.49,0,0,0-4.74-.73H82v-9h28Z"/><path class="cls-5" d="M81.23,530.6a15.83,15.83,0,0,1,1.57-7.08,11.67,11.67,0,0,1,4.83-5A16.66,16.66,0,0,1,96,516.64a16.58,16.58,0,0,1,8.19,1.92,14,14,0,0,1,5.35,5.06,12.69,12.69,0,0,1,1.89,6.66,11.73,11.73,0,0,1-1.38,6.3,15.79,15.79,0,0,1-3,3.55l-1.09-.38,4.1.83v8.32H82v-9h6.08l-1.92.7c0-.08-.25-.34-.74-.76A15,15,0,0,1,83.7,538,12.09,12.09,0,0,1,82,534.92,11.55,11.55,0,0,1,81.23,530.6Zm7.3,2.56A8.21,8.21,0,0,0,89,536a6.45,6.45,0,0,0,1.41,2.24,8.31,8.31,0,0,0,2.33,1.66H99.6a6.16,6.16,0,0,0,2.4-1.54,7.25,7.25,0,0,0,1.54-2.43,8.68,8.68,0,0,0,.54-3.13,6.76,6.76,0,0,0-1-3.56,7.28,7.28,0,0,0-2.72-2.59,8,8,0,0,0-4-1,7.9,7.9,0,0,0-4,1,7.6,7.6,0,0,0-2.82,2.72A7,7,0,0,0,88.53,533.16Z"/><path class="cls-5" d="M122.26,562v9H110.1v6.78h-7V571H82v-9h21.12v-4.35h7V562Z"/></g></g></g></g></g></g></g></g></svg>