<svg xmlns="http://www.w3.org/2000/svg" viewBox="0 0 194.32 190.39"><defs><style>.cls-1{fill:#f2a200;}</style></defs><g id="圖層_2" data-name="圖層 2"><g id="圖層_1-2" data-name="圖層 1"><path id="Path_552" data-name="Path 552" class="cls-1" d="M189.06,30.08S196.38,11.6,150,2C137.7-.77,84.06-6.63,34.7,33.63,20.31,44.75,11.85,56.55,12.85,75.91,7.58,88.17-6,116.08,3,132.17,8.18,143.7.31,160.85,63.3,179.28c10.88.77,23.87,16.47,50.33,9.2,12.51-4.65,18.5-6.47,32.55-32.89,7.62-7.25,23.2-16.72,35.71-48.73,5.26-24.43-1-4.75,4.28-34.66C190.26,66.85,200.52,48.65,189.06,30.08Z"/></g></g></svg>