<svg xmlns="http://www.w3.org/2000/svg" viewBox="0 0 14.82 13.18"><defs><style>.cls-1{fill:#004a13;}</style></defs><g id="圖層_2" data-name="圖層 2"><g id="圖層_1-2" data-name="圖層 1"><g id="圖層_2-2" data-name="圖層 2"><g id="圖層_1-2-2" data-name="圖層 1-2"><g id="圖層_2-2-2" data-name="圖層 2-2"><g id="圖層_1-2-2-2" data-name="圖層 1-2-2"><g id="Group_402" data-name="Group 402"><g id="Group_400" data-name="Group 400"><path id="Path_286" data-name="Path 286" class="cls-1" d="M11,.66A6.24,6.24,0,0,0,8.89.13a5.78,5.78,0,0,0-1.1,0A5.58,5.58,0,0,0,6.72.33a6.41,6.41,0,0,0-3.54,2.4,6.55,6.55,0,0,0-1,1.92,6.39,6.39,0,0,0,12,4.24,6.58,6.58,0,0,0,.23-4.31,7.73,7.73,0,0,1,.26,1.08,5.76,5.76,0,0,1,.07,1.1,5.8,5.8,0,0,1-.11,1.11A6.64,6.64,0,0,1,14.4,9a6.55,6.55,0,0,1-1.14,1.92A6.61,6.61,0,1,1,4.62,1.05,6.49,6.49,0,0,1,11,.67Z"/></g><g id="Group_401" data-name="Group 401"><path id="Path_287" data-name="Path 287" class="cls-1" d="M13.15,2.79a.33.33,0,0,0,.26-.13.52.52,0,0,0,.1-.27.37.37,0,0,0-.09-.28.34.34,0,0,0-.27-.1.38.38,0,0,0-.25.13.39.39,0,0,0-.1.25.41.41,0,0,0,.09.26A.3.3,0,0,0,13.15,2.79Zm0,0a.63.63,0,0,1-.32-.1.42.42,0,0,1-.15-.31.44.44,0,0,1,.14-.33A.41.41,0,0,1,13.15,2a.48.48,0,0,1,.3.13.44.44,0,0,1,.15.3.34.34,0,0,1-.14.31.51.51,0,0,1-.31.11Z"/></g></g><g id="Group_404" data-name="Group 404"><g id="Group_403" data-name="Group 403"><path id="Path_288" data-name="Path 288" class="cls-1" d="M0,9.33H0l.06,0h0v0a.19.19,0,0,1,0,.15s0,0,0,0a.38.38,0,0,0,0-.1H0l.05,0h0a1.23,1.23,0,0,0,0,.19.28.28,0,0,0,0,.09s0,.07,0,.1l0,.1,0,.09,0,.08a.56.56,0,0,0,.05.08,1,1,0,0,0,.31.35,1.08,1.08,0,0,0,.43.17,1.87,1.87,0,0,0,.94-.09,5.36,5.36,0,0,0,1.73-1l.39-.33c.13-.12.25-.22.36-.34a3.8,3.8,0,0,0,.33-.37A1.9,1.9,0,0,0,5,8.11C5,8,5,7.88,5,7.84s0,0-.08,0l-.18,0a2.3,2.3,0,0,0-.8.5,2.11,2.11,0,0,0-.31.36.86.86,0,0,0-.16.41.32.32,0,0,0,.19.31,1.25,1.25,0,0,0,.46.12,3.48,3.48,0,0,0,1.94-.43A8.51,8.51,0,0,0,7,8.61l.43-.28L7.81,8A15,15,0,0,0,9.4,6.77,5.07,5.07,0,0,0,10.06,6a2.07,2.07,0,0,0,.4-.82V5.08l0,0a0,0,0,0,0,0,0l0,0a.1.1,0,0,0,0,0A.62.62,0,0,0,10,4.86a1.55,1.55,0,0,0-.83.3,4,4,0,0,0-.71.65,6.57,6.57,0,0,0-.6.79,8.34,8.34,0,0,0-.5.86l-.21.46c-.06.15-.12.3-.17.46a2.92,2.92,0,0,0-.15.93.92.92,0,0,0,.31.76,1.16,1.16,0,0,0,.84.24A3.07,3.07,0,0,0,9,10.08L9.07,10l.08,0h0l.06,0,.1-.05.21-.1.37-.18c.22-.11.48-.26.7-.39L11.05,9l-.42.33s-.23.18-.49.37l-.38.26-.17.11-.2.12-.1.05,0,0-.07,0-.11.06a4.78,4.78,0,0,1-.48.19,2.22,2.22,0,0,1-1.08.12A1.34,1.34,0,0,1,7,10.42a1.13,1.13,0,0,1-.4-.44,1.62,1.62,0,0,1-.16-.57,2,2,0,0,1,0-.55,4.1,4.1,0,0,1,.26-1A7.9,7.9,0,0,1,7.68,6a5.21,5.21,0,0,1,.69-.8,3.63,3.63,0,0,1,.88-.63l.27-.1a1.5,1.5,0,0,1,.29-.06,1.28,1.28,0,0,1,.61.06l.15.07.14.12.06.08a.56.56,0,0,1,.05.08.49.49,0,0,1,.06.17,1.1,1.1,0,0,1-.09.62,3.59,3.59,0,0,1-.27.47c0,.08-.11.15-.16.22l-.18.2a5.72,5.72,0,0,1-.77.7c-.54.42-1.12.77-1.69,1.14a15.42,15.42,0,0,1-1.78,1,4.27,4.27,0,0,1-1,.33,2.31,2.31,0,0,1-.52.06,2.26,2.26,0,0,1-.52,0,.91.91,0,0,1-.52-.2.55.55,0,0,1-.17-.27.76.76,0,0,1,0-.3,1.57,1.57,0,0,1,.23-.51,2.75,2.75,0,0,1,.76-.76,1.41,1.41,0,0,1,.51-.24.63.63,0,0,1,.36,0,.57.57,0,0,1,.18.12.66.66,0,0,1,.12.17.67.67,0,0,1,0,.37,1.42,1.42,0,0,1-.1.29,3.44,3.44,0,0,1-.68.84l-.19.18-.19.17-.41.32a6.17,6.17,0,0,1-.88.55,4.33,4.33,0,0,1-1,.38l-.27,0-.26,0a2.35,2.35,0,0,1-.54-.06,1.57,1.57,0,0,1-.5-.25,1.16,1.16,0,0,1-.32-.44l0-.1,0-.1,0-.09V9.73a.28.28,0,0,0,0-.09V9.53A1.34,1.34,0,0,1,0,9.33Z"/></g></g></g></g></g></g></g></g></svg>