<?xml version="1.0" encoding="utf-8"?>
<!-- Generator: Adobe Illustrator 25.0.0, SVG Export Plug-In . SVG Version: 6.00 Build 0)  -->
<svg version="1.1" id="圖層_1" xmlns="http://www.w3.org/2000/svg" xmlns:xlink="http://www.w3.org/1999/xlink" x="0px" y="0px"
	 viewBox="0 0 645 645" style="enable-background:new 0 0 645 645;" xml:space="preserve">
<style type="text/css">
	.st0{fill:none;}
	.st1{fill:#333333;}
</style>
<g id="圖層_2_1_">
	<g id="圖層_1-2">
		<circle class="st0" cx="187.8" cy="1137.2" r="322.5"/>
		<g id="Group_1867">
			<g id="Path_569">
				<path class="st1" d="M403,1339.4c-4.3,0-10.2-0.3-17.8-0.6c-10.8-0.5-23-1.1-32.7-0.7l-0.1-2c9.8-0.4,22.1,0.2,32.9,0.7
					c11.5,0.5,22.4,1,24.4,0c0.7-0.4,2-1.2,2-2.1c0-1.1-2-2.4-3-3c-3-0.1-30.9-1.1-33.2-1.3c-0.5-0.1-1.4-0.1-2.3-0.1
					c-4.5-0.2-12.7-0.5-14.5-6.1c-2.2-8.6-3.5-23.7-0.7-24.6c0.6-0.2,1.4-0.1,2,1.4l0.1,0.2l0,0.2c-0.1,3.5,0.8,6,2.5,7.6
					c2.8,2.7,7.7,2.3,10.5,2c1.6-0.1,2.5-0.2,3,0.2c0.4,0.3,1,0.8,1.5,1.3c0.3,0.3,0.7,0.6,1.1,0.9c1.3-4.3,3.3-4.9,5.3-5.5
					c1.2-0.4,2.4-0.7,3.6-2.1c2.6-2.7,3.8-5.6,3.8-8.7c-0.1-3.2-1.6-6.4-4.3-8.9l-0.4-0.3c-2.8-2.2-4.8-3.8-12-3.9
					c-4.4-0.1-8.6,1-12.3,3.2l-1.4,0.8l-0.1-1.6c0,0-0.4-4.7-1.1-10.1c-1-7.9-1.9-10.9-2.5-12.1c-8.1-13.4-4-19-1.1-23.1l0.2-0.2
					c18.8-15.5,19.9-23.5,20.7-28.8c0.1-0.6,0.2-1.1,0.2-1.6l0.1-0.3c3.9-7.7,22-24.3,28.2-24.8l0.4,0l0.3,0.3
					c16.9,14,33.1,15.5,41.8,16.3c4.1,0.4,6.3,0.6,7.3,1.8l0.1,0.1l0.1,0.2c1.5,4.6,3.6,7.4,6.1,8.1c2.2,0.6,4.1-0.6,5-1.3
					c4.9-3.8,9-3.4,12.7-3.1c1.3,0.1,2.4,0.2,3.6,0.2l0.2,0c6-0.4,10.8-0.8,11.8-2.1c0.1-0.1,0.2-0.4,0.2-0.9
					c-0.8-3.6-1.9-3.8-7.8-4.6c-0.6-0.1-1.2-0.2-1.8-0.3c-11.4-1.2-26.4-6.9-44.5-17.2c-13.4-7.6-23.6-15-23.7-15l1.2-1.6
					c0.4,0.3,40.6,29.1,67.4,31.8c0.7,0.1,1.3,0.2,1.9,0.3c5.9,0.9,8.3,1.2,9.5,6.2c0.2,1,0,1.8-0.5,2.5c-1.6,2-6,2.3-13.2,2.8
					l-0.2,0c-1.4,0.1-2.7,0-3.9-0.2c-3.6-0.3-7-0.6-11.3,2.7c-2.1,1.7-4.5,2.3-6.8,1.7c-2.1-0.6-5.1-2.7-7.3-9.2
					c-0.7-0.5-3.3-0.7-5.8-1c-8.9-0.8-25.3-2.4-42.6-16.5c-5.5,1.1-22.2,16.1-26.1,23.5c-0.1,0.4-0.1,0.9-0.2,1.4
					c-0.8,5.6-2,14.1-21.3,30c-2.8,3.8-6.1,8.6,1.3,20.9c1,2,1.9,6.1,2.7,12.8c0.5,3.6,0.8,6.9,0.9,8.7c3.7-1.9,7.8-2.9,12-2.8
					c7.8,0.1,10.2,2,13.2,4.4l0.4,0.3c3.1,2.9,4.9,6.7,5,10.3c0.1,3.6-1.3,7-4.3,10.1c-1.6,1.8-3.2,2.2-4.5,2.6
					c-1.8,0.5-3.1,0.9-4.1,4.8c-0.1,0.7-0.6,1-0.7,1.1c-0.9,0.4-1.9-0.4-3.4-1.8c-0.4-0.4-0.9-0.8-1.2-1c-0.3,0-1.1,0-1.8,0.1
					c-3.2,0.3-8.6,0.7-12.1-2.6c-1.4-1.3-2.4-3.2-2.8-5.5c-0.1,4.2,0.3,11.3,2.2,18.6c1.3,4.3,8.7,4.5,12.7,4.7
					c1.1,0,1.9,0.1,2.5,0.2c1.9,0.2,22.6,1,33.2,1.3l0.2,0l0.2,0.1c0.4,0.2,4.3,2.1,4.4,4.8c0,1.5-1,2.8-3.1,4
					C409.5,1339.2,406.9,1339.4,403,1339.4z M357.9,1301.3L357.9,1301.3L357.9,1301.3z"/>
			</g>
			<g id="Path_570">
				<path class="st1" d="M407.6,1353.9c-1.7,0-4.5-0.8-8.9-2.1c-5.5-1.6-12.4-3.7-16.1-3l-0.8,0.2c-5.7,1.1-23,4.5-37.2,4.2
					c-0.7-0.1-1.3-0.1-1.9-0.1c-1.7,0-3.7,0-5.1-1.6c-1.6-1.8-2.2-5.2-1.9-11c-0.2-3.3,0.7-17.1,1.6-30.5c0.6-9.2,1.2-17.9,1.2-21.1
					c0-3.3,1.8-8.2,5.5-11c3.2-2.5,7.3-3.1,12-1.9l0.1,0c2.7,1,4.7,2.8,5.8,5.3c2,4.6,1,11.3-2.9,20.1c-7,15.9-4.9,36-4.9,36.2
					l-2,0.2c-0.1-0.8-2.2-20.8,5.1-37.2c3.6-8.3,4.6-14.5,2.9-18.5c-0.9-2-2.4-3.4-4.6-4.2c-4.1-1-7.6-0.5-10.3,1.6
					c-3.4,2.6-4.7,7.1-4.7,9.5c-0.1,3.3-0.6,12-1.2,21.2c-0.8,12.8-1.8,27.2-1.6,30.3l0,0.1l0,0.1c-0.3,5.1,0.1,8.3,1.3,9.6
					c0.8,0.9,1.9,0.9,3.7,0.9c0.7,0,1.3,0,2,0.1c14,0.3,31.1-3,36.7-4.1l0.9-0.2c4.2-0.7,11,1.3,17,3.1c3.5,1,7.9,2.3,8.7,2l0.2-0.1
					c3.5-1.5,5.4-2.6,5.6-3.2c0.1-0.3-0.6-1.1-0.8-1.4c-3.1-2.2-15.9-5.9-20.6-7.1l0.5-1.9c0.7,0.2,17.5,4.6,21.4,7.5l0.1,0.1
					c0.8,0.9,1.7,2,1.4,3.2c-0.3,1.5-2,2.6-6.6,4.6C408.7,1353.8,408.2,1353.9,407.6,1353.9z"/>
			</g>
			<g id="Path_571">
				<path class="st1" d="M338.6,1302.5c-0.2,0-5.8-0.2-11-6.1c-5.2-5.9-10.7-18.8-7.8-46.2l0-0.2l0.1-0.2c2-3.4,6.3-12.7,9.4-23.5
					c0.5-1.4,1-2.6,1.4-3.8c2.5-7.5,4.9-14.5,26.4-34.1l0.1-0.1c3.1-2.2,6.1-4.5,9-6.8c7.3-5.7,14.9-11.6,24.6-15.8
					c1.5-0.7,2.9-1.5,4.3-2.3c6.6-3.8,13.4-7.7,23.4,3l-1.5,1.4c-8.9-9.5-14.5-6.3-20.9-2.6c-1.5,0.8-3,1.7-4.5,2.4
					c-9.4,4.1-16.9,9.9-24.1,15.5c-2.9,2.3-6,4.6-9.1,6.8c-21.1,19.2-23.3,25.7-25.8,33.2c-0.4,1.2-0.8,2.5-1.4,3.8
					c-3.1,10.6-7.4,20-9.5,23.6c-2.8,26.5,2.4,38.8,7.2,44.4c4.6,5.3,9.5,5.5,9.6,5.5L338.6,1302.5z"/>
			</g>
			<g id="Path_572">
				<path class="st1" d="M388.7,1287.8l-2-0.3c0.7-5,0-8.6-2.1-10.9c-2.7-2.8-6.8-2.6-7.6-2.5c-8.5,1.4-7.5,9.4-7.4,9.8l-2,0.3
					c0-0.1-1.3-10.3,9.2-12c1.4-0.1,6.1-0.3,9.3,3.1C388.6,1278,389.5,1282.2,388.7,1287.8z"/>
			</g>
			<g id="Path_573">
				
					<rect x="395.9" y="1175" transform="matrix(2.928431e-02 -0.9996 0.9996 2.928431e-02 -777.4474 1551.3915)" class="st1" width="28.4" height="2"/>
			</g>
			<g id="Path_574">
				
					<rect x="344.4" y="1214.3" transform="matrix(0.6065 -0.7951 0.7951 0.6065 -842.6049 759.0103)" class="st1" width="2" height="32.9"/>
			</g>
			<g id="Path_575">
				
					<rect x="339.2" y="1228.2" transform="matrix(0.2664 -0.9639 0.9639 0.2664 -948.3867 1239.5684)" class="st1" width="2" height="29.4"/>
			</g>
			<g id="Path_576">
				
					<rect x="374.8" y="1282.9" transform="matrix(0.2642 -0.9645 0.9645 0.2642 -976.1139 1318.1309)" class="st1" width="2" height="31.7"/>
			</g>
		</g>
		<g id="Group_1868">
			<g id="Path_577">
				<path class="st1" d="M82.7,1260.2c-0.3,0-0.5,0-0.8-0.1c-1.4-0.5-1.9-2.2-2.4-3.9c-0.2-0.7-0.6-2-1-2.2c-0.6,0-2-0.1-6.8-0.5
					c-15.5-1.4-51.6-4.6-68.6-2c-0.4,0.2-1.1,0.2-2.1-0.4c-1.9-1.3-4.2-5.3-3.7-9.5c0.4-2.8,2.1-6.5,8.3-8.7l0,0
					c14.1-5,66.8,9.3,73.1,11.3c0.3,0,0.7-0.1,1.1-0.1c3.5-0.4,8.9-1,15.8,5.1c1,1,1.9,1.6,2.7,2.1c1,0.7,1.9,1.2,2,2.3
					c0,1.1-1,2.1-2.8,3.5l-0.2,0.1c-2,1-4.3,1-6.5,1c-2.5,0-4.9,0-6.6,1.5l-0.2,0.1C83.7,1260,83.1,1260.2,82.7,1260.2z
					 M78.6,1251.9L78.6,1251.9c1.6,0.2,2.2,1.9,2.7,3.7c0.3,1,0.8,2.4,1.2,2.6c0.1,0,0.3,0,0.5-0.1c2.3-2,5.1-2,7.8-2
					c2,0,3.9,0,5.5-0.8c1.4-1.1,1.8-1.5,1.9-1.7c-0.2-0.2-0.7-0.5-1-0.7c-0.8-0.5-1.9-1.2-3-2.4c-6.2-5.4-10.8-4.9-14.2-4.5
					c-0.5,0.1-0.9,0.1-1.4,0.1l-0.2,0l-0.2-0.1c-8-2.6-59.1-16-72-11.4c-6.3,2.3-7.3,6.2-6.9,9.1c0.4,3.3,2.4,5.6,3.1,5.8l0.1,0
					l0.2,0c17.1-2.7,53.6,0.5,69.2,1.9c3.3,0.3,6.2,0.6,6.6,0.5L78.6,1251.9z"/>
			</g>
			<g id="Path_578">
				<path class="st1" d="M52.2,1238.8c0-0.1-3.9-9.1-12.6-10.1c-2.6-0.5-3.1-1.8-3.3-2.9c-0.5,0.5-1.2,1-2.1,1.2
					c-0.5,0.2-1.1,0.1-2.2-0.2c-3.2-0.6-9.2-1.9-13.3,6.5l-1.8-0.9c4.8-9.7,12.3-8.2,15.5-7.6c0.5,0.1,1,0.2,1.2,0.2
					c1-0.3,1.5-1,2-1.4c0.4-0.4,0.8-0.9,1.5-0.8c0.2,0,0.6,0.2,0.9,0.8c0.2,0.5,0.2,1,0.3,1.3c0.2,1.1,0.2,1.5,1.7,1.7
					c9.8,1.2,14,10.9,14.1,11.3L52.2,1238.8z M33.6,1225C33.6,1225,33.6,1225,33.6,1225C33.6,1225,33.6,1225,33.6,1225z"/>
			</g>
			<g id="Path_579">
				<path class="st1" d="M17,1396.9c-1,0-2.9-0.4-3.8-3.5c-4.6-12.6-11.9-24.2-16.8-31.9c-1.9-3-3.4-5.4-4.3-7.1
					c-30.3-37.8-43.2-63.2-45-67.9c-10-33.7,3.8-48.4,17.1-54.9c26-16.9,46,0.2,46.2,0.4l-1.3,1.5c-0.8-0.7-19.1-16.3-43.8-0.2
					l-0.1,0.1c-18.1,8.7-23.7,26.9-16.1,52.4c1.7,4.6,14.5,29.8,44.7,67.4l0.1,0.2c0.8,1.6,2.3,4,4.2,7c4.9,7.8,12.3,19.5,17,32.3
					c0.4,1.5,1.2,2.3,2.1,2.2c0.8-0.1,1.5-0.8,1.5-1.6c0-0.3-0.1-0.9-0.1-2.2c-0.4-16.6-2.8-25.3-7.2-25.9l-0.2,0l-0.1-0.1
					c-4.6-2.3-5.5-8.5-6-11.5c-0.1-0.5-0.2-1-0.2-1.1c0-0.1,0-0.1-0.1-0.3c-1.7-5.2-8.4-23.3-22.4-38.5c-8.4-11-8.8-28.2-8.6-30.1
					c0.1-0.5,0.3-1.3,0.6-2.6c0.9-3.6,2.5-10.4,3.2-19.7c0.3-4.1,1.6-7.1,3.8-8.9c3.2-2.6,7.5-2.1,9.5-1.8c0.4,0,0.6,0.1,0.9,0.1
					c0.9,0,1.9-0.2,3.2-0.4c1.3-0.2,2.7-0.5,4.4-0.7c0.8-0.1,1.7-0.2,2.6-0.2l0,2c-0.8,0-1.7,0.1-2.5,0.2c-1.7,0.2-3.1,0.4-4.3,0.7
					c-1.4,0.3-2.6,0.5-3.7,0.4c-0.3,0-0.6-0.1-1-0.1c-1.9-0.2-5.5-0.7-8,1.4c-1.8,1.5-2.8,4-3.1,7.5c-0.7,9.5-2.3,16.3-3.2,20
					c-0.3,1.1-0.5,1.9-0.5,2.4c-0.2,1.8,0.2,18.2,8.1,28.6c14.2,15.4,21,33.9,22.7,39.2l0.1,0.2c0.1,0.3,0.2,0.7,0.3,1.6
					c0.4,2.6,1.2,8,4.8,9.9c7.3,1.2,8.5,16.4,8.8,27.8c0,0.9,0,1.8,0.1,2l0,0.2c0,1.8-1.5,3.4-3.3,3.6
					C17.3,1396.9,17.2,1396.9,17,1396.9z"/>
			</g>
			<g id="Path_580">
				<path class="st1" d="M-53.6,1282.1c-4.6-0.6-16.1-6.4-20-19.2c-20.2-35.9-41.6-70.7-45.7-76.9c-3.6-2.2-5.5-4.5-5.7-7
					c-0.2-3.8,3.5-6.7,6.5-9.1c0.3-0.3,0.7-0.5,1-0.8c6-8.1,11-11.3,15.7-10.2l0.2,0.1c1,0.5,2.2,1.3,2.4,2.6c0.2,1.5-1.3,2.7-2.9,4
					c-1.2,1-2.6,2.2-3.6,3.5c-2.5,4-2.1,9.5-2,12.2c0,0.7,0.1,1.1,0.1,1.4c1.1,3.2,13.8,22,23.1,30c13.3,10.4,31.7,35.4,32.5,36.4
					l-1.6,1.2c-0.2-0.3-19.1-25.9-32.2-36.1c-9.5-8.2-22.9-27.9-23.8-31.2l-0.1-0.2l0-0.2c0-0.1,0-0.7-0.1-1.2
					c-0.2-2.9-0.6-8.9,2.3-13.4c1.1-1.7,2.6-2.9,4-4c0.9-0.7,2.3-1.8,2.2-2.3c0,0-0.1-0.4-1.2-0.9c-3.8-0.9-8.3,2.2-13.6,9.5
					l-0.2,0.2c-0.4,0.3-0.7,0.6-1.1,0.9c-2.6,2.1-5.9,4.7-5.7,7.4c0.1,1.8,1.8,3.6,4.9,5.5l0.2,0.1l0.1,0.2
					c3.8,5.6,25.5,40.9,45.9,77.3l0.1,0.2c3.9,13.1,15.7,17.5,18.4,17.9L-53.6,1282.1z"/>
			</g>
			<g id="Path_581">
				<path class="st1" d="M33.9,1257.4c-1.1,0-2.2-0.1-3.2-0.3c-6.8-1.3-10.1-6.5-10.2-6.8l1.7-1.1l-0.8,0.5l0.8-0.5
					c0,0,3,4.7,8.9,5.9c5,1,10.7-0.8,16.9-5.2l1.2,1.6C43.8,1255.4,38.6,1257.4,33.9,1257.4z"/>
			</g>
			<g id="Path_582">
				<path class="st1" d="M40.2,1264.5c-1.8,0-3.8-0.4-5.6-1.3c-1.9-1-4.4-3.1-5.1-7.1l2-0.3c0.4,2.6,1.8,4.5,4.1,5.6
					c2.6,1.4,5.8,1.3,7,0.7c1.9-1,3.1-2.4,3.5-4c0.6-2.5-0.9-4.9-0.9-5l1.7-1.1c0.1,0.1,2,3.1,1.2,6.5c-0.5,2.2-2.1,3.9-4.6,5.3
					C42.7,1264.3,41.5,1264.5,40.2,1264.5z"/>
			</g>
			<g id="Path_583">
				
					<rect x="-97.7" y="1216.9" transform="matrix(0.8594 -0.5113 0.5113 0.8594 -635.3701 124.9539)" class="st1" width="14.5" height="2"/>
			</g>
			<g id="Path_584">
				<path class="st1" d="M-18.5,1254.3c-11.5-5.7-19.2-20.2-19.6-20.8l1.8-0.9c0.1,0.1,7.8,14.5,18.7,19.9L-18.5,1254.3z"/>
			</g>
			<g id="Path_585">
				<path class="st1" d="M-21.1,1258.8c-11.9-1.7-18.3-6.8-21.5-10.8c-3.5-4.4-4.2-8.3-4.2-8.5l2-0.3c0.1,0.6,2.6,14.6,24,17.6
					L-21.1,1258.8z"/>
			</g>
			<g id="Path_586">
				<path class="st1" d="M41.7,1236.9l-1.1-1.7c1.2-0.8,6.8-4.4,6.9-4.4l1.1,1.7C48.4,1232.6,43,1236.1,41.7,1236.9z"/>
			</g>
			<g id="Path_587">
				
					<rect x="-24.8" y="1327.2" transform="matrix(0.8625 -0.506 0.506 0.8625 -674.2242 174.5518)" class="st1" width="17.8" height="2"/>
			</g>
		</g>
		<g id="Group_1869">
			<g id="Path_588">
				<path class="st1" d="M202.9,938.9c-7.9,0-17.9-2.8-27.8-8.1c-1.6-0.4-3.2-0.9-4.7-1.3c-6.3-1.8-11.7-3.4-20.8-1.6
					c-8.5,1.4-28.3-1.6-56.1-14.9c-1.2-0.2-2.2-0.7-3.5-1.3c-3.1-1.4-7.8-3.5-20-4c-9.5-0.7-21.1-8.4-26.1-11.7
					c-0.6-0.4-1.1-0.7-1.5-1c-0.5-0.2-1.1-0.6-1.9-0.9c-2.5-1.3-6.3-3.3-7.9-1.7c-1.4,1.6-5.3,4-8,3.1c-1-0.3-2.3-1.3-2.4-3.7l0-0.2
					l0-0.2c0.3-1,0.5-1.9,0.8-2.7c0.6-1.9,1-3.1,0.9-5v0c0-0.5-0.2-1.4-0.4-2.4c-0.7-3.7-1.6-8.8,0.7-11c1-0.9,2.4-1.2,4.1-0.8
					l0.2,0c2.2,0.9,4.4,2.6,6.4,4.1c3.6,2.7,6.9,5.3,10.3,4l0.2-0.1l0.2,0c1.6,0.1,4-0.2,6.8-0.6c8.1-1,20.5-2.6,33,2.7
					c11.5,5.2,24.2,1.6,28.3,0.5c0.5-0.1,0.8-0.2,1-0.3c0.2-0.1,25.2-4.5,48.6,7.8c6.5,3.3,16.8,5.8,28.8,7c0.6,0.1,1.3,0.2,2.1,0.3
					c7.2,0.8,22.1,2.4,26.6,22.4c0.5,3.7,0,9.1-8.2,18.8l-0.1,0.1l-0.2,0.1C210,938.3,206.7,938.9,202.9,938.9z M157.2,925.2
					c5.3,0,9.4,1.2,13.8,2.4c1.5,0.4,3.1,0.9,4.7,1.3l0.2,0.1c13.8,7.4,28.4,9.9,35.5,6.2c7.5-9,8.1-13.8,7.6-17
					c-4.1-18.6-17.6-20-24.8-20.8c-0.8-0.1-1.6-0.2-2.2-0.3c-12.3-1.2-22.8-3.8-29.5-7.2c-20.4-10.7-43.7-8.5-47.2-7.6
					c-0.2,0.1-0.6,0.1-1,0.3c-4.3,1.2-17.6,4.9-29.7-0.6c-12-5.1-24-3.6-31.9-2.6c-2.9,0.4-5.3,0.7-7,0.6c-4.3,1.5-8.2-1.5-12-4.3
					c-1.9-1.5-3.9-3-5.9-3.8c-1.5-0.3-2,0.1-2.2,0.3c-1.5,1.4-0.6,6.5-0.1,9.2c0.2,1.1,0.4,2,0.4,2.7c0.1,2.2-0.4,3.7-1,5.6
					c-0.2,0.7-0.5,1.5-0.7,2.4c0.2,1.5,0.8,1.7,1.1,1.8c1.6,0.5,4.7-1.2,5.9-2.6c2.7-2.7,7.3-0.3,10.3,1.3c0.7,0.4,1.3,0.7,1.8,0.9
					l0.1,0.1c0.4,0.2,0.9,0.6,1.6,1c4.9,3.2,16.2,10.7,25.1,11.4c12.6,0.4,17.5,2.7,20.7,4.1c1.2,0.5,2.1,1,3.1,1.1l0.3,0.1
					c25.7,12.2,46.1,16.2,55,14.8C152.2,925.5,154.8,925.2,157.2,925.2z"/>
			</g>
			<g id="Path_589">
				<path class="st1" d="M136.2,905.2c-0.5-0.1-47.9-8.6-73-13.6c-5.5-0.8-9.4-2-13.5-3.4c-6.1-2-12.4-4-25-4.7l0.1-2
					c12.9,0.8,19.3,2.8,25.5,4.8c4,1.3,7.8,2.5,13.2,3.3c25.1,5.1,72.6,13.5,73,13.6L136.2,905.2z"/>
			</g>
			<g id="Path_590">
				<path class="st1" d="M81.7,908.3c-0.4-3.5,2.5-13.3,2.7-13.8l1.9,0.6c-0.8,2.7-2.9,10.4-2.6,13L81.7,908.3z"/>
			</g>
			<g id="Path_591">
				<path class="st1" d="M84.6,894.5l-2-0.1c0.3-4,2.5-12.8,2.5-13.2l1.9,0.5C87.1,881.8,84.9,890.6,84.6,894.5z"/>
			</g>
			<g id="Path_592">
				<path class="st1" d="M149.9,926.9c-2.9-19.3,6.2-39.4,7.3-40.9l1.6,1.1c-1.6,2.2-9.6,21.9-7,39.5L149.9,926.9z"/>
			</g>
			<g id="Path_593">
				<path class="st1" d="M164.7,927l-2-0.1c1-16.8,8.2-34.6,8.2-34.8l1.9,0.8C172.7,893,165.6,910.5,164.7,927z"/>
			</g>
			<g id="Path_594">
				<path class="st1" d="M171.2,1012.8c-1.4,0-2.7-0.5-3.3-0.8l-0.2-0.1c-0.4-0.3-1.4-1.2-2.8-2.4c-2.5-2.1-6.3-5.3-9-7.5
					c-5.6-4.8-4.4-8.5-3.4-11.4c0.3-0.8,0.5-1.6,0.6-2.4l0.1-0.2c9.8-25.2,35.9-52.5,36.1-52.8l1.4,1.4c-0.3,0.3-26,27.2-35.7,52
					c-0.1,0.9-0.4,1.8-0.7,2.6c-0.9,2.9-1.7,5.3,2.8,9.3c2.7,2.2,6.4,5.4,9,7.5c1.3,1.1,2.3,1.9,2.7,2.3c0.6,0.3,2.4,0.9,3.4,0.3
					c0.9-0.6,1-2.2,0.9-3.5c-0.3-3.6-4.9-7.2-7.7-9.4c-1-0.8-1.8-1.4-2.2-1.9c-1.1-1.3-2.2-4.4,2.4-9.6c1-1.2,2.4-3.2,4-5.5
					c4-5.7,9.4-13.6,16-18.6c4.2-2.6,18.6-16.6,25.8-26.9l1.6,1.1c-7,10.1-21.5,24.5-26.3,27.4c-6.2,4.7-11.6,12.4-15.5,18.1
					c-1.6,2.4-3.1,4.4-4.2,5.7c-2.6,3-3.5,5.5-2.3,7c0.2,0.3,1,0.9,1.8,1.5c3,2.4,8.1,6.3,8.5,10.8c0.2,2.6-0.4,4.4-1.8,5.3
					C172.7,1012.6,172,1012.8,171.2,1012.8z"/>
			</g>
			<g id="Path_595">
				<path class="st1" d="M219.8,915.6l-1-1.7c3.5-2.2,13.7-18.3,14.4-20.9c0.3-3.3,4.8-10.1,6.5-12.1l0.2-0.2
					c7.3-4.9,13.6-14.1,17.4-19.7c2.8-4.1,3.5-5.1,4.5-4.9c1.1,0.1,3.1-0.5,5.6-1.4c0.9-0.3,1.9-0.6,2.9-1c3.5-2.2,3.5-3.1,3.5-3.1
					c0,0-0.4-0.2-0.6-0.2l-0.1,0c-1.7-0.4-4.8-1.4-5.2-3c-0.2-0.6,0-1.2,0.4-1.7c4.8-4.7,4.8-6.4,3.1-9.1c-7-2.5-10.7,6.5-12,9.5
					l-0.1,0.2c-1,3.9-6,10.2-8.4,12.2c-7,5.2-38.9,43.5-39.2,43.9l-1.5-1.3c1.3-1.6,32.4-38.9,39.5-44.2c2.4-2,7-8.1,7.7-11.2
					l0.1-0.2l0.1-0.3c3.9-9.4,8.9-12.9,14.9-10.5l0.3,0.1l0.2,0.3c2.6,4.2,2,6.8-3,11.7c0.5,0.4,2.1,1.1,3.6,1.5
					c0.4,0.1,1.9,0.4,2.2,1.8c0.3,1.5-1.1,3.1-4.5,5.3l-0.2,0.1c-1.1,0.3-2.1,0.7-3,1c-2.7,0.9-4.6,1.6-6.2,1.5
					c-0.5,0.5-1.7,2.3-2.9,4c-3.8,5.6-10.3,15-17.8,20.1c-2,2.5-5.8,8.6-5.9,11l0,0.2C234.5,895.7,224,913,219.8,915.6z
					 M261.4,858.1C261.5,858.1,261.5,858.1,261.4,858.1C261.5,858.1,261.5,858.1,261.4,858.1z"/>
			</g>
			<g id="Path_596">
				<path class="st1" d="M215.7,931.6c-5.7-1.6-7-2.9-9-4.8c-0.4-0.4-0.9-0.9-1.5-1.4c-1.7-1.7-2.5-3.5-2.4-5.4
					c0.1-2.7,2.1-4.9,3.7-6.2c5.1-3.5,13.5,1.7,13.9,1.9l-1.1,1.7c-0.1,0-7.7-4.7-11.6-2c-1,0.8-2.8,2.6-2.9,4.7
					c-0.1,1.3,0.5,2.6,1.8,3.8c0.5,0.5,1,0.9,1.5,1.4c1.9,1.8,3,2.8,8.2,4.3L215.7,931.6z"/>
			</g>
			<g id="Path_597">
				<path class="st1" d="M236.8,948.8c-2.1,0-4-0.4-5.4-0.7c-0.4-0.1-0.7-0.1-1-0.2l-0.3-0.1c-14.8-7.8-13.6-18.9-13.6-19.4l2,0.2
					c0,0.4-1,10.2,12.4,17.3c0.3,0.1,0.6,0.1,0.9,0.2c4.4,0.9,12.5,2.6,19.4-9.4c1.2-2,1.5-4.6,0.8-7c-1-3.3-3.6-6.2-7.3-8.1
					c-3.8-2.3-5.4-3.9-6.5-5.7c-0.6,1-1.5,2.3-3,2.1c-0.3,0-0.8-0.2-1.3-0.3c-2.5-0.7-7.2-2-12.7,3.5l-1.4-1.4
					c6.3-6.3,11.9-4.8,14.6-4c0.5,0.1,0.8,0.2,1.1,0.3c0.4,0.1,0.9-1,1.2-1.4c0.4-0.7,0.8-1.4,1.5-1.5c0.4,0,0.8,0.2,1.1,0.5
					l0.1,0.1c0.9,1.8,1.9,3.2,6.4,6c4.2,2.1,7.2,5.4,8.3,9.2c0.9,3,0.5,6.2-1,8.6C247.6,946.9,241.5,948.8,236.8,948.8z"/>
			</g>
			<g id="Path_598">
				<path class="st1" d="M222.5,941.9l-0.3-2c6.9-1.2,29.7-12.4,29.9-12.5l0.9,1.8C252,929.7,229.6,940.6,222.5,941.9z"/>
			</g>
			<g id="Path_599">
				<path class="st1" d="M239.6,957.5c-1.4,0-2.6-0.3-3.8-0.6l-0.2-0.1c-3.9-1.8-6.2-5.7-5.9-10l2,0.1c-0.2,3.4,1.6,6.5,4.7,8
					c3.1,0.8,6.5,1,10.4-3.1c0.5-0.5,2.2-4.6-0.4-7.7l1.5-1.3c3.4,3.9,1.5,9.3,0.3,10.4C245.1,956.6,242.2,957.5,239.6,957.5z"/>
			</g>
		</g>
	</g>
</g>
</svg>
