<svg xmlns="http://www.w3.org/2000/svg" width="30" height="30" viewBox="0 0 32 30"><defs><style>.cls-1,.cls-2,.cls-3{fill:none;}.cls-1,.cls-3{stroke:#004a13;stroke-width:2px;}.cls-1{stroke-linecap:round;}</style></defs><g id="圖層_2" data-name="圖層 2"><g id="圖層_1-2" data-name="圖層 1"><g id="icon_-_trash_can" data-name="icon - trash can"><line id="Line_40" data-name="Line 40" class="cls-1" x1="1" y1="6.96" x2="31" y2="6.96"/><g id="Rectangle_1153" data-name="Rectangle 1153"><path class="cls-2" d="M5.5,6h22V26a4,4,0,0,1-4,4H9.5a4,4,0,0,1-4-4V6Z"/><path class="cls-3" d="M7.5,7h18a1,1,0,0,1,1,1V26a3,3,0,0,1-3,3H9.5a3,3,0,0,1-3-3V8A1,1,0,0,1,7.5,7Z"/></g><g id="Rectangle_1154" data-name="Rectangle 1154"><path class="cls-2" d="M24.5,8H8.5V4a4,4,0,0,1,4-4h8a4,4,0,0,1,4,4V8Z"/><path class="cls-3" d="M22.5,7h-12a1,1,0,0,1-1-1V4a3,3,0,0,1,3-3h8a3,3,0,0,1,3,3V6A1,1,0,0,1,22.5,7Z"/></g><g id="Group_1213" data-name="Group 1213"><line id="Line_41" data-name="Line 41" class="cls-1" x1="12.55" y1="13.89" x2="12.55" y2="23.89"/><line id="Line_42" data-name="Line 42" class="cls-1" x1="16.55" y1="13.89" x2="16.55" y2="23.89"/><line id="Line_43" data-name="Line 43" class="cls-1" x1="20.55" y1="13.89" x2="20.55" y2="23.89"/></g></g></g></g></svg>