<svg id="" width="30" height="28" xmlns="http://www.w3.org/2000/svg" viewBox="0 0 30 28"><defs><style>.cls-1{fill:none;}.cls-2{fill:#db5c00;} </style></defs><g id="圖層_2" data-name="圖層 2"><g id="圖層_1-2" data-name="圖層 1"><g id="Path_324" data-name="Path 324"><path class="cls-1" d="M15,28C6.93,22.16,2.7,16.84,1,12.39-3.68.47,9.6-3.58,15,3.46c5.4-7,18.68-3,14,8.93C27.3,16.84,23.06,22.16,15,28Z"/><path class="cls-2" d="M15,25.51a51.66,51.66,0,0,0,7.88-7.15,23.48,23.48,0,0,0,4.29-6.69c1.15-3,1.11-5.46-.11-7.25a5.94,5.94,0,0,0-5-2.42,6.85,6.85,0,0,0-5.49,2.68L15,6.74,13.41,4.68A6.85,6.85,0,0,0,7.92,2a5.94,5.94,0,0,0-5,2.42c-1.22,1.79-1.26,4.29-.11,7.25a23.48,23.48,0,0,0,4.29,6.69A51.66,51.66,0,0,0,15,25.51M15,28C6.93,22.16,2.7,16.84,1,12.39-2.13,4.45,2.74,0,7.92,0A8.86,8.86,0,0,1,15,3.46,8.86,8.86,0,0,1,22.08,0c5.18,0,10.05,4.45,7,12.39C27.3,16.84,23.07,22.16,15,28Z"/></g></g></g></svg>