<svg xmlns="http://www.w3.org/2000/svg" viewBox="0 0 207.8 193.94"><defs><style>.cls-1{fill:#f2a200;}.cls-2{fill:#333;}</style></defs><g id="圖層_2" data-name="圖層 2"><g id="圖層_1-2" data-name="圖層 1"><g id="Group_1366" data-name="Group 1366"><path id="Path_401" data-name="Path 401" class="cls-1" d="M179.66,34.64s-2-16.1-43.7-5.26c-11.18,2.71-57.13,19-79.78,66.9-6.86,13.51-8.63,25.24.52,38.79,1,10.84,2,36.13,16.25,44.26,9.15,6.33,10.17,21.68,69.11,10.84,9.15-3.61,26.42,2.71,44.72-12.64,8.13-8.13,12.2-11.74,12.2-36.13,3.05-8.13,11.59-20.92,7.93-48.74-6.25-19.6-2.82-3-11.45-26.59C196.47,60.65,196.94,43.62,179.66,34.64Z"/><g id="Group_1352" data-name="Group 1352"><g id="Group_1319" data-name="Group 1319"><path id="Path_402" data-name="Path 402" class="cls-2" d="M79.18,158.37a79.19,79.19,0,1,1,79.19-79.19A79.19,79.19,0,0,1,79.18,158.37Zm0-155.92a76.74,76.74,0,1,0,76.74,76.73A76.74,76.74,0,0,0,79.18,2.45Z"/></g><g id="Group_1320" data-name="Group 1320"><path id="Path_403" data-name="Path 403" class="cls-2" d="M70.42,11.13a22.37,22.37,0,0,1-2.52,3.8,37.25,37.25,0,0,1-3,3.29,36,36,0,0,1-3.37,2.92,22.28,22.28,0,0,1-3.86,2.41,22.37,22.37,0,0,1,2.52-3.8,37.95,37.95,0,0,1,6.37-6.21A22.28,22.28,0,0,1,70.42,11.13Z"/></g><g id="Group_1321" data-name="Group 1321"><path id="Path_404" data-name="Path 404" class="cls-2" d="M100.47,11.13A22.31,22.31,0,0,1,98,14.93a40.62,40.62,0,0,1-3,3.29,36,36,0,0,1-3.37,2.92,22.28,22.28,0,0,1-3.86,2.41,22.31,22.31,0,0,1,2.51-3.8,40.62,40.62,0,0,1,3-3.29,37.64,37.64,0,0,1,3.38-2.92A22.58,22.58,0,0,1,100.47,11.13Z"/></g><g id="Group_1322" data-name="Group 1322"><path id="Path_405" data-name="Path 405" class="cls-2" d="M70.42,40a22.29,22.29,0,0,1-2.52,3.79A36.94,36.94,0,0,1,61.53,50a21.74,21.74,0,0,1-3.86,2.42,22,22,0,0,1,2.52-3.8,36,36,0,0,1,3-3.3,37.41,37.41,0,0,1,3.37-2.91A22.28,22.28,0,0,1,70.42,40Z"/></g><g id="Group_1323" data-name="Group 1323"><path id="Path_406" data-name="Path 406" class="cls-2" d="M38.92,40a22.29,22.29,0,0,1-2.52,3.79A36.94,36.94,0,0,1,30,50a21.74,21.74,0,0,1-3.86,2.42,22,22,0,0,1,2.52-3.8,36,36,0,0,1,3-3.3,37.41,37.41,0,0,1,3.37-2.91A22.28,22.28,0,0,1,38.92,40Z"/></g><g id="Group_1324" data-name="Group 1324"><path id="Path_407" data-name="Path 407" class="cls-2" d="M38.92,71.62a22.69,22.69,0,0,1-2.52,3.79,34.63,34.63,0,0,1-3,3.29A36,36,0,0,1,30,81.62,21.74,21.74,0,0,1,26.17,84a22,22,0,0,1,2.52-3.8,36,36,0,0,1,3-3.3A37.41,37.41,0,0,1,35.06,74,22.28,22.28,0,0,1,38.92,71.62Z"/></g><g id="Group_1325" data-name="Group 1325"><path id="Path_408" data-name="Path 408" class="cls-2" d="M38.92,103.25a22.37,22.37,0,0,1-2.52,3.8,37.25,37.25,0,0,1-3,3.29A37.51,37.51,0,0,1,30,113.26a22.28,22.28,0,0,1-3.86,2.41,21.9,21.9,0,0,1,2.52-3.79,36,36,0,0,1,3-3.3,37.41,37.41,0,0,1,3.37-2.91A21.74,21.74,0,0,1,38.92,103.25Z"/></g><g id="Group_1326" data-name="Group 1326"><path id="Path_409" data-name="Path 409" class="cls-2" d="M69,71.62a22.69,22.69,0,0,1-2.52,3.79,34.63,34.63,0,0,1-3,3.29,35.86,35.86,0,0,1-3.36,2.92A22.11,22.11,0,0,1,56.23,84a21.37,21.37,0,0,1,2.51-3.8,37.51,37.51,0,0,1,3-3.3A38.84,38.84,0,0,1,65.11,74,22.67,22.67,0,0,1,69,71.62Z"/></g><g id="Group_1327" data-name="Group 1327"><path id="Path_410" data-name="Path 410" class="cls-2" d="M131,40a21.9,21.9,0,0,1-2.52,3.79A36.94,36.94,0,0,1,122.15,50a21.74,21.74,0,0,1-3.86,2.42,22,22,0,0,1,2.52-3.8,36,36,0,0,1,3-3.3,37.41,37.41,0,0,1,3.37-2.91A22.28,22.28,0,0,1,131,40Z"/></g><g id="Group_1328" data-name="Group 1328"><path id="Path_411" data-name="Path 411" class="cls-2" d="M100.47,71.62A22.63,22.63,0,0,1,98,75.41a37.52,37.52,0,0,1-3,3.29,36,36,0,0,1-3.37,2.92A21.74,21.74,0,0,1,87.73,84a21.93,21.93,0,0,1,2.51-3.8,39.14,39.14,0,0,1,3-3.3A37.54,37.54,0,0,1,96.62,74,22.58,22.58,0,0,1,100.47,71.62Z"/></g><g id="Group_1329" data-name="Group 1329"><path id="Path_412" data-name="Path 412" class="cls-2" d="M100.47,40A22.23,22.23,0,0,1,98,43.77a39.14,39.14,0,0,1-3,3.3A35.87,35.87,0,0,1,91.59,50a21.74,21.74,0,0,1-3.86,2.42,21.93,21.93,0,0,1,2.51-3.8,39.14,39.14,0,0,1,3-3.3,37.54,37.54,0,0,1,3.38-2.91A22.58,22.58,0,0,1,100.47,40Z"/></g><g id="Group_1330" data-name="Group 1330"><path id="Path_413" data-name="Path 413" class="cls-2" d="M69,103.25a22.37,22.37,0,0,1-2.52,3.8,38.39,38.39,0,0,1-6.36,6.21,22.67,22.67,0,0,1-3.86,2.41,21.29,21.29,0,0,1,2.51-3.79,37.51,37.51,0,0,1,3-3.3,38.84,38.84,0,0,1,3.37-2.91A22.11,22.11,0,0,1,69,103.25Z"/></g><g id="Group_1331" data-name="Group 1331"><path id="Path_414" data-name="Path 414" class="cls-2" d="M69,134.89a22.37,22.37,0,0,1-2.52,3.8,37.25,37.25,0,0,1-3,3.29,35.86,35.86,0,0,1-3.36,2.92,22.06,22.06,0,0,1-3.86,2.41,21.73,21.73,0,0,1,2.51-3.8,38.86,38.86,0,0,1,3-3.29,37.19,37.19,0,0,1,3.37-2.91A22.11,22.11,0,0,1,69,134.89Z"/></g><g id="Group_1332" data-name="Group 1332"><path id="Path_415" data-name="Path 415" class="cls-2" d="M100.47,103.25a22.31,22.31,0,0,1-2.51,3.8,40.62,40.62,0,0,1-3,3.29,37.51,37.51,0,0,1-3.37,2.92,22.28,22.28,0,0,1-3.86,2.41,21.85,21.85,0,0,1,2.51-3.79,39.14,39.14,0,0,1,3-3.3,37.54,37.54,0,0,1,3.38-2.91A22,22,0,0,1,100.47,103.25Z"/></g><g id="Group_1333" data-name="Group 1333"><path id="Path_416" data-name="Path 416" class="cls-2" d="M131,71.62a22.29,22.29,0,0,1-2.52,3.79,34.63,34.63,0,0,1-3,3.29,36,36,0,0,1-3.37,2.92A21.74,21.74,0,0,1,118.29,84a22,22,0,0,1,2.52-3.8,36,36,0,0,1,3-3.3A37.41,37.41,0,0,1,127.18,74,22.28,22.28,0,0,1,131,71.62Z"/></g><g id="Group_1334" data-name="Group 1334"><path id="Path_417" data-name="Path 417" class="cls-2" d="M131,103.25a22.37,22.37,0,0,1-2.52,3.8,37.95,37.95,0,0,1-6.37,6.21,22.28,22.28,0,0,1-3.86,2.41,21.9,21.9,0,0,1,2.52-3.79,36,36,0,0,1,3-3.3,37.41,37.41,0,0,1,3.37-2.91A21.74,21.74,0,0,1,131,103.25Z"/></g><g id="Group_1335" data-name="Group 1335"><path id="Path_418" data-name="Path 418" class="cls-2" d="M100.47,134.89a22.31,22.31,0,0,1-2.51,3.8A40.62,40.62,0,0,1,95,142a36,36,0,0,1-3.37,2.92,21.69,21.69,0,0,1-3.86,2.41,22.31,22.31,0,0,1,2.51-3.8,40.62,40.62,0,0,1,3-3.29,36,36,0,0,1,3.38-2.91A22,22,0,0,1,100.47,134.89Z"/></g><g id="Group_1336" data-name="Group 1336"><path id="Path_419" data-name="Path 419" class="cls-2" d="M12.61,86a21.85,21.85,0,0,1,3.79,2.51,39.14,39.14,0,0,1,3.3,3,39,39,0,0,1,2.92,3.37A22.67,22.67,0,0,1,25,98.75a21.73,21.73,0,0,1-3.8-2.51,36,36,0,0,1-3.29-3A39,39,0,0,1,15,89.87,22.67,22.67,0,0,1,12.61,86Z"/></g><g id="Group_1337" data-name="Group 1337"><path id="Path_420" data-name="Path 420" class="cls-2" d="M12.61,56a22.43,22.43,0,0,1,3.79,2.51,39.14,39.14,0,0,1,3.3,3,39,39,0,0,1,2.92,3.37A22.67,22.67,0,0,1,25,68.7a21.73,21.73,0,0,1-3.8-2.51,36,36,0,0,1-3.29-3A39,39,0,0,1,15,59.82,22.67,22.67,0,0,1,12.61,56Z"/></g><g id="Group_1338" data-name="Group 1338"><path id="Path_421" data-name="Path 421" class="cls-2" d="M41.46,86a22.63,22.63,0,0,1,3.79,2.51,37.95,37.95,0,0,1,6.21,6.37,22.11,22.11,0,0,1,2.42,3.86,21.37,21.37,0,0,1-3.8-2.51,36.94,36.94,0,0,1-6.21-6.37A22.06,22.06,0,0,1,41.46,86Z"/></g><g id="Group_1339" data-name="Group 1339"><path id="Path_422" data-name="Path 422" class="cls-2" d="M41.46,117.51A22.69,22.69,0,0,1,45.25,120a34.63,34.63,0,0,1,3.29,3,36,36,0,0,1,2.92,3.37,21.74,21.74,0,0,1,2.42,3.86,22,22,0,0,1-3.8-2.52,36.94,36.94,0,0,1-6.21-6.37A21.69,21.69,0,0,1,41.46,117.51Z"/></g><g id="Group_1340" data-name="Group 1340"><path id="Path_423" data-name="Path 423" class="cls-2" d="M73.1,117.51A22.69,22.69,0,0,1,76.89,120a37.25,37.25,0,0,1,3.29,3,36,36,0,0,1,2.92,3.37,22.28,22.28,0,0,1,2.41,3.86,22.37,22.37,0,0,1-3.8-2.52,37.25,37.25,0,0,1-3.29-3,35.87,35.87,0,0,1-2.91-3.37A21.14,21.14,0,0,1,73.1,117.51Z"/></g><g id="Group_1341" data-name="Group 1341"><path id="Path_424" data-name="Path 424" class="cls-2" d="M104.73,117.51a22.37,22.37,0,0,1,3.8,2.52,38.86,38.86,0,0,1,3.29,3,37.51,37.51,0,0,1,2.92,3.37,22.28,22.28,0,0,1,2.41,3.86,22.37,22.37,0,0,1-3.8-2.52,37.25,37.25,0,0,1-3.29-3,35.87,35.87,0,0,1-2.91-3.37A21.74,21.74,0,0,1,104.73,117.51Z"/></g><g id="Group_1342" data-name="Group 1342"><path id="Path_425" data-name="Path 425" class="cls-2" d="M73.1,87.46A22.69,22.69,0,0,1,76.89,90a37.25,37.25,0,0,1,3.29,3,34.75,34.75,0,0,1,2.92,3.37,22.58,22.58,0,0,1,2.41,3.85,21.73,21.73,0,0,1-3.8-2.51,37.25,37.25,0,0,1-3.29-3,35.87,35.87,0,0,1-2.91-3.37A21.14,21.14,0,0,1,73.1,87.46Z"/></g><g id="Group_1343" data-name="Group 1343"><path id="Path_426" data-name="Path 426" class="cls-2" d="M41.46,25.39a22.69,22.69,0,0,1,3.79,2.52,34.63,34.63,0,0,1,3.29,3,36,36,0,0,1,2.92,3.37,21.74,21.74,0,0,1,2.42,3.86,22,22,0,0,1-3.8-2.52,36.94,36.94,0,0,1-6.21-6.37A21.69,21.69,0,0,1,41.46,25.39Z"/></g><g id="Group_1344" data-name="Group 1344"><path id="Path_427" data-name="Path 427" class="cls-2" d="M73.1,56a23.26,23.26,0,0,1,3.79,2.51,37.95,37.95,0,0,1,6.21,6.37,22.06,22.06,0,0,1,2.41,3.86,21.73,21.73,0,0,1-3.8-2.51,38.86,38.86,0,0,1-3.29-3,37.19,37.19,0,0,1-2.91-3.37A22.06,22.06,0,0,1,73.1,56Z"/></g><g id="Group_1345" data-name="Group 1345"><path id="Path_428" data-name="Path 428" class="cls-2" d="M41.46,56a23.26,23.26,0,0,1,3.79,2.51,37.95,37.95,0,0,1,6.21,6.37,22.11,22.11,0,0,1,2.42,3.86,21.37,21.37,0,0,1-3.8-2.51,36.94,36.94,0,0,1-6.21-6.37A22.06,22.06,0,0,1,41.46,56Z"/></g><g id="Group_1346" data-name="Group 1346"><path id="Path_429" data-name="Path 429" class="cls-2" d="M104.73,87.46a22.37,22.37,0,0,1,3.8,2.52,38.39,38.39,0,0,1,6.21,6.36,22.67,22.67,0,0,1,2.41,3.86,21.73,21.73,0,0,1-3.8-2.51,37.25,37.25,0,0,1-3.29-3,35.87,35.87,0,0,1-2.91-3.37A21.74,21.74,0,0,1,104.73,87.46Z"/></g><g id="Group_1347" data-name="Group 1347"><path id="Path_430" data-name="Path 430" class="cls-2" d="M136.37,87.46a22.37,22.37,0,0,1,3.8,2.52,38.39,38.39,0,0,1,6.21,6.36,22.75,22.75,0,0,1,2.41,3.87,22.37,22.37,0,0,1-3.8-2.52,34.63,34.63,0,0,1-3.29-3,35.87,35.87,0,0,1-2.91-3.37A23.37,23.37,0,0,1,136.37,87.46Z"/></g><g id="Group_1348" data-name="Group 1348"><path id="Path_431" data-name="Path 431" class="cls-2" d="M104.73,56a22.93,22.93,0,0,1,3.8,2.51,40.62,40.62,0,0,1,3.29,3,37.3,37.3,0,0,1,2.92,3.37,22.67,22.67,0,0,1,2.41,3.86,21.73,21.73,0,0,1-3.8-2.51,38.86,38.86,0,0,1-3.29-3,37.19,37.19,0,0,1-2.91-3.37A22.11,22.11,0,0,1,104.73,56Z"/></g><g id="Group_1349" data-name="Group 1349"><path id="Path_432" data-name="Path 432" class="cls-2" d="M73.1,25.39a23.32,23.32,0,0,1,3.79,2.52,40.62,40.62,0,0,1,3.29,3,37.3,37.3,0,0,1,2.92,3.37,22.28,22.28,0,0,1,2.41,3.86,22.31,22.31,0,0,1-3.8-2.51,40.62,40.62,0,0,1-3.29-3,37.19,37.19,0,0,1-2.91-3.37A21.56,21.56,0,0,1,73.1,25.39Z"/></g><g id="Group_1350" data-name="Group 1350"><path id="Path_433" data-name="Path 433" class="cls-2" d="M104.73,25.39a22.37,22.37,0,0,1,3.8,2.52,37.95,37.95,0,0,1,6.21,6.37,22.28,22.28,0,0,1,2.41,3.86,22.37,22.37,0,0,1-3.8-2.52,37.25,37.25,0,0,1-3.29-3,35.87,35.87,0,0,1-2.91-3.37A21.74,21.74,0,0,1,104.73,25.39Z"/></g><g id="Group_1351" data-name="Group 1351"><path id="Path_434" data-name="Path 434" class="cls-2" d="M136.37,56a22.93,22.93,0,0,1,3.8,2.51,40.62,40.62,0,0,1,3.29,3,37.3,37.3,0,0,1,2.92,3.37,22.67,22.67,0,0,1,2.41,3.86,21.73,21.73,0,0,1-3.8-2.51,34.63,34.63,0,0,1-3.29-3,37.19,37.19,0,0,1-2.91-3.37A23.37,23.37,0,0,1,136.37,56Z"/></g></g></g></g></g></svg>