<svg xmlns="http://www.w3.org/2000/svg" viewBox="0 0 195.99 235.23"><defs><style>.cls-1{fill:#db5c00;}.cls-2{fill:#333;}</style></defs><g id="圖層_2" data-name="圖層 2"><g id="圖層_1-2" data-name="圖層 1"><path id="Path_390" data-name="Path 390" class="cls-1" d="M100.9,71S81.26,55.17,53.2,71c-6.54,3.13-31.79,11.55-46.75,45.83-.94,7.37-14,37.72,0,66.41,0,8.22,13.09,28.68,25.25,28.68,4.67,0,42.58,4.77,69.2-10,45.2-6.23,28.28-27.43,43.25-33.63,5.61-2.48,52.13-45.66,25-63.53-5.61-5.18-17.77-10.52-34.6-15.32C125.21,86.85,100.9,71,100.9,71Z"/><g id="Group_1317" data-name="Group 1317"><g id="Group_1307" data-name="Group 1307"><path id="Path_391" data-name="Path 391" class="cls-2" d="M186.33,229.18a96.09,96.09,0,0,1-16.67-22.71c-9-17.48-8.22-33.08,2.26-45.12l.07-.07c3.86-3.86,20.88-27.74,18.24-44.57l0-.14c-1.64-6.54-6.61-26.42,1.44-39,2.24-4.62,2.33-20.3-1.24-23.4-.33-.28-1.09-.94-2.95.32l-.13.11c-2.7,2.25-2.7,2.25-5,8.51-.85,2.37-2,5.6-3.75,10.1a18.49,18.49,0,0,0-1,7.11c0,5.57-.09,11.87-9.7,23.38l-2.16-1.8c9-10.74,9-16.5,9-21.6a21.06,21.06,0,0,1,1.18-8.1c1.71-4.46,2.88-7.69,3.73-10,2.42-6.71,2.52-7,5.81-9.72l.28-.22c3.21-2.22,5.41-1.06,6.44-.17,5.25,4.55,4.15,22.31,1.88,26.84l-.07.14c-4.95,7.64-5.33,20-1.13,36.83l.08.32c3,19-16.13,44.11-19,47-9.77,11.25-10.4,25.36-1.86,42a94.57,94.57,0,0,0,16.13,22Z"/></g><g id="Group_1308" data-name="Group 1308"><path id="Path_392" data-name="Path 392" class="cls-2" d="M175.18,110.94c-2.28-2.44-9.31-8.67-14.46-8.15l-.41,0-.36-.18c-1.46-.73-1.48-2.5-1.52-5.19-.06-4.37-.15-11.67-6.34-18.2l2-1.93c6.94,7.32,7.05,15.32,7.11,20.09,0,.85,0,1.69.11,2.53,7.38,0,15.53,8.7,15.89,9.08Z"/></g><g id="Group_1309" data-name="Group 1309"><path id="Path_393" data-name="Path 393" class="cls-2" d="M138.77,235.23c-.16-.33-16-33-23.65-54.31-2.24-4.95-2.86-11.3-3.65-19.31-.85-8.78-1.92-19.71-5.72-31.86l0-.17c-1.16-6.35.63-27.25,22.42-47.64,7.61-11.31,20.16-17.7,36.33-18.47,1.78-.38,8.08-.46,9.77,2.54,1.07,1.9.14,4.22-2.75,6.91l-.15.13-.16.08a57.77,57.77,0,0,1-10.83,4.08c-4.18,1.22-7.49,2.19-10.45,5a14.56,14.56,0,0,1-1.18,1.3c-2.42,2.48-8.83,9-14.84,23.5.06.24.2.61.3.9,1.23,3.45,3.79,10.64-11.39,21.79l-1.66-2.27c13.49-9.9,11.48-15.55,10.4-18.58a6.29,6.29,0,0,1-.5-2v-.28l.11-.25c6.26-15.21,13-22.13,15.57-24.74.38-.39.82-.84.91-1l.1-.16.13-.12c3.49-3.32,7.3-4.43,11.71-5.73a55.18,55.18,0,0,0,10.16-3.78c1.78-1.69,2.33-2.89,2.07-3.34-.7-1.25-5.46-1.53-6.73-1.17l-.16.05h-.17c-10.71.5-25.37,3.91-34.34,17.37l-.1.14-.12.11c-18.56,17.31-23.16,36.8-21.7,45.1,3.87,12.4,5,23.46,5.82,32.34.76,7.79,1.36,13.94,3.43,18.48l0,.11c7.59,21.17,23.39,53.75,23.55,54.08Z"/></g><g id="Group_1310" data-name="Group 1310"><path id="Path_394" data-name="Path 394" class="cls-2" d="M121.9,92.55l-2.75-.6a157.69,157.69,0,0,1,5.22-17.8c4.56-12.55,9.57-20.31,14.92-23.08a14.35,14.35,0,0,0,2.37-1.65c3.91-3.1,10.45-8.28,31.27-9.6,11.4-2,12.51.46,12.87,1.25.91,2-1.14,4-2.83,5.44-3.33,4-5.56,4.65-25.28,10-4.75,2.8-5.84,4.7-10.28,12.45l-.06.12-2.44-1.4.06-.12C149.53,59.6,150.9,57.2,156.43,54l.16-.09.18-.05c19.79-5.35,21.36-5.83,24.11-9.2l.19-.19a7.79,7.79,0,0,0,2.08-2.2c-.89-.44-4.28-.58-9.82.37l-.15,0c-20,1.25-26.12,6.1-29.78,9a16.38,16.38,0,0,1-2.85,2C136,56,131.27,63.41,127,75.09A154.35,154.35,0,0,0,121.9,92.55Z"/></g><g id="Group_1311" data-name="Group 1311"><path id="Path_395" data-name="Path 395" class="cls-2" d="M134.87,58.83l-2.56-1.16a53.87,53.87,0,0,1,10.17-14.11A50.06,50.06,0,0,1,176,28.37c1.73-.46,12.73-3.21,15.31.47.94,1.36.64,3.07-.89,5.11-.78,3.08-5.51,8-8.41,8h-.07l.08-2.8h0c1.33,0,5.39-4,5.68-6l0-.38.24-.3c1.06-1.33,1.06-1.93,1-2-.68-1-7.46-1-12.34.64l-.19.06h-.19C147,32.55,135,58.56,134.87,58.83Z"/></g><g id="Group_1312" data-name="Group 1312"><path id="Path_396" data-name="Path 396" class="cls-2" d="M130.71,60.53a59.2,59.2,0,0,1,9.95-35.12l.08-.13.12-.11c2.2-2.11,14.59-20.37,15.6-22h0a2.24,2.24,0,0,1,.49-.53c1.07-1.08,3.56-3.38,6-2.4,2.14.86,3.13,3.76,3.13,9.11v.13c-.31,3.29-6.58,18.15-14.34,29.84l-2.34-1.56C157.17,26,162.93,12,163.25,9.28c0-5.72-1.23-6.38-1.37-6.44s-1-.3-3.16,2c-.72,1.27-2.54,3.89-6.85,10.1-4.73,6.83-7.74,10.91-9,12.15a57.48,57.48,0,0,0-9.41,33.2Z"/></g><g id="Group_1313" data-name="Group 1313"><path id="Path_397" data-name="Path 397" class="cls-2" d="M154,12.11c-.33,0-.67,0-1,0l.26-2.8c2.78.27,5.15-.89,7.06-3.44a14.56,14.56,0,0,0,2.14-4.12l2.7.79C164.12,5.93,160.54,12.11,154,12.11Z"/></g><g id="Group_1314" data-name="Group 1314"><path id="Path_398" data-name="Path 398" class="cls-2" d="M180.66,35.58a9.18,9.18,0,0,1-8.06-5l2.53-1.22a6.33,6.33,0,0,0,6.46,3.38c.51-.2,1.25-.42,2.15-.7a44.33,44.33,0,0,0,6-2.15l1.2,2.54a47.42,47.42,0,0,1-6.4,2.3c-.89.27-1.66.5-2,.66l-.17.07-.18,0A11,11,0,0,1,180.66,35.58Z"/></g><g id="Group_1315" data-name="Group 1315"><path id="Path_399" data-name="Path 399" class="cls-2" d="M175.74,47.21a5.83,5.83,0,0,1-4.66-1.79,5.38,5.38,0,0,1-1.1-4.34l2.76.54-1.38-.27,1.38.26a2.71,2.71,0,0,0,.47,2,3.67,3.67,0,0,0,2.76.8c1-.3,2.27-.62,3.48-.92s2.48-.63,3.69-1a1,1,0,0,0-.35.34l2.31,1.6c-.45.64-1.1.85-5,1.82-1.25.32-2.55.65-3.53.94l-.17,0h-.7Z"/></g><g id="Group_1316" data-name="Group 1316"><path id="Path_400" data-name="Path 400" class="cls-2" d="M165.05,71.26a7,7,0,0,1-1.64-.2l-.25-.1c-1.75-.86-4.06-2.26-4-4.36.07-1.9,2.08-2.77,2.31-2.86l1.06,2.6L162,65l.54,1.3a1.75,1.75,0,0,0-.55.38c.09.17.5.76,2.28,1.66,1.25.27,4-.18,8.18-2.27l1.26,2.52C171.6,69.68,168,71.26,165.05,71.26Z"/></g></g></g></g></svg>