<svg xmlns="http://www.w3.org/2000/svg" viewBox="0 0 232.48 218.37"><defs><style>.cls-1{fill:#004a13;}.cls-2{fill:#333;}</style></defs><g id="圖層_2" data-name="圖層 2"><g id="圖層_1-2" data-name="圖層 1"><g id="Group_1359" data-name="Group 1359"><path id="Path_435" data-name="Path 435" class="cls-1" d="M69.47,100.32A47.84,47.84,0,0,0,77,102.05a31.22,31.22,0,0,1,11,3.48,69.82,69.82,0,0,0-9-12.65,12.92,12.92,0,0,1-3.25,1.7,18.71,18.71,0,0,1-4.73,1,21.31,21.31,0,0,1-4.79-.17A15.2,15.2,0,0,1,61.62,94c1.61-.27,3.15-.42,4.68-.56l4.52-.36c1.5-.11,3-.26,4.48-.41,1-.11,2.09-.25,3.18-.39-1.44-1.6-3-3.25-4.74-4.93-2.2-2-4.37-4.12-6.47-6.29a24.43,24.43,0,0,1-2.7.15A33.94,33.94,0,0,1,60.79,81a31.2,31.2,0,0,1-3.72-.68,17.86,17.86,0,0,1-3.7-1.3,14.67,14.67,0,0,1,3.89-.65,22.28,22.28,0,0,1,3.83.15,24,24,0,0,1,3.77.78l1.06.36c-.9-.95-1.78-1.91-2.64-2.86-7.87-2.81-16.69-5.68-21.8-7.56C42.93,84.13,45.67,92.55,69.47,100.32Z"/><path id="Path_436" data-name="Path 436" class="cls-1" d="M83.13,87.94c-.24,1-.47,2-.78,3-.17.5-.34,1-.53,1.51A84.42,84.42,0,0,1,88,100.76c.4.61.77,1.21,1.13,1.81a50.6,50.6,0,0,1,.43-14.17c-2-1.07-4-2.09-6-3.08C83.46,86.19,83.33,87.07,83.13,87.94Z"/><path id="Path_437" data-name="Path 437" class="cls-1" d="M69,79.22l0-.34-.56-.22Z"/><path id="Path_438" data-name="Path 438" class="cls-1" d="M92.46,108.66l.06.35a33.19,33.19,0,0,1,2.5,8.4c.78-.51,1.55-1,2.33-1.6,4.44-11.35,5.39-14.93,5.81-19.42-3.62-2.32-7.4-4.59-11.27-6.74C90.46,97.51,92.44,108.53,92.46,108.66Z"/><path id="Path_439" data-name="Path 439" class="cls-1" d="M162.25,173.62c-.48-.81-.95-1.63-1.4-2.46a83.65,83.65,0,0,1-4.25-8.66c-3.69-1-7.4-1.84-11-2.55-2.34-.55-7.74-1.9-14.51-4.19.53.91,1,1.82,1.54,2.73.89,1.63,1.82,3.23,2.67,4.87s1.76,3.24,2.6,4.87l1.31,2.42c.44.8.85,1.63,1.3,2.42,1.75,3.21,3.53,6.38,5.4,9.49.47.77.94,1.55,1.43,2.31L148,186l.75,1.12c.25.38.51.74.77,1.11l.8,1.08c.28.36.55.71.84,1.05a12.27,12.27,0,0,0,.91,1,10.67,10.67,0,0,1-2.19-1.45c-.35-.28-.69-.58-1-.89s-.67-.61-1-.94l-.94-1-.9-1c-.61-.68-1.17-1.42-1.73-2.15a75.78,75.78,0,0,1-6-9.41c-.9-1.64-1.74-3.32-2.56-5s-1.58-3.4-2.29-5.15-1.38-3.5-2-5.27c-.39-1.18-.78-2.36-1.15-3.56a138.5,138.5,0,0,1-22.48-9.9c5.43,6.81,13.35,17.88,16.49,27.74,5.2,7.4,16.34,17.65,28.2,24.75C157.58,193.2,161.93,185.54,162.25,173.62Z"/><path id="Path_440" data-name="Path 440" class="cls-1" d="M105.27,113.13a127.51,127.51,0,0,1,15.74-4c-2-1.6-4.18-3.24-6.44-4.88A120.63,120.63,0,0,1,105.27,113.13Z"/><path id="Path_441" data-name="Path 441" class="cls-1" d="M122.19,174.83l-.14-.21-.08-.26c-4.59-14.64-21.26-33.05-21.43-33.24l-.09-.1a60.56,60.56,0,0,1-15.63-15l.7-.54a40,40,0,0,1-5.8,1.75l-.6-2.73a46,46,0,0,0,13.56-5.66A33.66,33.66,0,0,0,90,109.57a30.21,30.21,0,0,0-13.36-5.06,51.31,51.31,0,0,1-7.92-1.81c-25.63-8.37-28.29-18-29.79-34-7-.59-22.41,3.2-30.81,18.54-4.64,10.89-14,29-2.87,61.89,3.53,10.07,13.6,44.59,56.85,66.14,9.27,3,23,5.79,48.38-1.48,10.1-7.19,21.07-6.2,25.37-7.27A32.42,32.42,0,0,0,150.32,200C138.17,192.52,127.32,182.22,122.19,174.83Z"/><path id="Path_442" data-name="Path 442" class="cls-2" d="M161.18,160.76h0v0Z"/><path id="Path_443" data-name="Path 443" class="cls-1" d="M157.33,162.69c1.66,2.27,3.27,4.55,4.88,6.83q-.12-2.67-.51-5.6C160.25,163.5,158.8,163.09,157.33,162.69Z"/><path id="Path_444" data-name="Path 444" class="cls-1" d="M70,79.28c-.13.22-.25.43-.39.64,1.89,1.94,3.84,3.84,5.8,5.61,1.4,1.37,3.44,3.45,5.7,6.08v-.9c0-1,0-2,0-3s.06-2,.13-3l0-.49c-1.76-.83-3.54-1.63-5.32-2.4C74.41,81,72.35,80.18,70,79.28Z"/><path id="Path_445" data-name="Path 445" class="cls-1" d="M125.09,138.65c-5.41,1.95-7.67,2.76-18.54,2.91q4,2.35,8.49,4.55a145.2,145.2,0,0,0,18.45,7.45q.19-.76.45-1.5a28.7,28.7,0,0,1,1.16-2.67,21.23,21.23,0,0,1,1.48-2.47c.27-.4.55-.78.84-1.16l.92-1.09a18.33,18.33,0,0,1,4.34-3.56,13.2,13.2,0,0,1,2.55-1.13,7.72,7.72,0,0,1,2.74-.4c-.76.55-1.46,1.11-2.13,1.7s-1.33,1.17-2,1.76c-1.27,1.2-2.47,2.47-3.64,3.76l-.88,1-.86,1c-.6.64-1.12,1.36-1.72,2s-1.13,1.39-1.75,2.06c-.26.31-.52.62-.79.92,5.15,1.66,9.31,2.72,11.65,3.27,4.69.9,9.47,2.07,14.17,3.38l1-.76a97.36,97.36,0,0,0-2.6-10.49c-5-7.78-8.74-7.62-14.27-15.09-3.3.4-6.76.95-10.43,1.67C129.84,136.93,127.2,137.89,125.09,138.65Z"/><path id="Path_446" data-name="Path 446" class="cls-1" d="M98.22,118.62a61.29,61.29,0,0,1-11,6.22A58.18,58.18,0,0,0,102,138.68c14.32,0,16.18-.67,22.13-2.81,2.16-.78,4.84-1.75,8.82-2.94l.11,0c3.24-.64,6.3-1.15,9.21-1.54-.82-1.29-1.68-2.74-2.59-4.42-2.2-3.37-7.87-9.07-15.74-15.52a135.23,135.23,0,0,0-25,6.93Z"/><path id="Path_447" data-name="Path 447" class="cls-1" d="M101.61,112.55q3.57-2.91,7.23-6.47c1.19-1.16,2.34-2.34,3.46-3.52q-3.14-2.24-6.51-4.45C105.35,101.59,104.4,105.12,101.61,112.55Z"/><path id="Path_448" data-name="Path 448" class="cls-2" d="M173.71,189.51a60.41,60.41,0,0,0,7.8,7.54c-2.08-3.12-4.28-6-6.37-9.07s-4.24-6-6.33-9l-6.35-9.08-.25-.35c.07,1.42.08,2.78,0,4.09q2.18,3.67,4.6,7.14A95,95,0,0,0,173.71,189.51Z"/><path id="Path_449" data-name="Path 449" class="cls-2" d="M181.79,175.41a49.51,49.51,0,0,0,4.09,6.77A36.52,36.52,0,0,0,191,188a18.76,18.76,0,0,0,6.25,3.84c-1.77-1.85-3.39-3.66-5-5.56s-3-3.91-4.51-5.92-2.9-4.1-4.36-6.18c-.94-1.33-1.88-2.66-2.85-4,12.38,4.53,21.3,8.62,21.46,8.69l.92-2.75c-.14-.07-6.47-3-15.86-6.57a2.62,2.62,0,0,1,.63-1.63,8.53,8.53,0,0,1,1.58-1.54,20.45,20.45,0,0,1,3.8-2.23,40.11,40.11,0,0,1,4.19-1.6c1.45-.47,2.95-.87,4.53-1.4a10.88,10.88,0,0,0-4.84-.91,12.77,12.77,0,0,0-4.86,1.15,11.49,11.49,0,0,0-4.17,3.24,7.68,7.68,0,0,0-1.35,2.6,4.11,4.11,0,0,0-.12,1.6,1.74,1.74,0,0,0,.15.54c-7.2-2.76-16.13-5.92-25.42-8.55q.28,1.6.48,3.15c6.24,1.8,12.29,3.83,17.73,5.8A43.44,43.44,0,0,0,181.79,175.41Z"/><path id="Path_450" data-name="Path 450" class="cls-2" d="M171,156.78a50.77,50.77,0,0,0,5.41-3.42,34.75,34.75,0,0,0,5-4.33,41.81,41.81,0,0,0-5.95,2.25c-1.91.88-3.79,1.82-5.62,2.84s-3.65,2.08-5.42,3.23c-1.13.74-2.25,1.51-3.34,2.34.06.35.13.71.2,1.06a35.64,35.64,0,0,0,4-1.29A47.88,47.88,0,0,0,171,156.78Z"/><path id="Path_451" data-name="Path 451" class="cls-2" d="M61.54,67.42a17.21,17.21,0,0,0,.12-4.18,14.87,14.87,0,0,0-1-4.1,9.2,9.2,0,0,0-2.47-3.47c.2,1.44.42,2.71.58,4l.44,3.83c.12,1.28.25,2.57.4,3.89L59.79,69c-4.85-5.79-8.11-10.24-8.17-10.33l-2,1.47c0,.07,2.18,3,5.53,7.12-.41-.11-.81-.21-1.21-.29a20.63,20.63,0,0,0-2.47-.33,23,23,0,0,0-2.49,0,13.47,13.47,0,0,0-2.69.34,6.13,6.13,0,0,0,2.34,1.59,8.94,8.94,0,0,0,2.66.6,9.45,9.45,0,0,0,2.7-.2,7,7,0,0,0,1.91-.74c2.11,2.58,4.63,5.57,7.39,8.63,1.79.64,3.53,1.27,5.16,1.89-2.74-2.88-5.33-5.8-7.62-8.49A14,14,0,0,0,61.54,67.42Z"/><path id="Path_452" data-name="Path 452" class="cls-2" d="M41.47,69.21c-.06-.63-.12-1.27-.17-1.93A68.12,68.12,0,0,0,39.44,50c4.36,1.57,9.9,1.09,14.53.69A33.3,33.3,0,0,1,60,50.45C75.36,52.57,81.32,59,83.28,61.06l.23.25C89.06,69,91.43,82.14,90,86.69c-.17.55-.32,1.13-.44,1.72.77.41,1.53.83,2.29,1.25a19.18,19.18,0,0,1,.53-2.24c1.58-5.13-.64-19-6.94-27.64l-.38-.42C83,57.1,76.58,50.22,60.37,48a34,34,0,0,0-6.61.2c-5.26.46-11.8,1-15.6-1.62l-3.24-2.25L36.28,48c0,.08,2.68,7.5,2.52,19.31v.13c0,.41.07.83.11,1.23a8.84,8.84,0,0,1,2.5.52Z"/><path id="Path_453" data-name="Path 453" class="cls-2" d="M84,81.88a30.22,30.22,0,0,0-.27-6.16c-.08-.51-.16-1-.29-1.53-.07-.25-.12-.5-.19-.76L83,72.69a8.9,8.9,0,0,0-1.41-2.8,18.92,18.92,0,0,1,.21,3c0,.5,0,1,0,1.48l0,1.48c-.06,2-.17,3.93-.27,5.9,0,.49-.06,1-.09,1.48l0,1,2.27,1.1.06-.38C83.79,83.92,83.89,82.9,84,81.88Z"/><path id="Path_454" data-name="Path 454" class="cls-2" d="M229.82,179.53c-1.71-2-4-4.55-6.51-7.08a172.09,172.09,0,0,0-22.25-18.89c-15.19-16.43-27.48-26.41-58.79-22.2.65,1,1.27,1.93,1.88,2.74,12.38-1.51,22.21-.74,30.36,2.34,10.06,3.86,17.25,11,24.88,19.38l.1.11.12.08A166.29,166.29,0,0,1,228,181.64c-11.62.3-22,7.94-31.57,15.79-19.06,10.95-30.34,6.82-35.2,5.07-.52-.19-1-.36-1.39-.48-2.52-1.19-5-2.5-7.36-3.93-.72.69-1.45,1.32-2.19,1.91a87.19,87.19,0,0,0,8.82,4.77l.16.06c.38.12.84.28,1.36.47,5.14,1.87,17.09,6.26,37-5.24l.16-.11c10.16-8.35,20.35-15.83,32-15.3.59.51,1.21.92,1.9.54l.7-.42.05-.9C232.51,183.24,232.54,182.79,229.82,179.53Z"/><path id="Path_455" data-name="Path 455" class="cls-2" d="M106.22,93.07c.15-2.4.34-5.39.82-9.68C110.79,64.77,116,52,123.4,43.18,130.67,34.52,139.76,29.82,150,25l.14-.06.12-.1A190.22,190.22,0,0,1,183.88,4.08c-4.28,12.2-1.63,25.62,1.52,38.38,2.13,24.1-5.91,34.48-9.35,38.92-.37.48-.7.9-1,1.28-11.46,12.43-28.69,22.6-38.91,25.36A57.65,57.65,0,0,0,121,109.08c1,.79,2,1.58,2.93,2.35a50,50,0,0,1,12.22-.6l.25,0,.24-.06c10.45-2.73,28.22-12.87,40.56-26.3l.11-.14c.26-.36.58-.77,1-1.25,3.64-4.71,12.17-15.73,9.91-41l0-.22c-3.35-13.57-5.94-26.74-.93-38.72.68-.46,1.28-1,1.22-1.81l-.1-.87-.76-.34c-.54-.24-.93-.41-4.85,1.38C180.26,2.66,177.15,4.25,174,6A202.48,202.48,0,0,0,148.7,22.52C126.51,33,112.45,42.31,104.29,82.9l0,.12c-.5,4.39-.69,7.43-.85,9.87-.08,1.3-.15,2.43-.26,3.51l2.64,1.71C106,96.53,106.1,95,106.22,93.07Z"/><path id="Path_456" data-name="Path 456" class="cls-2" d="M126.5,95c1.79.08,3.59.1,5.38.09s3.59-.15,5.38-.25,3.58-.35,5.37-.61a64.52,64.52,0,0,0,10.55-2.42c.86-.3,1.72-.58,2.56-.94l1.25-.53,1.24-.58c.41-.19.8-.43,1.2-.65a11.66,11.66,0,0,0,1.17-.7,10.9,10.9,0,0,0,2.13-1.7,11.26,11.26,0,0,1-1.23.55c-.41.17-.82.33-1.24.46s-.83.29-1.26.41-.84.26-1.27.36l-1.27.35-1.28.3c-.85.21-1.72.38-2.57.56-3.44.7-6.9,1.26-10.39,1.77-.87.15-1.75.24-2.62.36l-2.62.38c-1.76.2-3.5.46-5.27.7s-3.51.5-5.28.73c-1,.15-2.06.3-3.08.47,4.68-5.89,8-10.81,9.38-13,2-3.41,4.21-6.83,6.48-10.21a70.29,70.29,0,0,0,9.27-1,93.53,93.53,0,0,0,10.73-2.56,82.93,82.93,0,0,0,10.35-3.84,59.13,59.13,0,0,0,9.65-5.38c-3.55,1-7,2.27-10.44,3.33s-6.9,2.18-10.37,3.21L148,67.7c-2.77.83-5.54,1.64-8.33,2.52,4.82-7.12,10-14,14.69-20a35.6,35.6,0,0,0,6-.36,43.19,43.19,0,0,0,7.53-1.79A35.91,35.91,0,0,0,175,44.84a21.47,21.47,0,0,0,5.81-5.18c-2.31,1.2-4.54,2.26-6.82,3.22s-4.61,1.77-6.95,2.58-4.72,1.54-7.11,2.29c-1.58.5-3.17,1-4.77,1.54,8.87-11.15,16-19,16.14-19.11l-2.06-1.9c-.11.12-5.16,5.64-12,14a2.49,2.49,0,0,1-1.1-1.19,9.24,9.24,0,0,1-.73-2.17,24.42,24.42,0,0,1-.48-4.67c0-1.62.07-3.23.23-4.84s.39-3.3.53-5.11a13.7,13.7,0,0,0-2.68,4.63,16,16,0,0,0-.88,5.35,12.76,12.76,0,0,0,1.22,5.4A7.18,7.18,0,0,0,155,42a3.53,3.53,0,0,0,1.36.7,1.84,1.84,0,0,0,.41.05C151.6,49.09,145.41,57,139.54,65.43a42.34,42.34,0,0,0,.42-4.49,59.38,59.38,0,0,0-1-13.5,36.56,36.56,0,0,0-1.86-6.58,51.45,51.45,0,0,0-.33,6.8c0,2.25.12,4.48.3,6.71s.41,4.45.73,6.68c.26,1.82.58,3.63,1,5.46-3,4.29-5.84,8.7-8.44,13.09C129,81.75,126.42,85.52,123,90c-.16-.39-.32-.77-.49-1.14-.35-.89-.76-1.73-1.12-2.58s-.78-1.67-1.11-2.52l-.55-1.26-.51-1.26c-.67-1.68-1.32-3.36-1.88-5.1-.27-.86-.55-1.74-.78-2.64s-.47-1.8-.66-2.77a9.16,9.16,0,0,0-.71,2.87,16.37,16.37,0,0,0,0,3,20.88,20.88,0,0,0,1.43,5.72l.59,1.35c.22.44.46.87.69,1.3a24.56,24.56,0,0,0,1.59,2.46,26.4,26.4,0,0,0,1.88,2.23c.36.35.74.7,1.12,1-2.84,3.67-6.28,7.79-10.16,11.88l2.27,1.64c3.07-3.26,5.86-6.51,8.29-9.54C124.07,94.78,125.28,94.87,126.5,95Z"/><path id="Path_457" data-name="Path 457" class="cls-2" d="M71.78,71.92l0-1.21c0-.4-.08-.8-.12-1.21a17.4,17.4,0,0,0-.46-2.37,19.7,19.7,0,0,0-.77-2.28,14.74,14.74,0,0,0-1.14-2.15q-.09,1.2-.06,2.4c0,.79,0,1.55,0,2.31s0,1.52,0,2.27,0,1.5,0,2.24c0,1.49,0,3-.11,4.47,0,.83-.11,1.65-.18,2.49l1,.4a13.11,13.11,0,0,0,1.06-2.54A17.12,17.12,0,0,0,71.78,71.92Z"/></g></g></g></svg>