<svg xmlns="http://www.w3.org/2000/svg" viewBox="0 0 257.73 37.35"><defs><style>.cls-1{fill:#004a13;}.cls-2{isolation:isolate;}</style></defs><g id="圖層_2" data-name="圖層 2"><g id="圖層_1-2" data-name="圖層 1"><g id="button_-_quick_view" data-name="button - quick view"><g id="Search"><path id="Path_2" data-name="Path 2" class="cls-1" d="M4.67,16.35A11.57,11.57,0,0,1,16.12,4.67h.23A11.57,11.57,0,0,1,28,16.12v.23A11.56,11.56,0,0,1,16.58,28h-.23A11.57,11.57,0,0,1,4.67,16.58ZM33.4,36.67a2.31,2.31,0,0,0,3.27-3.27h0l-7.24-7.24a16,16,0,0,0,3.27-9.81A16.25,16.25,0,0,0,16.55,0h-.2A16.25,16.25,0,0,0,0,16.15v.2A16.25,16.25,0,0,0,16.15,32.7h.2a16,16,0,0,0,9.81-3.27Z"/></g><g id="Quick_View" data-name="Quick View" class="cls-2"><g class="cls-2"><path class="cls-1" d="M78.56,16.41A16.13,16.13,0,0,1,77,24a9.75,9.75,0,0,1-4.72,4.49l6.19,6.91h-7l-4.71-5.77h-.4q-5.91,0-9.07-3.42t-3.17-9.85q0-6.41,3.18-9.8t9.09-3.38q5.92,0,9.06,3.41T78.56,16.41Zm-18.75,0q0,4.31,1.63,6.48a5.71,5.71,0,0,0,4.89,2.18q6.51,0,6.52-8.66T66.36,7.72a5.74,5.74,0,0,0-4.9,2.19Q59.81,12.1,59.81,16.41Z"/><path class="cls-1" d="M98.11,29.29l-.72-2.51h-.28a5.72,5.72,0,0,1-2.45,2.12,8.27,8.27,0,0,1-3.6.74,6.84,6.84,0,0,1-5.22-1.85,7.49,7.49,0,0,1-1.76-5.34V9.64h5.36V21.12a5.46,5.46,0,0,0,.76,3.19,2.73,2.73,0,0,0,2.41,1.06,3.62,3.62,0,0,0,3.25-1.5c.67-1,1-2.66,1-5V9.64h5.36V29.29Z"/><path class="cls-1" d="M108.34,4.56c0-1.75,1-2.62,2.92-2.62s2.91.87,2.91,2.62a2.53,2.53,0,0,1-.73,1.94,3,3,0,0,1-2.18.7C109.31,7.2,108.34,6.32,108.34,4.56Zm5.59,24.73h-5.36V9.64h5.36Z"/><path class="cls-1" d="M128.25,29.64q-9.16,0-9.17-10.07,0-5,2.49-7.65c1.67-1.77,4.05-2.65,7.16-2.65a13.61,13.61,0,0,1,6.11,1.34l-1.58,4.15c-.84-.34-1.63-.62-2.35-.84a7.52,7.52,0,0,0-2.18-.32q-4.18,0-4.19,5.94,0,5.76,4.19,5.76a9.69,9.69,0,0,0,2.86-.41,10.72,10.72,0,0,0,2.64-1.29v4.59a8.61,8.61,0,0,1-2.63,1.14A14.85,14.85,0,0,1,128.25,29.64Z"/><path class="cls-1" d="M144.65,18.6l2.34-3,5.5-6h6l-7.81,8.53L159,29.29h-6.18l-5.66-8-2.31,1.85v6.11H139.5V1.94h5.36v12.2l-.28,4.46Z"/><path class="cls-1" d="M187.7,3.59h5.5l-8.73,25.7h-5.95l-8.71-25.7h5.5l4.83,15.3q.41,1.35.84,3.15c.28,1.2.46,2,.53,2.51a45,45,0,0,1,1.32-5.66Z"/><path class="cls-1" d="M196.51,4.56c0-1.75,1-2.62,2.91-2.62s2.92.87,2.92,2.62a2.53,2.53,0,0,1-.73,1.94,3,3,0,0,1-2.19.7Q196.51,7.2,196.51,4.56Zm5.59,24.73h-5.37V9.64h5.37Z"/><path class="cls-1" d="M217.33,29.64A10.11,10.11,0,0,1,209.92,27c-1.78-1.74-2.68-4.21-2.68-7.41s.83-5.84,2.47-7.64a8.81,8.81,0,0,1,6.83-2.7A8.67,8.67,0,0,1,223,11.64a9,9,0,0,1,2.32,6.56v2.6H212.68A5.16,5.16,0,0,0,214,24.37a4.74,4.74,0,0,0,3.55,1.28,14.6,14.6,0,0,0,3.36-.37,16.41,16.41,0,0,0,3.3-1.17v4.15a13,13,0,0,1-3,1A18.94,18.94,0,0,1,217.33,29.64Zm-.75-16.55a3.39,3.39,0,0,0-2.67,1.08,4.93,4.93,0,0,0-1.11,3.06h7.52a4.48,4.48,0,0,0-1-3.06A3.52,3.52,0,0,0,216.58,13.09Z"/><path class="cls-1" d="M246.23,29.29l-1.51-6.87-2-8.68h-.16L239,29.29h-5.76L227.62,9.64H233l2.27,8.7c.26,1,.61,3.18,1.07,6.45h.14a35.47,35.47,0,0,1,.62-4.23l.28-1.5,2.42-9.42h5.91l2.3,9.42c.14.65.32,1.59.52,2.84a22.61,22.61,0,0,1,.34,2.89H249c.12-1,.31-2.23.54-3.56s.43-2.29.6-2.89l2.35-8.7h5.26l-5.66,19.65Z"/></g></g></g></g></g></svg>