<svg xmlns="http://www.w3.org/2000/svg" viewBox="0 0 154.24 137.17"><defs><style>.cls-1{fill:#f2a200;}</style></defs><g id="圖層_2" data-name="圖層 2"><g id="圖層_1-2" data-name="圖層 1"><g id="Group_402" data-name="Group 402"><g id="Group_400" data-name="Group 400"><path id="Path_286" data-name="Path 286" class="cls-1" d="M114.77,6.92a69.28,69.28,0,0,0-22.2-5.55,67.12,67.12,0,0,0-11.43.1,64.8,64.8,0,0,0-11.22,2,66.76,66.76,0,0,0-36.82,25A68.63,68.63,0,0,0,23,48.43,66.49,66.49,0,0,0,148.3,92.56a67.79,67.79,0,0,0,2.39-44.8,68.18,68.18,0,0,1,2.78,11.18,65.4,65.4,0,0,1,.75,11.53A70.85,70.85,0,0,1,153.06,82a67.83,67.83,0,0,1-3.17,11.18,67,67,0,0,1-11.9,20A68.86,68.86,0,0,1,16.91,70.74,69.77,69.77,0,0,1,20.1,47.52,68.14,68.14,0,0,1,31,26.8,70.06,70.06,0,0,1,48.11,11a67.53,67.53,0,0,1,66.66-4Z"/></g><g id="Group_401" data-name="Group 401"><path id="Path_287" data-name="Path 287" class="cls-1" d="M136.89,29.14a3.44,3.44,0,0,0,2.75-1.44,5.4,5.4,0,0,0,1-2.76,3.72,3.72,0,0,0-.9-2.87A3.43,3.43,0,0,0,136.89,21a4.28,4.28,0,0,0-2.63,1.31,4,4,0,0,0-1,2.62,4.63,4.63,0,0,0,.9,2.74A3.41,3.41,0,0,0,136.89,29.14Zm0,.12a5.35,5.35,0,0,1-3.28-1A4.17,4.17,0,0,1,132,25a4.57,4.57,0,0,1,1.48-3.4,4.32,4.32,0,0,1,3.4-1.18A5.24,5.24,0,0,1,140,21.8a4.75,4.75,0,0,1,1.6,3.14,3.84,3.84,0,0,1-1.47,3.27,5.36,5.36,0,0,1-3.27,1.05Z"/></g></g><g id="Group_404" data-name="Group 404"><g id="Group_403" data-name="Group 403"><path id="Path_288" data-name="Path 288" class="cls-1" d="M.13,97.17v0h0l.62-.24h0l0,0,0,.08a.68.68,0,0,1,.1.21,2.5,2.5,0,0,1,0,1.53c0,.1-.08.09-.13-.11A3.17,3.17,0,0,0,.4,97.58a.73.73,0,0,0-.08-.09l-.06,0,0,0h0l.62-.24h0v0c0,.67,0,1.34.13,2,0,.33.07.66.13,1s.1.65.18,1l.24,1,.31.92c.09.31.24.6.36.9a8.62,8.62,0,0,0,.43.86,10,10,0,0,0,3.23,3.62,11.32,11.32,0,0,0,4.49,1.74,20.39,20.39,0,0,0,9.86-.88c6.49-2.06,12.52-5.81,18-10.07,1.36-1.1,2.67-2.18,4-3.4s2.6-2.34,3.79-3.58a45.34,45.34,0,0,0,3.36-3.83,19.13,19.13,0,0,0,2.49-4c.6-1.36.53-2.4.17-2.87-.12-.13-.27-.27-.81-.31a5.7,5.7,0,0,0-1.92.33A23.62,23.62,0,0,0,41,86.85a22.16,22.16,0,0,0-3.23,3.81,8.82,8.82,0,0,0-1.64,4.24,3.35,3.35,0,0,0,2,3.23,12.72,12.72,0,0,0,4.76,1.24c7,.79,13.92-1.34,20.24-4.46a95.77,95.77,0,0,0,9.25-5.26c1.5-1,3-1.93,4.48-2.91s3-2,4.39-3A151.94,151.94,0,0,0,97.9,70.51a56.52,56.52,0,0,0,6.86-7.72c1.92-2.73,3.84-5.87,4.09-8.49a3.47,3.47,0,0,0,0-.91c0-.14,0-.28,0-.42a3.62,3.62,0,0,1-.13-.35.55.55,0,0,0-.14-.32c-.06-.1-.12-.2-.17-.3s-.27-.37-.51-.49a5.89,5.89,0,0,0-3.59-.9,16.11,16.11,0,0,0-8.6,3.19,40.61,40.61,0,0,0-7.43,6.73A75.16,75.16,0,0,0,82,68.76a93.4,93.4,0,0,0-5.18,9c-.77,1.54-1.5,3.14-2.18,4.71s-1.26,3.17-1.78,4.79A31,31,0,0,0,71.26,97c0,3.19,1,6.09,3.3,7.89a12.13,12.13,0,0,0,8.71,2.5A33.08,33.08,0,0,0,93.16,105l1.21-.48.88-.36.27-.12.54-.24,1.08-.48c.72-.33,1.42-.68,2.14-1,0,0,1.69-.76,3.93-1.91s5-2.72,7.28-4.08c3.81-2.34,4.92-3.09,4.57-2.78L110.7,97c.24-.16-2.39,1.86-5.16,3.85-1.38,1-2.81,2-3.89,2.7l-1.83,1.18c-.69.41-1.38.81-2.09,1.2-.35.2-.71.38-1.06.57l-.27.14-.7.36-1.21.6a46,46,0,0,1-5,2,23.27,23.27,0,0,1-11.22,1.22,14.6,14.6,0,0,1-5.6-2.24,13.21,13.21,0,0,1-4.2-4.65,17.47,17.47,0,0,1-1.66-5.84,27.72,27.72,0,0,1,.09-5.76,45.94,45.94,0,0,1,2.73-10.76A83.74,83.74,0,0,1,79.92,62.51,59.15,59.15,0,0,1,87.1,54.2a35.21,35.21,0,0,1,9.23-6.53c.9-.4,1.86-.75,2.79-1.1a23.4,23.4,0,0,1,3-.58,13.73,13.73,0,0,1,6.33.59,12,12,0,0,1,1.61.79,7.8,7.8,0,0,1,1.45,1.24q.33.36.63.75c.17.28.33.56.48.85a7.73,7.73,0,0,1,.64,1.8,11.11,11.11,0,0,1-.94,6.45,30.17,30.17,0,0,1-2.84,4.93c-.53.76-1.07,1.52-1.66,2.22S106.64,67,106,67.71A65.19,65.19,0,0,1,98,75c-5.64,4.43-11.66,8.1-17.61,11.89-6.06,3.58-12.05,7.35-18.55,10.24a50.32,50.32,0,0,1-10.14,3.38,31.19,31.19,0,0,1-5.36.68,29,29,0,0,1-5.43-.12A10.14,10.14,0,0,1,35.5,99a5.45,5.45,0,0,1-1.74-2.82,7.31,7.31,0,0,1,0-3.19,15.88,15.88,0,0,1,2.35-5.3,28.83,28.83,0,0,1,3.55-4.32A29.64,29.64,0,0,1,44,79.79a16.78,16.78,0,0,1,5.39-2.54,6.91,6.91,0,0,1,3.72.06A4.74,4.74,0,0,1,55,78.53a5.33,5.33,0,0,1,1.16,1.83,6.93,6.93,0,0,1,.27,3.8,12.51,12.51,0,0,1-1.08,3,35.53,35.53,0,0,1-7,8.8c-.65.63-1.33,1.25-2,1.86s-1.32,1.16-2,1.75c-1.37,1.18-2.79,2.32-4.25,3.38a67.58,67.58,0,0,1-9.2,5.72,46.26,46.26,0,0,1-10.21,3.9c-.89.25-1.83.34-2.74.52s-1.86.17-2.79.24a21.65,21.65,0,0,1-5.61-.67,13.64,13.64,0,0,1-5.13-2.57,11.9,11.9,0,0,1-3.34-4.59,7.35,7.35,0,0,1-.38-1c-.1-.34-.23-.68-.3-1l-.23-1L.1,101.36c0-.35,0-.7-.08-1a9.37,9.37,0,0,1,0-1.06A18.13,18.13,0,0,1,.13,97.17Z"/></g></g></g></g></svg>