<svg height="512" viewBox="0 0 61 44" width="512" xmlns="http://www.w3.org/2000/svg"><g id="Page-1" fill="none" fill-rule="evenodd"><g id="008---Yoga-Mat" fill="rgb(0,0,0)" fill-rule="nonzero" transform="translate(-1 -1)"><path id="Shape" d="m60.05 20.05h-16.582c.9839463-1.8304054 1.5096172-3.8720122 1.532-5.95.0518393-4.72671055-2.4741052-9.10668491-6.5912227-11.42914547-4.1171176-2.32246056-9.1721995-2.21893311-13.1907773.27014547-.8387554.49879797-1.6166487 1.0934601-2.318 1.772l-18.1 18.087c-3.71721726 3.7207244-4.82789965 9.3138984-2.81437397 14.1726234 2.01352569 4.8587251 6.75495442 8.0266999 12.01437397 8.0273766h23c.2651948-.0000566.5195073-.1054506.707-.293 1.613-1.614 5.938-5.915 10.481-10.436 5.06-5.032 10.393-10.338 12.569-12.514.2859079-.2859943.3714219-.7160366.216678-1.0896546-.1547439-.3736179-.5192821-.6172591-.923678-.6173454zm-35.743-13.912c.5868615-.5665932 1.2371656-1.06354898 1.938-1.481 4.3272033-2.69959293 9.9446735-2.05750796 13.5510907 1.54890927 3.6064173 3.60641723 4.2485022 9.22388743 1.5489093 13.55109073-.4170343.6909092-.9071879 1.3349482-1.462 1.921l-13.216 13.222c.2182223-.9513228.3299095-1.9239742.333-2.9-.008266-7.1762751-5.8237249-12.991734-13-13-.9760302.0030159-1.9486898.1147041-2.9.333zm-21.307 25.862c-.01020281-2.9198693 1.14820901-5.7224553 3.217-7.783h.005c3.71229346-3.7140832 9.5312519-4.2885565 13.8981429-1.372086 4.366891 2.9164704 6.0654339 8.5115798 4.0568415 13.3634963s-7.1648805 7.6092685-12.3154048 6.5857271c-5.15052422-1.0235413-8.86074393-5.542896-8.8615796-10.7941374zm43.778.854c-4.295 4.271-8.39 8.346-10.192 10.146h-15.662c.8233422-.5133542 1.5867451-1.1170999 2.276-1.8l18.113-18.13c.308027-.3244838.5987625-.6649547.871-1.02h15.449c-2.644 2.636-6.833 6.805-10.855 10.804z"/><path id="Shape" d="m17 32c0-1.6568542-1.3431458-3-3-3s-3 1.3431458-3 3 1.3431458 3 3 3 3-1.3431458 3-3zm-4 0c0-.5522847.4477153-1 1-1s1 .4477153 1 1-.4477153 1-1 1-1-.4477153-1-1z"/><path id="Shape" d="m15 25c0-.5522847-.4477153-1-1-1-4.41622192.0049599-7.99504012 3.5837781-8 8 0 .5522847.44771525 1 1 1s1-.4477153 1-1c.00330738-3.3123376 2.6876624-5.9966926 6-6 .5522847 0 1-.4477153 1-1z"/><path id="Shape" d="m21 31c-.5522847 0-1 .4477153-1 1-.0033074 3.3123376-2.6876624 5.9966926-6 6-.5522847 0-1 .4477153-1 1s.4477153 1 1 1c4.4162219-.0049599 7.9950401-3.5837781 8-8 0-.2652165-.1053568-.5195704-.2928932-.7071068s-.4418903-.2928932-.7071068-.2928932z"/></g></g></svg>