<svg xmlns="http://www.w3.org/2000/svg" width="30" height="30" viewBox="0 0 30 30"><defs><style>.cls-1{fill:#191919;}</style></defs><g id="圖層_2" data-name="圖層 2"><g id="圖層_1-2" data-name="圖層 1"><path id="Path_99" data-name="Path 99" class="cls-1" d="M30,27.36l-6.23-6.23a12.87,12.87,0,0,0,2.65-7.92A13.14,13.14,0,0,0,13.37,0h-.16A13.12,13.12,0,0,0,0,13v.17A13.14,13.14,0,0,0,13,26.42h.17a12.87,12.87,0,0,0,7.92-2.65L27.36,30ZM3.77,13.21A9.35,9.35,0,0,1,13,3.77h.19A9.34,9.34,0,0,1,22.64,13v.19a9.34,9.34,0,0,1-9.25,9.43h-.18a9.35,9.35,0,0,1-9.44-9.25Z"/></g></g></svg>