<svg width="40" height="40" viewBox="0 0 30 30" fill="none" xmlns="http://www.w3.org/2000/svg">
<path d="M13.1058 29.0909C11.1535 29.1072 9.20978 28.7679 7.33622 28.0837C5.8694 27.5776 4.49715 26.7157 3.29809 25.5475C2.16939 24.4805 1.3129 23.0289 0.832153 21.3682C0.538333 20.2683 0.437737 19.1025 0.537184 17.9498C0.696622 16.2451 1.12679 14.597 1.8026 13.1016C3.04583 10.1029 4.86092 7.5306 7.08845 5.61049C8.27451 4.6391 9.52826 3.80258 10.8346 3.11101C11.4245 2.77652 12.0498 2.48614 12.6634 2.19576C12.7706 2.15173 12.8864 2.15173 12.9937 2.19576C13.0409 2.19576 13.097 2.23252 13.0999 2.30603C13.1029 2.37955 13.0468 2.40528 12.9996 2.42366C12.7124 2.52742 12.4298 2.65012 12.1531 2.79123C10.688 3.5157 9.27076 4.38214 7.91436 5.3826C6.05519 6.84589 4.48121 8.80728 3.30694 11.124C2.5035 12.6254 1.88507 14.2683 1.47224 15.998C1.08455 17.5764 1.06002 19.2587 1.40144 20.8536C1.7399 22.3319 2.39207 23.669 3.28924 24.7241C4.40449 26.0362 5.74373 27.0164 7.20643 27.5912C8.35591 28.0624 9.54253 28.3791 10.7461 28.5358C11.7969 28.6798 12.8543 28.7339 13.9111 28.6976C16.894 28.6511 19.8338 27.8036 22.5301 26.2128C26.1169 24.0735 28.3941 20.5559 29.4029 15.8032C30.1255 12.4436 29.5149 9.36706 27.8159 6.63234C26.7331 4.93478 25.3608 3.55868 23.7984 2.60377C22.3298 1.66815 20.7454 1.04688 19.1114 0.765915C18.0365 0.575365 16.9471 0.54698 15.8667 0.681374C14.4585 0.824467 13.0646 1.13714 11.7047 1.615C10.6787 1.96024 9.7017 2.50081 8.80812 3.21761C8.32161 3.63802 7.87874 4.13187 7.4896 4.68789C7.44262 4.75575 7.38063 4.80485 7.31138 4.82904C7.24213 4.85323 7.16869 4.85144 7.10024 4.82389C6.98226 4.79448 6.97046 4.732 7.0442 4.61805C7.52095 3.85673 8.09975 3.20386 8.75502 2.68831C9.6602 2.02893 10.6311 1.52099 11.6428 1.17759C12.9409 0.714559 14.2696 0.397183 15.6131 0.229263C19.5271 -0.340353 23.467 0.986108 26.6183 3.93437C28.3292 5.51053 29.5737 7.74758 30.158 10.297C30.7046 12.6968 30.5936 15.2552 29.8424 17.5675C28.7631 21.1431 26.6623 24.0961 23.943 25.8599C21.761 27.3226 19.3932 28.3062 16.9434 28.7674C15.6743 29.0049 14.392 29.1155 13.1088 29.0982" fill="#DC3E00"/>
</svg>
