<svg xmlns="http://www.w3.org/2000/svg" width="20" height="20" viewBox="0 0 20 20"><defs><style>.cls-1{opacity:0.75;}.cls-2{fill:none;}.cls-3{fill:#e8a439;}</style></defs><g id="圖層_2" data-name="圖層 2"><g id="圖層_1-2" data-name="圖層 1"><g id="Polygon_1" data-name="Polygon 1" class="cls-1"><path class="cls-2" d="M10,0l2.36,7.64H20l-6.18,4.72L16.18,20,10,15.28,3.82,20l2.36-7.64L0,7.64H7.64Z"/><path class="cls-3" d="M10,3.54,8.64,8l-.23.73H3.09l3.72,2.84.58.45-.21.7-1.39,4.5,3.57-2.73L10,14l.63.48,3.58,2.73-1.39-4.5L12.6,12l.58-.45L16.9,8.68H11.59L11.36,8,10,3.54M10,0l2.36,7.64H20l-6.18,4.72L16.18,20,10,15.27,3.82,20l2.36-7.63L0,7.64H7.64Z"/></g></g></g></svg>