<svg xmlns="http://www.w3.org/2000/svg" xmlns:xlink="http://www.w3.org/1999/xlink"  width="114" height="16" viewBox="0 0 109.48 19.04"><defs><style>.cls-1,.cls-4{fill:none;}.cls-2{clip-path:url(#clip-path);}.cls-3{fill:#f2a200;}.cls-4{stroke:#f2a200;stroke-miterlimit:10;}</style><clipPath id="clip-path" transform="translate(0 1.69)"><rect class="cls-1" width="114" height="16"/></clipPath></defs><g id="圖層_2" data-name="圖層 2"><g id="圖層_1-2" data-name="圖層 1"><g class="cls-2"><g id="stars"><g id="star"><path id="Polygon_1" data-name="Polygon 1" class="cls-3" d="M8,0,9.89,6.11H16L11.06,9.89,12.94,16,8,12.22,3.06,16,4.94,9.89,0,6.11H6.11Z" transform="translate(0 1.69)"/></g><g id="star-2"><path id="Polygon_1-2" data-name="Polygon 1-2" class="cls-3" d="M31,0l1.89,6.11H39L34.06,9.89,35.94,16,31,12.22,26.06,16l1.88-6.11L23,6.11h6.11Z" transform="translate(0 1.69)"/></g><g id="star-3"><path id="Polygon_1-3" data-name="Polygon 1-3" class="cls-4" d="M54,0l1.89,6.11H62L57.06,9.89,58.94,16,54,12.22,49.06,16l1.88-6.11L46,6.11h6.11Z" transform="translate(0 1.69)"/></g><g id="star-4"><path id="Polygon_1-4" data-name="Polygon 1-4" class="cls-4" d="M77,0l1.89,6.11H85L80.06,9.89,81.94,16,77,12.22,72.06,16l1.88-6.11L69,6.11h6.11Z" transform="translate(0 1.69)"/></g><g id="star-5"><path id="Polygon_1-5" data-name="Polygon 1-5" class="cls-4" d="M100,0l1.89,6.11H108l-4.94,3.78L104.94,16,100,12.22,95.06,16l1.88-6.11L92,6.11h6.11Z" transform="translate(0 1.69)"/></g></g></g></g></g></svg>