<svg xmlns="http://www.w3.org/2000/svg" viewBox="0 0 24.61 18.03"><defs><style>.cls-1{fill:#fff;}</style></defs><g id="圖層_2" data-name="圖層 2"><g id="圖層_1-2" data-name="圖層 1"><g id="Page-1"><g id="_008---Yoga-Mat" data-name="008---Yoga-Mat"><path id="Shape" class="cls-1" d="M24.2,7.81H17.41A5.31,5.31,0,0,0,9.93.8,4.76,4.76,0,0,0,9,1.52L1.56,8.93A5.33,5.33,0,0,0,5.33,18h9.43a.4.4,0,0,0,.29-.12l4.29-4.27,5.15-5.13a.4.4,0,0,0,.09-.45A.41.41,0,0,0,24.2,7.81ZM9.55,2.11a3.94,3.94,0,0,1,.8-.61,4.49,4.49,0,0,1,6.19,6.19,5,5,0,0,1-.6.79l-5.42,5.41a5.21,5.21,0,0,0,.14-1.18,5.35,5.35,0,0,0-6.52-5.2ZM.82,12.71A4.48,4.48,0,0,1,2.14,9.52h0A4.51,4.51,0,1,1,.82,12.71Zm17.94.35-4.17,4.15H8.17a5.08,5.08,0,0,0,.93-.73l7.42-7.43q.19-.21.36-.42h6.33Z"/><path id="Shape-2" data-name="Shape" class="cls-1" d="M6.56,12.71a1.23,1.23,0,1,0-1.23,1.22A1.23,1.23,0,0,0,6.56,12.71Zm-1.64,0a.41.41,0,0,1,.82,0,.41.41,0,0,1-.82,0Z"/><path id="Shape-3" data-name="Shape" class="cls-1" d="M5.74,9.84a.41.41,0,0,0-.41-.41,3.28,3.28,0,0,0-3.28,3.28.42.42,0,0,0,.41.41.41.41,0,0,0,.41-.41,2.46,2.46,0,0,1,2.46-2.46A.41.41,0,0,0,5.74,9.84Z"/><path id="Shape-4" data-name="Shape" class="cls-1" d="M8.2,12.3a.41.41,0,0,0-.41.41,2.46,2.46,0,0,1-2.46,2.45.41.41,0,0,0-.41.41.41.41,0,0,0,.41.41,3.27,3.27,0,0,0,3.28-3.27.38.38,0,0,0-.12-.29A.4.4,0,0,0,8.2,12.3Z"/></g></g></g></g></svg>