<svg xmlns="http://www.w3.org/2000/svg" viewBox="0 0 186.48 203.16"><defs><style>.cls-1{fill:#333;}</style></defs><g id="圖層_2" data-name="圖層 2"><g id="圖層_1-2" data-name="圖層 1"><path class="cls-1" d="M87.77,188c-4.5,0-10.66-.32-18.6-.63-11.28-.52-24-1.15-34.17-.73l-.1-2.09c10.24-.42,23.09.21,34.37.73,12,.52,23.41,1,25.5,0,.73-.42,2.09-1.25,2.09-2.19,0-1.15-2.09-2.51-3.14-3.14-3.13-.1-32.28-1.15-34.69-1.36a16.13,16.13,0,0,0-2.4-.1c-4.7-.21-13.27-.52-15.15-6.38-2.3-9-3.65-24.76-.73-25.7.63-.21,1.46-.1,2.09,1.47l.1.2v.21c-.1,3.66.84,6.27,2.62,7.94,2.92,2.82,8,2.41,11,2.09,1.67-.1,2.61-.21,3.13.21a16.71,16.71,0,0,1,1.57,1.36,10.56,10.56,0,0,0,1.15.94c1.36-4.49,3.45-5.12,5.54-5.75a7.11,7.11,0,0,0,3.76-2.19,12.83,12.83,0,0,0,4-9.09,13.36,13.36,0,0,0-4.5-9.3l-.41-.31c-2.93-2.3-5-4-12.54-4.08a23.9,23.9,0,0,0-12.85,3.35l-1.46.83-.11-1.67s-.42-4.91-1.15-10.55c-1-8.26-2-11.39-2.61-12.64-8.46-14-4.18-19.86-1.15-24.14l.21-.21C58.72,68.9,59.87,60.54,60.71,55a11,11,0,0,0,.21-1.67L61,53C65.09,45,84,27.63,90.48,27.11h.42l.32.31c17.65,14.63,34.58,16.19,43.67,17,4.28.42,6.58.63,7.63,1.88l.1.1.1.21c1.57,4.81,3.77,7.73,6.38,8.47a6.09,6.09,0,0,0,5.22-1.36c5.12-4,9.4-3.55,13.27-3.24,1.36.1,2.51.21,3.76.21h.21c6.27-.42,11.28-.84,12.33-2.2a1.5,1.5,0,0,0,.21-.94c-.84-3.76-2-4-8.15-4.8l-1.88-.32c-11.91-1.25-27.58-7.21-46.5-18-14-7.94-24.65-15.67-24.76-15.67l1.26-1.67c.41.31,42.42,30.4,70.42,33.22l2,.32c6.17.94,8.67,1.25,9.93,6.48a3.15,3.15,0,0,1-.53,2.61c-1.67,2.09-6.26,2.4-13.79,2.92h-.21a16.8,16.8,0,0,1-4.07-.21c-3.76-.31-7.31-.62-11.81,2.83a7.94,7.94,0,0,1-7.1,1.77c-2.2-.63-5.33-2.82-7.63-9.61-.73-.52-3.45-.73-6.06-1-9.3-.83-26.43-2.5-44.51-17.24C85,30.34,67.5,46,63.42,53.75c-.1.42-.1.94-.21,1.46C62.38,61.06,61.12,69.94,41,86.56c-2.93,4-6.37,9,1.36,21.83,1,2.09,2,6.37,2.82,13.38.52,3.76.83,7.2.94,9.09a26.07,26.07,0,0,1,12.54-2.93c8.15.1,10.65,2.09,13.79,4.6l.42.31a15.73,15.73,0,0,1,5.22,10.76c.11,3.76-1.36,7.32-4.49,10.55a8.88,8.88,0,0,1-4.7,2.72c-1.88.52-3.24.94-4.29,5a1.74,1.74,0,0,1-.73,1.15c-.94.41-2-.42-3.55-1.89a9.75,9.75,0,0,0-1.26-1,14.9,14.9,0,0,0-1.88.1c-3.34.32-9,.74-12.64-2.71a10.09,10.09,0,0,1-2.92-5.75,73.83,73.83,0,0,0,2.3,19.43c1.35,4.5,9.09,4.71,13.26,4.92a16.2,16.2,0,0,1,2.62.2c2,.21,23.61,1,34.68,1.36h.21l.21.11c.42.21,4.49,2.19,4.6,5,0,1.57-1,2.93-3.24,4.18C94.56,187.8,91.84,188,87.77,188Z"/><path class="cls-1" d="M92.57,203.16c-1.77,0-4.7-.84-9.3-2.2-5.74-1.67-13-3.86-16.82-3.13l-.83.21c-6,1.15-24,4.7-38.87,4.38a13.88,13.88,0,0,0-2-.1c-1.78,0-3.87,0-5.33-1.67-1.68-1.88-2.3-5.43-2-11.49-.21-3.45.73-17.87,1.67-31.87.63-9.61,1.26-18.7,1.26-22a15.55,15.55,0,0,1,5.74-11.49c3.35-2.61,7.63-3.24,12.54-2h.11a10.29,10.29,0,0,1,6.06,5.54c2.09,4.81,1,11.81-3,21-7.32,16.62-5.12,37.62-5.12,37.83l-2.09.2c-.11-.83-2.3-21.73,5.32-38.86,3.77-8.67,4.81-15.15,3-19.33a8,8,0,0,0-4.8-4.39c-4.28-1-7.94-.52-10.76,1.67a13.61,13.61,0,0,0-4.91,9.93c-.11,3.45-.63,12.54-1.26,22.15-.83,13.37-1.88,28.42-1.67,31.66v.2c-.31,5.33.11,8.68,1.36,10,.84.94,2,.94,3.87.94a13.19,13.19,0,0,1,2.08.11c14.63.31,32.5-3.14,38.35-4.28l.94-.21c4.39-.73,11.49,1.35,17.76,3.24,3.66,1,8.26,2.4,9.09,2.08l.21-.1c3.66-1.57,5.64-2.72,5.85-3.34.11-.32-.63-1.15-.83-1.47C95,194.07,81.6,190.2,76.69,189l.52-2c.74.21,18.29,4.81,22.36,7.84l.11.1c.83.94,1.77,2.09,1.46,3.35-.31,1.56-2.09,2.71-6.89,4.8C93.72,203.05,93.2,203.16,92.57,203.16Z"/><path class="cls-1" d="M20.48,149.45c-.21,0-6.06-.21-11.49-6.37S-2.19,123.44.84,94.81V94.6l.1-.21a123,123,0,0,0,9.82-24.55c.53-1.46,1.05-2.72,1.47-4C14.84,58,17.35,50.72,39.81,30.24l.1-.1c3.24-2.3,6.38-4.71,9.41-7.11C57,17.08,64.89,10.91,75,6.52c1.57-.73,3-1.56,4.49-2.4,6.9-4,14-8,24.45,3.13l-1.57,1.47C93.1-1.21,87.24,2.13,80.56,6c-1.57.84-3.14,1.78-4.7,2.51C66,12.79,58.2,18.85,50.68,24.7c-3,2.41-6.27,4.81-9.51,7.11-22,20.06-24.35,26.85-27,34.68a35.93,35.93,0,0,1-1.46,4C9.51,81.54,5,91.36,2.82,95.12c-2.92,27.69,2.51,40.54,7.53,46.39,4.8,5.54,9.92,5.75,10,5.75Z"/><path class="cls-1" d="M72.83,134.09l-2.09-.31c.73-5.22,0-9-2.2-11.39-2.82-2.92-7.1-2.71-7.94-2.61-8.88,1.46-7.83,9.82-7.73,10.24l-2.09.31c0-.1-1.36-10.76,9.61-12.54,1.47-.1,6.38-.31,9.72,3.24C72.72,123.85,73.66,128.24,72.83,134.09Z"/><rect class="cls-1" x="80.34" y="16.13" width="29.67" height="2.09" transform="translate(75.22 111.81) rotate(-88.32)"/><rect class="cls-1" x="26.59" y="57.39" width="2.09" height="34.37" transform="translate(-48.42 51.32) rotate(-52.66)"/><rect class="cls-1" x="21.19" y="71.67" width="2.09" height="30.72" transform="translate(-67.58 85.28) rotate(-74.55)"/><rect class="cls-1" x="58.32" y="129.03" width="2.09" height="33.12" transform="translate(-96.73 164.38) rotate(-74.68)"/></g></g></svg>