<svg xmlns="http://www.w3.org/2000/svg" viewBox="0 0 225.31 238.31"><defs><style>.cls-1{fill:#333;}</style></defs><g id="圖層_2" data-name="圖層 2"><g id="圖層_1-2" data-name="圖層 1"><path class="cls-1" d="M207.71,101.51a2.2,2.2,0,0,1-.8-.1c-1.4-.5-1.9-2.2-2.4-3.9-.2-.7-.6-2-1-2.2-.6,0-2-.1-6.8-.5-15.5-1.4-51.6-4.6-68.6-2a2.25,2.25,0,0,1-2.1-.4c-1.9-1.3-4.2-5.3-3.7-9.5.4-2.8,2.1-6.5,8.3-8.7h0c14.1-5,66.8,9.3,73.1,11.3.3,0,.7-.1,1.1-.1,3.5-.4,8.9-1,15.8,5.1a14.25,14.25,0,0,0,2.7,2.1c1,.7,1.9,1.2,2,2.3s-1,2.1-2.8,3.5l-.2.1c-2,1-4.3,1-6.5,1-2.5,0-4.9,0-6.6,1.5l-.2.1A2.84,2.84,0,0,1,207.71,101.51Zm-4.1-8.3h0c1.6.2,2.2,1.9,2.7,3.7.3,1,.8,2.4,1.2,2.6a1.09,1.09,0,0,0,.5-.1c2.3-2,5.1-2,7.8-2a12.27,12.27,0,0,0,5.5-.8,8.75,8.75,0,0,0,1.9-1.7,8.65,8.65,0,0,0-1-.7,13.53,13.53,0,0,1-3-2.4c-6.2-5.4-10.8-4.9-14.2-4.5a6.6,6.6,0,0,1-1.4.1h-.2l-.2-.1c-8-2.6-59.1-16-72-11.4-6.3,2.3-7.3,6.2-6.9,9.1.4,3.3,2.4,5.6,3.1,5.8h.3c17.1-2.7,53.6.5,69.2,1.9,3.3.3,6.2.6,6.6.5Z"/><path class="cls-1" d="M177.21,80.11c0-.1-3.9-9.1-12.6-10.1-2.6-.5-3.1-1.8-3.3-2.9a4.32,4.32,0,0,1-2.1,1.2,3.58,3.58,0,0,1-2.2-.2c-3.2-.6-9.2-1.9-13.3,6.5l-1.8-.9c4.8-9.7,12.3-8.2,15.5-7.6a9.64,9.64,0,0,0,1.2.2,5.4,5.4,0,0,0,2-1.4c.4-.4.8-.9,1.5-.8.2,0,.6.2.9.8a11.15,11.15,0,0,1,.3,1.3c.2,1.1.2,1.5,1.7,1.7,9.8,1.2,14,10.9,14.1,11.3Z"/><path class="cls-1" d="M142,238.21c-1,0-2.9-.4-3.8-3.5-4.6-12.6-11.9-24.2-16.8-31.9-1.9-3-3.4-5.4-4.3-7.1-30.3-37.8-43.2-63.2-45-67.9-10-33.7,3.8-48.4,17.1-54.9,26-16.9,46,.2,46.2.4l-1.3,1.5c-.8-.7-19.1-16.3-43.8-.2l-.1.1c-18.1,8.7-23.7,26.9-16.1,52.4,1.7,4.6,14.5,29.8,44.7,67.4l.1.2c.8,1.6,2.3,4,4.2,7,4.9,7.8,12.3,19.5,17,32.3.4,1.5,1.2,2.3,2.1,2.2a1.71,1.71,0,0,0,1.5-1.6c0-.3-.1-.9-.1-2.2-.4-16.6-2.8-25.3-7.2-25.9h-.2l-.1-.1c-4.6-2.3-5.5-8.5-6-11.5-.1-.5-.2-1-.2-1.1s0-.1-.1-.3c-1.7-5.2-8.4-23.3-22.4-38.5-8.4-11-8.8-28.2-8.6-30.1.1-.5.3-1.3.6-2.6a114.42,114.42,0,0,0,3.2-19.7c.3-4.1,1.6-7.1,3.8-8.9,3.2-2.6,7.5-2.1,9.5-1.8.4,0,.6.1.9.1a23.1,23.1,0,0,0,3.2-.4c1.3-.2,2.7-.5,4.4-.7a21.12,21.12,0,0,1,2.6-.2v2a21.05,21.05,0,0,0-2.5.2,35.13,35.13,0,0,0-4.3.7,12.64,12.64,0,0,1-3.7.4c-.3,0-.6-.1-1-.1-1.9-.2-5.5-.7-8,1.4-1.8,1.5-2.8,4-3.1,7.5a117.54,117.54,0,0,1-3.2,20,11.27,11.27,0,0,0-.5,2.4c-.2,1.8.2,18.2,8.1,28.6,14.2,15.4,21,33.9,22.7,39.2l.1.2a7.42,7.42,0,0,1,.3,1.6c.4,2.6,1.2,8,4.8,9.9,7.3,1.2,8.5,16.4,8.8,27.8a9.27,9.27,0,0,0,.1,2v.2a3.75,3.75,0,0,1-3.3,3.6C142.31,238.21,142.21,238.21,142,238.21Z"/><path class="cls-1" d="M71.41,123.41c-4.6-.6-16.1-6.4-20-19.2-20.2-35.9-41.6-70.7-45.7-76.9-3.6-2.2-5.5-4.5-5.7-7-.2-3.8,3.5-6.7,6.5-9.1.3-.3.7-.5,1-.8,6-8.1,11-11.3,15.7-10.2l.2.1a3.9,3.9,0,0,1,2.4,2.6c.2,1.5-1.3,2.7-2.9,4a23.77,23.77,0,0,0-3.6,3.5c-2.5,4-2.1,9.5-2,12.2,0,.7.1,1.1.1,1.4,1.1,3.2,13.8,22,23.1,30,13.3,10.4,31.7,35.4,32.5,36.4l-1.6,1.2c-.2-.3-19.1-25.9-32.2-36.1-9.5-8.2-22.9-27.9-23.8-31.2l-.1-.2v-.2a6.82,6.82,0,0,0-.1-1.2c-.2-2.9-.6-8.9,2.3-13.4a16.87,16.87,0,0,1,4-4c.9-.7,2.3-1.8,2.2-2.3,0,0-.1-.4-1.2-.9-3.8-.9-8.3,2.2-13.6,9.5l-.2.2c-.4.3-.7.6-1.1.9-2.6,2.1-5.9,4.7-5.7,7.4.1,1.8,1.8,3.6,4.9,5.5l.2.1.1.2c3.8,5.6,25.5,40.9,45.9,77.3l.1.2c3.9,13.1,15.7,17.5,18.4,17.9Z"/><path class="cls-1" d="M158.91,98.71a16.55,16.55,0,0,1-3.2-.3,15.64,15.64,0,0,1-10.2-6.8l1.7-1.1-.8.5.8-.5a14.81,14.81,0,0,0,8.9,5.9c5,1,10.7-.8,16.9-5.2l1.2,1.6C168.81,96.71,163.61,98.71,158.91,98.71Z"/><path class="cls-1" d="M165.21,105.81a12.72,12.72,0,0,1-5.6-1.3,9.67,9.67,0,0,1-5.1-7.1l2-.3a7.09,7.09,0,0,0,4.1,5.6c2.6,1.4,5.8,1.3,7,.7a6.43,6.43,0,0,0,3.5-4,7.77,7.77,0,0,0-.9-5l1.7-1.1a9,9,0,0,1,1.2,6.5c-.5,2.2-2.1,3.9-4.6,5.3A6.46,6.46,0,0,1,165.21,105.81Z"/><rect class="cls-1" x="27.37" y="58.17" width="14.5" height="2" transform="translate(-25.39 26.02) rotate(-30.75)"/><path class="cls-1" d="M106.51,95.61c-11.5-5.7-19.2-20.2-19.6-20.8l1.8-.9c.1.1,7.8,14.5,18.7,19.9Z"/><path class="cls-1" d="M103.91,100.11c-11.9-1.7-18.3-6.8-21.5-10.8a19.65,19.65,0,0,1-4.2-8.5l2-.3c.1.6,2.6,14.6,24,17.6Z"/><path class="cls-1" d="M166.71,78.21l-1.1-1.7c1.2-.8,6.8-4.4,6.9-4.4l1.1,1.7C173.41,73.91,168,77.41,166.71,78.21Z"/><rect class="cls-1" x="100.24" y="168.48" width="17.8" height="2" transform="translate(-70.76 78.53) rotate(-30.4)"/></g></g></svg>