<svg xmlns="http://www.w3.org/2000/svg" viewBox="0 0 50 50"><defs><style>.cls-1{fill:#004a13;}</style></defs><g id="圖層_2" data-name="圖層 2"><g id="圖層_1-2" data-name="圖層 1"><g id="icon_-_search" data-name="icon - search"><path id="Path_99" data-name="Path 99" class="cls-1" d="M50,45.6,39.62,35.22A21.5,21.5,0,0,0,44,22,21.88,21.88,0,0,0,22.28,0H22A21.88,21.88,0,0,0,0,21.74V22A21.89,21.89,0,0,0,21.74,44H22a21.62,21.62,0,0,0,13.21-4.4L45.6,50ZM6.29,22A15.56,15.56,0,0,1,21.71,6.29H22A15.58,15.58,0,0,1,37.74,21.71V22A15.58,15.58,0,0,1,22.32,37.74H22A15.57,15.57,0,0,1,6.29,22.32Z"/></g><g id="button_-_add_-_big" data-name="button - add - big"><g id="Group_1139" data-name="Group 1139"><rect id="Rectangle_1104" data-name="Rectangle 1104" class="cls-1" x="20" y="10" width="4" height="24"/><rect id="Rectangle_1106" data-name="Rectangle 1106" class="cls-1" x="10" y="20" width="24" height="4"/></g></g></g></g></svg>