<?xml version="1.0" encoding="utf-8"?>
<!-- Generator: Adobe Illustrator 25.0.0, SVG Export Plug-In . SVG Version: 6.00 Build 0)  -->
<svg version="1.1" id="圖層_1" xmlns="http://www.w3.org/2000/svg" xmlns:xlink="http://www.w3.org/1999/xlink" x="0px" y="0px"
	 viewBox="0 0 120 60" style="enable-background:new 0 0 120 60;" xml:space="preserve">
<style type="text/css">
	.st0{clip-path:url(#SVGID_2_);}
	.st1{fill:#FDEBCA;}
	.st2{fill:#333333;}
	.st3{fill:none;stroke:#004A13;stroke-miterlimit:10;}
</style>
<g id="圖層_2_1_">
	<g id="圖層_1-2">
		<g>
			<defs>
				<rect id="SVGID_1_" width="120" height="60"/>
			</defs>
			<clipPath id="SVGID_2_">
				<use xlink:href="#SVGID_1_"  style="overflow:visible;"/>
			</clipPath>
			<g class="st0">
				<rect class="st1" width="120" height="60"/>
				<path class="st2" d="M26.8,27.3l1.4,5.8l-1.1,0.4c0.1-0.2,0.1-0.3,0.2-0.5c0.1-0.2,0.2-0.3,0.4-0.4c0.3-0.3,0.6-0.6,1-0.8
					c0.4-0.2,0.8-0.4,1.2-0.4c0.5,0,0.9,0,1.4,0.2c0.5,0.2,1,0.6,1.4,1c0.6,0.5,1,1.2,1.2,1.9c0.2,0.7,0.1,1.4-0.1,2.1
					c-0.4,1.3-1.3,2.3-2.6,2.8c-0.5,0.2-1.1,0.4-1.6,0.4l-0.4-1.7c0.4,0,0.8,0,1.2-0.1c0.4-0.1,0.8-0.4,1.1-0.7
					c0.3-0.3,0.5-0.7,0.6-1.1c0.1-0.4,0.1-0.8,0-1.2c-0.1-0.5-0.4-0.9-0.7-1.2c-0.4-0.5-1-0.7-1.6-0.8c-0.6,0-1.2,0.3-1.6,0.8
					c-0.2,0.2-0.4,0.4-0.6,0.7c-0.1,0.2-0.2,0.4-0.3,0.6h-0.1l-1.1-5l0.5-0.2l-3,3.1l-1.2-1.2L26.8,27.3z"/>
				<path class="st2" d="M51,31.6c-0.6,0.2-1.2,0.2-1.8,0.2c-0.6,0-1.1-0.2-1.6-0.4l0.5-1.6c0.3,0.2,0.7,0.3,1.1,0.4
					c0.4,0,0.8,0,1.2-0.1c0.4-0.1,0.7-0.3,1-0.6c0.3-0.3,0.5-0.6,0.5-1c0.1-0.4,0.1-0.8-0.1-1.2c-0.1-0.4-0.3-0.8-0.6-1.2
					c-0.3-0.3-0.6-0.5-1-0.6c-0.4-0.1-0.9-0.1-1.3,0.1c-0.3,0.1-0.6,0.3-0.9,0.5c-0.3,0.2-0.6,0.5-0.9,0.8l0,0l-1.8-6l5.4-1.6
					l0.5,1.6l-4,1.2l0.9,2.9l-0.3-0.3c0.2-0.1,0.4-0.3,0.6-0.4c0.2-0.1,0.4-0.2,0.7-0.2c0.7-0.2,1.4-0.3,2.1-0.1
					c0.6,0.2,1.2,0.5,1.6,1c0.4,0.5,0.8,1.1,0.9,1.7c0.2,0.7,0.2,1.4,0.1,2.1c-0.1,0.7-0.5,1.3-0.9,1.8C52.3,31.1,51.7,31.4,51,31.6
					z"/>
				<path class="st2" d="M78,30.9l-11.4,5.7l-1.4-1.3l10.1-4.9l0.3,0.6L71.1,27l1.1-1.2L78,30.9z"/>
				<path class="st2" d="M92.3,40.6c-0.7-0.2-1.4-0.6-1.9-1.1c-0.5-0.6-0.9-1.3-1-2c-0.2-0.9-0.1-1.7,0.2-2.6c0.2-0.7,0.5-1.4,1-2
					c0.5-0.6,1.1-1.1,1.7-1.6c0.7-0.5,1.4-0.9,2.2-1.2c0.8-0.3,1.5-0.6,2.3-0.9l0.8,1.5c-1,0.2-1.9,0.5-2.8,0.9
					c-0.7,0.3-1.4,0.8-2,1.4c-0.5,0.4-0.8,0.9-1.1,1.5l-0.4-0.2c0.4-0.5,1-0.9,1.7-1.1c0.7-0.2,1.4-0.2,2.1,0c0.6,0.2,1.1,0.5,1.5,1
					c0.4,0.5,0.7,1,0.9,1.7c0.3,1.4-0.1,2.9-1.2,3.9c-0.5,0.5-1.2,0.8-1.8,0.9C93.7,40.8,93,40.8,92.3,40.6z M92.7,39
					c0.4,0.1,0.8,0.1,1.2,0c0.4-0.1,0.8-0.3,1.1-0.6c0.3-0.3,0.5-0.7,0.7-1.1c0.2-0.8,0-1.7-0.7-2.3c-0.3-0.3-0.7-0.5-1.1-0.6
					c-0.4-0.1-0.8-0.1-1.2-0.1c-0.4,0.1-0.7,0.2-1,0.5c-0.3,0.2-0.5,0.6-0.6,0.9L91,36.2c-0.1,0.4-0.1,0.8,0,1.2
					c0.1,0.4,0.3,0.7,0.6,1C91.9,38.7,92.3,38.9,92.7,39z"/>
				<line class="st3" x1="107" y1="-10" x2="-14" y2="57"/>
				<line class="st3" x1="-52" y1="4" x2="137.6" y2="60"/>
				<line class="st3" x1="63.8" y1="-16.7" x2="102" y2="74"/>
			</g>
		</g>
	</g>
</g>
</svg>
