<?xml version="1.0" encoding="utf-8"?>
<!-- Generator: Adobe Illustrator 25.0.0, SVG Export Plug-In . SVG Version: 6.00 Build 0)  -->
<svg version="1.1" id="圖層_1" xmlns="http://www.w3.org/2000/svg" xmlns:xlink="http://www.w3.org/1999/xlink" x="0px" y="0px"
	 viewBox="0 0 120 60" style="enable-background:new 0 0 120 60;" xml:space="preserve">
<style type="text/css">
	.st0{clip-path:url(#SVGID_2_);}
	.st1{fill:#FDEBCA;}
	.st2{fill:#333333;}
	.st3{fill:none;stroke:#004A13;stroke-miterlimit:10;}
</style>
<g id="圖層_2_1_">
	<g id="圖層_1-2">
		<g>
			<defs>
				<rect id="SVGID_1_" width="120" height="60"/>
			</defs>
			<clipPath id="SVGID_2_">
				<use xlink:href="#SVGID_1_"  style="overflow:visible;"/>
			</clipPath>
			<g class="st0">
				<rect y="-0.1" class="st1" width="120" height="60"/>
				<path class="st2" d="M22.7,35.5L22.7,35.5l-0.3-11.6l0,0l5,6l1.2-1l0.9,1l-1.2,1l1.8,2.2l-1.4,1.1L26.9,32L22.7,35.5z
					 M23.7,27.9l0.2,5L23.6,33l2.5-2l-2.6-3.2L23.7,27.9z"/>
				<path class="st2" d="M44.6,29.4l3.1,0.2l-0.8,11.8l-1.7-0.1l0.7-10.1L44.5,31L44.6,29.4z"/>
				<path class="st2" d="M64.3,29.4c-0.6-0.4-1.1-0.8-1.5-1.4c-0.4-0.6-0.6-1.2-0.7-1.9c-0.1-0.7,0-1.5,0.2-2.1
					c0.2-0.8,0.5-1.6,1-2.3c0.5-0.7,1-1.4,1.7-2c0.5-0.5,1.2-0.8,1.8-1.1c0.6-0.2,1.3-0.2,1.9-0.1c0.7,0.1,1.3,0.4,1.9,0.8
					c0.6,0.4,1.1,0.8,1.5,1.4c0.4,0.6,0.6,1.2,0.7,1.9c0.1,0.7,0,1.5-0.2,2.2c-0.2,0.8-0.5,1.6-1,2.3c-0.5,0.7-1,1.3-1.7,1.9
					c-0.5,0.5-1.2,0.8-1.9,1.1c-0.6,0.2-1.3,0.3-2,0.2C65.5,30,64.8,29.8,64.3,29.4z M65.2,28c0.5,0.3,1.1,0.5,1.8,0.5
					c0.6-0.1,1.2-0.3,1.7-0.8c0.6-0.5,1.1-1.1,1.5-1.7c0.4-0.6,0.7-1.3,0.9-2.1c0.2-0.6,0.1-1.3-0.1-1.9c-0.5-1.2-1.7-2-3-1.9
					c-0.6,0.1-1.2,0.3-1.7,0.7c-1.2,1-2,2.3-2.4,3.8c-0.1,0.6-0.1,1.3,0.1,1.9C64.2,27.2,64.6,27.7,65.2,28z"/>
				<path class="st2" d="M92.7,27.6l-0.2,6l-1.2,0.1c0.1-0.2,0.2-0.3,0.4-0.4c0.1-0.1,0.3-0.2,0.5-0.3c0.4-0.2,0.8-0.4,1.2-0.5
					c0.9-0.2,1.8,0,2.5,0.5c0.5,0.4,0.8,0.8,1.1,1.3c0.8,1.3,0.8,2.9,0,4.2c-0.7,1.1-1.9,1.8-3.2,2c-0.6,0.1-1.1,0.1-1.7-0.1v-1.7
					c0.4,0.1,0.8,0.2,1.2,0.2c0.4,0,0.9-0.1,1.2-0.3c0.4-0.2,0.7-0.5,0.9-0.9c0.2-0.4,0.3-0.8,0.3-1.2c0-0.5-0.1-0.9-0.4-1.3
					c-0.3-0.5-0.8-0.9-1.4-1c-0.6-0.1-1.2,0-1.7,0.3c-0.3,0.1-0.5,0.3-0.7,0.5c-0.2,0.1-0.3,0.3-0.5,0.5H91l0.3-5.2l0.6-0.1
					l-3.8,2.2l-0.8-1.5L92.7,27.6z"/>
				<line class="st3" x1="-10" y1="27.6" x2="142.1" y2="41.4"/>
				<line class="st3" x1="97.6" y1="-15.4" x2="18.5" y2="93.3"/>
				<line class="st3" x1="-10" y1="-4" x2="147.5" y2="47.5"/>
			</g>
		</g>
	</g>
</g>
</svg>
