<?xml version="1.0" encoding="utf-8"?>
<!-- Generator: Adobe Illustrator 25.0.0, SVG Export Plug-In . SVG Version: 6.00 Build 0)  -->
<svg version="1.1" id="圖層_1" xmlns="http://www.w3.org/2000/svg" xmlns:xlink="http://www.w3.org/1999/xlink" x="0px" y="0px"
	 viewBox="0 0 120 60" style="enable-background:new 0 0 120 60;" xml:space="preserve">
<style type="text/css">
	.st0{clip-path:url(#SVGID_2_);}
	.st1{fill:#FDEBCA;}
	.st2{fill:#333333;}
	.st3{fill:none;stroke:#004A13;stroke-miterlimit:10;}
</style>
<g id="圖層_2_1_">
	<g id="圖層_1-2">
		<g>
			<defs>
				<rect id="SVGID_1_" width="120" height="60"/>
			</defs>
			<clipPath id="SVGID_2_">
				<use xlink:href="#SVGID_1_"  style="overflow:visible;"/>
			</clipPath>
			<g class="st0">
				<rect class="st1" width="120" height="60"/>
				<path class="st2" d="M24.8,35.2c-0.7-0.3-1.3-0.8-1.7-1.5c-0.4-0.6-0.6-1.4-0.6-2.1c0-0.9,0.2-1.7,0.6-2.5
					c0.3-0.7,0.8-1.3,1.4-1.8c0.6-0.5,1.3-0.9,2-1.2c0.8-0.3,1.5-0.6,2.3-0.8c0.8-0.2,1.6-0.3,2.4-0.4l0.5,1.6c-1,0-2,0.1-2.9,0.4
					c-0.8,0.2-1.5,0.6-2.2,1c-0.5,0.3-1,0.8-1.4,1.3L24.9,29c0.5-0.4,1.2-0.7,1.9-0.8c0.7-0.1,1.4,0.1,2,0.4c0.5,0.3,1,0.7,1.3,1.2
					c0.3,0.5,0.5,1.2,0.6,1.8c0,0.7-0.1,1.4-0.4,2c-0.3,0.7-0.8,1.2-1.5,1.6c-0.6,0.4-1.3,0.6-2,0.6C26.1,35.7,25.4,35.6,24.8,35.2z
					 M25.4,33.8c0.4,0.2,0.8,0.3,1.2,0.3c0.4,0,0.8-0.1,1.1-0.4c0.4-0.2,0.7-0.6,0.9-1c0.2-0.4,0.3-0.8,0.2-1.2
					c0-0.4-0.2-0.8-0.4-1.1c-0.3-0.3-0.6-0.6-1-0.8c-0.4-0.2-0.8-0.3-1.2-0.3c-0.4,0-0.8,0.1-1.1,0.3c-0.3,0.2-0.6,0.5-0.8,0.8
					l-0.1,0.3C24.1,31,24,31.4,24,31.8c0,0.4,0.2,0.8,0.4,1.1C24.7,33.3,25,33.6,25.4,33.8z"/>
				<path class="st2" d="M45.7,37.3c0-0.5,0-1,0.2-1.4c0.1-0.4,0.3-0.8,0.6-1.2c-0.4,0-0.8-0.1-1.2-0.3c-0.4-0.2-0.8-0.5-1-0.9
					c-0.3-0.4-0.4-0.9-0.4-1.4c0-0.5,0.2-1,0.4-1.4c0.3-0.5,0.7-0.9,1.2-1.1c0.5-0.3,1-0.5,1.6-0.6c0.5-0.1,1,0,1.5,0.2
					c0.4,0.2,0.8,0.5,1.1,0.9c0.3,0.4,0.4,0.8,0.4,1.3c0,0.4-0.1,0.8-0.3,1.2c0.4-0.1,0.9-0.1,1.3,0c0.5,0.1,0.9,0.2,1.3,0.5
					c0.5,0.3,0.9,0.7,1.1,1.2c0.4,0.6,0.6,1.2,0.6,1.9c0,0.7-0.2,1.4-0.5,2c-0.4,0.7-0.9,1.2-1.5,1.6c-0.6,0.4-1.4,0.6-2.1,0.7
					c-0.7,0-1.4-0.1-2-0.4C46.7,39.6,46,38.6,45.7,37.3L45.7,37.3z M48.7,38.7c0.4,0.2,0.8,0.3,1.2,0.3c0.4,0,0.8-0.1,1.2-0.3
					c0.4-0.2,0.7-0.6,0.9-1c0.2-0.4,0.3-0.8,0.3-1.2c0-0.4-0.1-0.8-0.4-1.2c-0.2-0.4-0.5-0.7-0.9-0.9c-0.4-0.2-0.8-0.3-1.2-0.3
					c-0.4,0-0.9,0.1-1.2,0.4c-0.4,0.2-0.7,0.5-0.9,0.9c-0.2,0.4-0.3,0.8-0.3,1.2C47.4,37.5,47.9,38.3,48.7,38.7L48.7,38.7z
					 M46.7,33.5c0.4,0.1,0.8,0,1.1-0.2c0.3-0.2,0.5-0.5,0.6-0.8c0.1-0.3,0-0.7-0.2-1c-0.2-0.3-0.5-0.6-0.9-0.7
					c-0.4-0.1-0.7,0-1.1,0.2c-0.3,0.2-0.6,0.5-0.7,0.9c-0.1,0.4,0,0.8,0.2,1.1C46,33.2,46.3,33.4,46.7,33.5L46.7,33.5z"/>
				<path class="st2" d="M72.5,26.8c-0.4,0.4-1,0.7-1.6,0.8c-0.6,0.1-1.3,0.1-1.9-0.1c-0.6-0.2-1.2-0.6-1.7-1.1
					c-1.1-1.1-1.5-2.6-1-4.1c0.2-0.7,0.6-1.3,1.1-1.8c0.5-0.5,1.2-0.9,1.9-1.1c0.7-0.2,1.4-0.2,2.1,0c0.7,0.2,1.4,0.6,1.9,1.2
					c0.6,0.6,1.1,1.4,1.4,2.2c0.3,0.8,0.4,1.6,0.4,2.5c0,0.9,0,1.8-0.2,2.6c-0.1,0.9-0.3,1.7-0.5,2.5l-1.7-0.1c0.3-1,0.6-2,0.8-3
					c0.1-0.8,0.2-1.6,0.1-2.4c0-0.6-0.2-1.2-0.6-1.7l0.4-0.4c0.2,0.6,0.2,1.3,0.1,2C73.4,25.7,73,26.3,72.5,26.8z M71.9,25.2
					c0.5-0.4,0.8-1,0.8-1.6c0.1-0.6-0.2-1.2-0.6-1.6l-0.2-0.2c-0.3-0.3-0.7-0.5-1.1-0.6c-0.4-0.1-0.8-0.1-1.2,0
					c-0.4,0.1-0.8,0.3-1.1,0.6c-0.3,0.3-0.5,0.6-0.7,1c-0.1,0.4-0.1,0.8,0,1.2c0.1,0.4,0.3,0.8,0.7,1.2c0.3,0.3,0.7,0.6,1.1,0.7
					c0.4,0.1,0.8,0.1,1.2,0C71.3,25.7,71.6,25.5,71.9,25.2z"/>
				<path class="st2" d="M87.3,34.1c1-0.5,1.9-0.9,2.8-1.3s1.7-0.9,2.5-1.4c0.7-0.4,1.3-0.8,1.9-1.4c0.5-0.4,0.8-1,1.1-1.6
					c0.1-0.3,0.2-0.7,0.2-1c0-0.3-0.1-0.6-0.2-0.8c-0.1-0.2-0.3-0.4-0.5-0.6c-0.2-0.2-0.5-0.3-0.7-0.4c-0.3-0.1-0.7-0.2-1-0.2
					c-0.3,0-0.6,0.1-0.8,0.2c-0.4,0.3-0.7,0.6-0.9,1.1c-0.1,0.3-0.2,0.7-0.2,1.1c0,0.3,0.1,0.7,0.2,1l-1.3,0.5
					c-0.2-0.3-0.4-0.6-0.4-1c-0.1-0.4-0.1-0.8-0.1-1.1c0-0.3,0.1-0.7,0.2-1c0.2-0.6,0.6-1.2,1.1-1.7c0.5-0.4,1.1-0.7,1.8-0.8
					c0.8-0.1,1.6,0,2.3,0.3c1.3,0.4,2.2,1.6,2.4,2.9c0.1,0.6,0,1.3-0.2,1.9c-0.2,0.6-0.5,1.1-0.9,1.5c-0.4,0.5-0.9,0.9-1.5,1.3
					c-0.6,0.4-1.2,0.8-1.8,1.1L91.2,34l-0.7-0.5l5,1.8L95,36.8L87.3,34.1z"/>
				<line class="st3" x1="-22.4" y1="31.7" x2="137.6" y2="14.4"/>
				<line class="st3" x1="78" y1="-9.3" x2="28.2" y2="66.8"/>
				<line class="st3" x1="18.5" y1="-11.5" x2="127.5" y2="64.5"/>
			</g>
		</g>
	</g>
</g>
</svg>
