<?xml version="1.0" encoding="utf-8"?>
<!-- Generator: Adobe Illustrator 25.0.0, SVG Export Plug-In . SVG Version: 6.00 Build 0)  -->
<svg version="1.1" id="圖層_1" xmlns="http://www.w3.org/2000/svg" xmlns:xlink="http://www.w3.org/1999/xlink" x="0px" y="0px"
	 viewBox="0 0 120 60" style="enable-background:new 0 0 120 60;" xml:space="preserve">
<style type="text/css">
	.st0{clip-path:url(#SVGID_2_);}
	.st1{fill:#FDEBCA;}
	.st2{fill:#333333;}
	.st3{fill:none;stroke:#004A13;stroke-miterlimit:10;}
</style>
<g id="圖層_2_1_">
	<g id="圖層_1-2">
		<g>
			<defs>
				<rect id="SVGID_1_" width="120" height="60"/>
			</defs>
			<clipPath id="SVGID_2_">
				<use xlink:href="#SVGID_1_"  style="overflow:visible;"/>
			</clipPath>
			<g class="st0">
				<rect class="st1" width="120" height="60"/>
				<path class="st2" d="M48,29.3l1.4,5.8l-1.1,0.4c0.1-0.2,0.1-0.3,0.2-0.5c0.1-0.2,0.2-0.3,0.4-0.4c0.3-0.3,0.6-0.6,1-0.8
					c0.4-0.2,0.8-0.4,1.2-0.4c0.5,0,0.9,0,1.3,0.2c0.5,0.2,1,0.6,1.4,1c0.6,0.5,1,1.2,1.1,1.9c0.2,0.7,0.2,1.4,0,2.1
					c-0.4,1.3-1.3,2.3-2.6,2.8c-0.5,0.2-1.1,0.4-1.7,0.4l-0.4-1.7c0.4,0,0.8,0,1.2-0.1c0.4-0.1,0.8-0.4,1.1-0.7
					c0.3-0.3,0.5-0.7,0.6-1.1c0.1-0.4,0.1-0.8,0-1.2c-0.1-0.5-0.4-0.9-0.7-1.2c-0.4-0.5-1-0.8-1.6-0.8c-0.6,0-1.2,0.3-1.6,0.8
					c-0.2,0.2-0.4,0.4-0.5,0.7c-0.1,0.2-0.2,0.4-0.3,0.6h-0.1l-1.1-5l0.5-0.2l-3,3.1l-1.2-1.2L48,29.3z"/>
				<path class="st2" d="M85.4,35.1c-0.3-0.6-0.4-1.2-0.5-1.8c0-0.6,0-1.1,0.2-1.6l1.6,0.3c-0.1,0.4-0.2,0.7-0.2,1.1
					c0,0.4,0.1,0.8,0.3,1.2c0.2,0.4,0.4,0.7,0.8,1c0.3,0.2,0.7,0.4,1.1,0.4c0.4,0,0.8-0.1,1.2-0.2c0.4-0.2,0.7-0.5,1-0.8
					c0.3-0.3,0.4-0.7,0.5-1.1c0-0.4-0.1-0.9-0.3-1.3c-0.2-0.4-0.4-0.7-0.7-1c-0.3-0.3-0.6-0.6-0.9-0.8l0,0l5.7-2.7l2.4,5.1L96,33.4
					l-1.8-3.7L91.5,31l0.2-0.4c0.2,0.2,0.3,0.4,0.4,0.6c0.1,0.2,0.3,0.4,0.4,0.6c0.3,0.6,0.5,1.3,0.4,2.1c-0.1,0.6-0.3,1.2-0.7,1.7
					c-0.4,0.5-1,0.9-1.6,1.2c-0.6,0.3-1.3,0.5-2,0.4c-0.7,0-1.3-0.2-1.9-0.6C86.2,36.2,85.7,35.7,85.4,35.1z"/>
				<path class="st2" d="M66.6,28.5c0-0.5,0.1-1,0.3-1.4c0.2-0.4,0.4-0.8,0.7-1.1c-0.4,0-0.8-0.2-1.2-0.4c-0.4-0.2-0.7-0.6-0.9-1
					c-0.2-0.4-0.3-0.9-0.3-1.5c0.1-0.5,0.2-1,0.6-1.4c0.3-0.4,0.8-0.8,1.2-1c0.5-0.3,1-0.4,1.6-0.4c0.5,0,1,0.1,1.4,0.3
					c0.4,0.2,0.8,0.6,1,1c0.2,0.4,0.3,0.9,0.3,1.3c-0.1,0.4-0.2,0.8-0.4,1.2c0.4,0,0.9,0,1.3,0.1c0.5,0.1,0.9,0.3,1.3,0.6
					c0.4,0.3,0.8,0.8,1,1.2c0.3,0.6,0.4,1.3,0.4,2c-0.1,0.7-0.3,1.4-0.7,2c-0.4,0.6-1,1.1-1.7,1.5c-0.7,0.4-1.4,0.5-2.2,0.5
					c-0.7,0-1.4-0.2-2-0.6c-0.6-0.3-1-0.9-1.3-1.5C66.8,29.6,66.6,29.1,66.6,28.5z M69.4,30.2c0.4,0.2,0.8,0.4,1.2,0.4
					c0.4,0,0.9,0,1.2-0.2c0.4-0.2,0.8-0.5,1-0.9c0.2-0.4,0.4-0.8,0.4-1.2c0-0.4-0.1-0.9-0.2-1.3c-0.2-0.4-0.5-0.8-0.8-1
					c-0.4-0.2-0.8-0.4-1.2-0.4c-0.4,0-0.9,0-1.2,0.2c-0.4,0.2-0.8,0.5-1,0.8c-0.2,0.4-0.4,0.8-0.4,1.2c0,0.4,0.1,0.9,0.3,1.3
					C68.8,29.6,69.1,29.9,69.4,30.2z M67.9,24.8c0.4,0.1,0.7,0.1,1.1-0.1c0.3-0.2,0.6-0.4,0.7-0.8c0.1-0.3,0.1-0.7-0.1-1
					c-0.2-0.4-0.5-0.6-0.8-0.8c-0.4-0.1-0.7-0.1-1.1,0.1c-0.3,0.2-0.6,0.5-0.7,0.8c-0.1,0.4-0.1,0.8,0.1,1.1
					C67.3,24.5,67.6,24.7,67.9,24.8z"/>
				<path class="st2" d="M22.4,31.4c1-0.3,2-0.5,3-0.8s1.8-0.6,2.7-0.9c0.7-0.3,1.4-0.6,2.1-1c0.5-0.3,1-0.8,1.3-1.4
					c0.2-0.3,0.3-0.6,0.3-1c0-0.3,0-0.6-0.1-0.9c-0.1-0.3-0.2-0.5-0.4-0.7c-0.4-0.5-1-0.7-1.6-0.8c-0.3,0-0.6,0-0.8,0.1
					c-0.2,0.1-0.5,0.2-0.6,0.4c-0.2,0.1-0.3,0.3-0.5,0.5c-0.2,0.3-0.3,0.6-0.4,1c-0.1,0.3-0.1,0.7,0,1l-1.4,0.3
					c-0.2-0.3-0.3-0.7-0.3-1c0-0.4,0.1-0.8,0.2-1.2c0.1-0.3,0.2-0.6,0.4-1c0.3-0.6,0.8-1,1.3-1.4c0.6-0.3,1.2-0.5,1.9-0.5
					c0.8,0,1.6,0.3,2.2,0.7c0.6,0.3,1.1,0.8,1.5,1.4c0.3,0.6,0.5,1.2,0.5,1.9c0,0.7-0.2,1.3-0.5,1.9c-0.3,0.5-0.7,1-1.2,1.4
					c-0.5,0.4-1.1,0.7-1.7,1c-0.6,0.3-1.3,0.5-2,0.8l-2,0.7l-0.5-0.6l4.6,2.6l-0.8,1.5L22.4,31.4z"/>
				<line class="st3" x1="-24" y1="6.6" x2="180" y2="49"/>
				<line class="st3" x1="-17.8" y1="37.3" x2="145.5" y2="15.5"/>
				<line class="st3" x1="35.2" y1="-9.7" x2="60" y2="67.8"/>
			</g>
		</g>
	</g>
</g>
</svg>
