<?xml version="1.0" encoding="utf-8"?>
<!-- Generator: Adobe Illustrator 25.0.0, SVG Export Plug-In . SVG Version: 6.00 Build 0)  -->
<svg version="1.1" id="圖層_1" xmlns="http://www.w3.org/2000/svg" xmlns:xlink="http://www.w3.org/1999/xlink" x="0px" y="0px"
	 viewBox="0 0 120 60" style="enable-background:new 0 0 120 60;" xml:space="preserve">
<style type="text/css">
	.st0{clip-path:url(#SVGID_2_);}
	.st1{fill:#FDEBCA;}
	.st2{fill:#333333;}
	.st3{fill:none;stroke:#004A13;stroke-miterlimit:10;}
</style>
<g id="圖層_2_1_">
	<g id="圖層_1-2">
		<g>
			<defs>
				<rect id="SVGID_1_" width="120" height="60"/>
			</defs>
			<clipPath id="SVGID_2_">
				<use xlink:href="#SVGID_1_"  style="overflow:visible;"/>
			</clipPath>
			<g class="st0">
				<rect class="st1" width="120" height="60"/>
				<path class="st2" d="M88.8,33.3c-0.5-0.3-1-0.7-1.4-1.2c-0.4-0.4-0.6-0.9-0.8-1.5l1.5-0.7c0.1,0.4,0.3,0.7,0.5,1
					c0.2,0.3,0.6,0.6,0.9,0.8c0.4,0.2,0.8,0.3,1.2,0.4c0.4,0,0.8-0.1,1.1-0.3c0.3-0.2,0.6-0.5,0.8-0.9c0.2-0.4,0.3-0.8,0.4-1.2
					c0-0.4,0-0.8-0.2-1.1c-0.2-0.4-0.6-0.7-0.9-0.9c-0.3-0.2-0.7-0.4-1.1-0.4c-0.4-0.1-0.8-0.1-1.2-0.1l0,0l3.1-5.4l4.9,2.8L96.7,26
					l-3.6-2.1l-1.5,2.6v-0.5c0.2,0.1,0.5,0.1,0.7,0.2c0.2,0.1,0.4,0.2,0.7,0.3c0.6,0.3,1.2,0.8,1.5,1.5c0.3,0.6,0.4,1.2,0.4,1.8
					c-0.1,0.7-0.3,1.3-0.6,1.9c-0.4,0.6-0.8,1.1-1.4,1.5c-0.6,0.4-1.3,0.5-1.9,0.5C90.1,33.9,89.4,33.7,88.8,33.3z"/>
				<path class="st2" d="M29.2,26.2l1.7,12.6l-1.7,1l-1.4-11.2l0.7-0.1l-5.2,2.9L22.4,30L29.2,26.2z"/>
				<path class="st2" d="M53.1,23.5l-9.3,8.7L42,31.4l8.3-7.6l0.4,0.5l-5.4-2.5l0.7-1.5L53.1,23.5z"/>
				<path class="st2" d="M65.7,37.6c-0.5-0.5-0.9-1-1.2-1.7c-0.3-0.6-0.4-1.3-0.3-2c0.1-0.7,0.2-1.4,0.6-2.1
					c0.4-0.8,0.9-1.5,1.5-2.1c0.6-0.7,1.3-1.2,2.1-1.7c0.6-0.4,1.3-0.6,2-0.7c0.6-0.1,1.3,0,1.9,0.3c0.7,0.3,1.3,0.7,1.8,1.2
					c0.5,0.5,0.9,1,1.2,1.7c0.3,0.6,0.4,1.3,0.3,1.9c-0.1,0.7-0.2,1.4-0.6,2.1c-0.4,0.8-0.9,1.5-1.4,2.1c-0.6,0.6-1.3,1.2-2,1.6
					c-0.6,0.3-1.3,0.6-2,0.7c-0.7,0.1-1.3,0-1.9-0.2C66.9,38.4,66.2,38,65.7,37.6z M66.9,36.3c0.4,0.4,1,0.7,1.7,0.8
					c0.6,0.1,1.3-0.1,1.8-0.4c0.7-0.4,1.3-0.8,1.9-1.4c0.5-0.6,0.9-1.2,1.2-1.9c0.3-0.6,0.3-1.2,0.3-1.8c-0.2-1.3-1.3-2.2-2.5-2.4
					c-0.6,0-1.3,0.1-1.8,0.4c-0.7,0.4-1.3,0.8-1.8,1.4c-0.5,0.5-1,1.2-1.3,1.9c-0.3,0.6-0.4,1.2-0.3,1.9
					C66.1,35.4,66.4,35.9,66.9,36.3z"/>
				<path class="st3" d="M103,74C98,71-14.6,7.6-14.6,7.6"/>
				<path class="st3" d="M103-14.5C103.5-12.5-14.6,60-14.6,60"/>
				<line class="st3" x1="60" y1="-17.9" x2="125.5" y2="64.5"/>
			</g>
		</g>
	</g>
</g>
</svg>
